<?xml version="1.0" standalone="no"?><!-- Generator: Gravit.io --><svg xmlns="http://www.w3.org/2000/svg" xmlns:xlink="http://www.w3.org/1999/xlink" style="isolation:isolate" viewBox="205 25 150 79.769" width="150" height="79.769"><g><path d=" M 213.791 66.489 L 214.931 66.489 L 214.931 72.833 L 214.931 72.833 Q 214.931 74.51 213.918 75.469 L 213.918 75.469 L 213.918 75.469 Q 212.906 76.428 211.135 76.428 L 211.135 76.428 L 211.135 76.428 Q 209.365 76.428 208.396 75.462 L 208.396 75.462 L 208.396 75.462 Q 207.427 74.496 207.427 72.806 L 207.427 72.806 L 207.427 66.489 L 208.567 66.489 L 208.567 72.887 L 208.567 72.887 Q 208.567 74.114 209.237 74.771 L 209.237 74.771 L 209.237 74.771 Q 209.908 75.429 211.209 75.429 L 211.209 75.429 L 211.209 75.429 Q 212.45 75.429 213.12 74.768 L 213.12 74.768 L 213.12 74.768 Q 213.791 74.107 213.791 72.873 L 213.791 72.873 L 213.791 66.489 L 213.791 66.489 Z  M 223.502 76.294 L 222.389 76.294 L 222.389 71.539 L 222.389 71.539 Q 222.389 70.64 221.98 70.198 L 221.98 70.198 L 221.98 70.198 Q 221.571 69.755 220.699 69.755 L 220.699 69.755 L 220.699 69.755 Q 219.545 69.755 219.009 70.379 L 219.009 70.379 L 219.009 70.379 Q 218.472 71.002 218.472 72.437 L 218.472 72.437 L 218.472 76.294 L 217.359 76.294 L 217.359 68.943 L 218.264 68.943 L 218.445 69.949 L 218.499 69.949 L 218.499 69.949 Q 218.841 69.406 219.458 69.108 L 219.458 69.108 L 219.458 69.108 Q 220.075 68.809 220.833 68.809 L 220.833 68.809 L 220.833 68.809 Q 222.161 68.809 222.831 69.45 L 222.831 69.45 L 222.831 69.45 Q 223.502 70.09 223.502 71.499 L 223.502 71.499 L 223.502 76.294 L 223.502 76.294 Z  M 226.902 68.943 L 226.902 76.294 L 225.789 76.294 L 225.789 68.943 L 226.902 68.943 L 226.902 68.943 Z  M 225.695 66.952 L 225.695 66.952 L 225.695 66.952 Q 225.695 66.569 225.883 66.392 L 225.883 66.392 L 225.883 66.392 Q 226.071 66.214 226.352 66.214 L 226.352 66.214 L 226.352 66.214 Q 226.621 66.214 226.815 66.395 L 226.815 66.395 L 226.815 66.395 Q 227.01 66.576 227.01 66.952 L 227.01 66.952 L 227.01 66.952 Q 227.01 67.327 226.815 67.512 L 226.815 67.512 L 226.815 67.512 Q 226.621 67.696 226.352 67.696 L 226.352 67.696 L 226.352 67.696 Q 226.071 67.696 225.883 67.512 L 225.883 67.512 L 225.883 67.512 Q 225.695 67.327 225.695 66.952 Z  M 232.174 76.294 L 230.872 76.294 L 228.083 68.943 L 229.276 68.943 L 230.859 73.303 L 230.859 73.303 Q 231.396 74.832 231.489 75.288 L 231.489 75.288 L 231.543 75.288 L 231.543 75.288 Q 231.617 74.932 232.009 73.816 L 232.009 73.816 L 232.009 73.816 Q 232.402 72.699 233.77 68.943 L 233.77 68.943 L 234.963 68.943 L 232.174 76.294 L 232.174 76.294 Z  M 239.249 76.428 L 239.249 76.428 L 239.249 76.428 Q 237.619 76.428 236.677 75.435 L 236.677 75.435 L 236.677 75.435 Q 235.735 74.443 235.735 72.679 L 235.735 72.679 L 235.735 72.679 Q 235.735 70.902 236.61 69.855 L 236.61 69.855 L 236.61 69.855 Q 237.485 68.809 238.96 68.809 L 238.96 68.809 L 238.96 68.809 Q 240.342 68.809 241.147 69.718 L 241.147 69.718 L 241.147 69.718 Q 241.952 70.627 241.952 72.116 L 241.952 72.116 L 241.952 72.82 L 236.888 72.82 L 236.888 72.82 Q 236.922 74.114 237.542 74.785 L 237.542 74.785 L 237.542 74.785 Q 238.162 75.455 239.289 75.455 L 239.289 75.455 L 239.289 75.455 Q 240.476 75.455 241.636 74.959 L 241.636 74.959 L 241.636 75.952 L 241.636 75.952 Q 241.046 76.206 240.52 76.317 L 240.52 76.317 L 240.52 76.317 Q 239.993 76.428 239.249 76.428 Z  M 238.947 69.741 L 238.947 69.741 L 238.947 69.741 Q 238.062 69.741 237.535 70.318 L 237.535 70.318 L 237.535 70.318 Q 237.009 70.895 236.915 71.914 L 236.915 71.914 L 240.758 71.914 L 240.758 71.914 Q 240.758 70.861 240.288 70.301 L 240.288 70.301 L 240.288 70.301 Q 239.819 69.741 238.947 69.741 Z  M 247.203 68.809 L 247.203 68.809 L 247.203 68.809 Q 247.692 68.809 248.081 68.89 L 248.081 68.89 L 247.927 69.923 L 247.927 69.923 Q 247.471 69.822 247.122 69.822 L 247.122 69.822 L 247.122 69.822 Q 246.23 69.822 245.597 70.546 L 245.597 70.546 L 245.597 70.546 Q 244.963 71.271 244.963 72.35 L 244.963 72.35 L 244.963 76.294 L 243.849 76.294 L 243.849 68.943 L 244.768 68.943 L 244.896 70.305 L 244.949 70.305 L 244.949 70.305 Q 245.358 69.587 245.935 69.198 L 245.935 69.198 L 245.935 69.198 Q 246.512 68.809 247.203 68.809 Z  M 254.198 74.288 L 254.198 74.288 L 254.198 74.288 Q 254.198 75.315 253.433 75.871 L 253.433 75.871 L 253.433 75.871 Q 252.668 76.428 251.287 76.428 L 251.287 76.428 L 251.287 76.428 Q 249.825 76.428 249.007 75.965 L 249.007 75.965 L 249.007 74.932 L 249.007 74.932 Q 249.537 75.201 250.143 75.355 L 250.143 75.355 L 250.143 75.355 Q 250.75 75.509 251.314 75.509 L 251.314 75.509 L 251.314 75.509 Q 252.186 75.509 252.655 75.231 L 252.655 75.231 L 252.655 75.231 Q 253.125 74.952 253.125 74.382 L 253.125 74.382 L 253.125 74.382 Q 253.125 73.953 252.752 73.648 L 252.752 73.648 L 252.752 73.648 Q 252.38 73.343 251.3 72.927 L 251.3 72.927 L 251.3 72.927 Q 250.274 72.545 249.842 72.26 L 249.842 72.26 L 249.842 72.26 Q 249.409 71.975 249.198 71.613 L 249.198 71.613 L 249.198 71.613 Q 248.987 71.25 248.987 70.747 L 248.987 70.747 L 248.987 70.747 Q 248.987 69.849 249.718 69.329 L 249.718 69.329 L 249.718 69.329 Q 250.449 68.809 251.723 68.809 L 251.723 68.809 L 251.723 68.809 Q 252.91 68.809 254.043 69.292 L 254.043 69.292 L 253.648 70.198 L 253.648 70.198 Q 252.541 69.741 251.642 69.741 L 251.642 69.741 L 251.642 69.741 Q 250.851 69.741 250.449 69.99 L 250.449 69.99 L 250.449 69.99 Q 250.046 70.238 250.046 70.674 L 250.046 70.674 L 250.046 70.674 Q 250.046 70.969 250.197 71.177 L 250.197 71.177 L 250.197 71.177 Q 250.348 71.385 250.683 71.572 L 250.683 71.572 L 250.683 71.572 Q 251.019 71.76 251.971 72.116 L 251.971 72.116 L 251.971 72.116 Q 253.279 72.592 253.738 73.075 L 253.738 73.075 L 253.738 73.075 Q 254.198 73.557 254.198 74.288 Z  M 257.122 68.943 L 257.122 76.294 L 256.008 76.294 L 256.008 68.943 L 257.122 68.943 L 257.122 68.943 Z  M 255.914 66.952 L 255.914 66.952 L 255.914 66.952 Q 255.914 66.569 256.102 66.392 L 256.102 66.392 L 256.102 66.392 Q 256.29 66.214 256.572 66.214 L 256.572 66.214 L 256.572 66.214 Q 256.84 66.214 257.034 66.395 L 257.034 66.395 L 257.034 66.395 Q 257.229 66.576 257.229 66.952 L 257.229 66.952 L 257.229 66.952 Q 257.229 67.327 257.034 67.512 L 257.034 67.512 L 257.034 67.512 Q 256.84 67.696 256.572 67.696 L 256.572 67.696 L 256.572 67.696 Q 256.29 67.696 256.102 67.512 L 256.102 67.512 L 256.102 67.512 Q 255.914 67.327 255.914 66.952 Z  M 261.856 75.509 L 261.856 75.509 L 261.856 75.509 Q 262.151 75.509 262.426 75.465 L 262.426 75.465 L 262.426 75.465 Q 262.701 75.422 262.862 75.375 L 262.862 75.375 L 262.862 76.227 L 262.862 76.227 Q 262.681 76.314 262.329 76.371 L 262.329 76.371 L 262.329 76.371 Q 261.977 76.428 261.695 76.428 L 261.695 76.428 L 261.695 76.428 Q 259.563 76.428 259.563 74.181 L 259.563 74.181 L 259.563 69.809 L 258.51 69.809 L 258.51 69.272 L 259.563 68.809 L 260.032 67.24 L 260.676 67.24 L 260.676 68.943 L 262.809 68.943 L 262.809 69.809 L 260.676 69.809 L 260.676 74.134 L 260.676 74.134 Q 260.676 74.798 260.991 75.154 L 260.991 75.154 L 260.991 75.154 Q 261.306 75.509 261.856 75.509 Z  M 269.676 76.294 L 268.851 76.294 L 268.63 75.247 L 268.576 75.247 L 268.576 75.247 Q 268.026 75.938 267.48 76.183 L 267.48 76.183 L 267.48 76.183 Q 266.933 76.428 266.115 76.428 L 266.115 76.428 L 266.115 76.428 Q 265.022 76.428 264.401 75.864 L 264.401 75.864 L 264.401 75.864 Q 263.781 75.301 263.781 74.262 L 263.781 74.262 L 263.781 74.262 Q 263.781 72.035 267.342 71.928 L 267.342 71.928 L 268.59 71.888 L 268.59 71.431 L 268.59 71.431 Q 268.59 70.566 268.217 70.154 L 268.217 70.154 L 268.217 70.154 Q 267.845 69.741 267.027 69.741 L 267.027 69.741 L 267.027 69.741 Q 266.108 69.741 264.948 70.305 L 264.948 70.305 L 264.606 69.453 L 264.606 69.453 Q 265.149 69.158 265.796 68.99 L 265.796 68.99 L 265.796 68.99 Q 266.444 68.823 267.094 68.823 L 267.094 68.823 L 267.094 68.823 Q 268.409 68.823 269.042 69.406 L 269.042 69.406 L 269.042 69.406 Q 269.676 69.99 269.676 71.277 L 269.676 71.277 L 269.676 76.294 L 269.676 76.294 Z  M 266.336 75.509 L 266.336 75.509 L 266.336 75.509 Q 267.376 75.509 267.969 74.939 L 267.969 74.939 L 267.969 74.939 Q 268.563 74.369 268.563 73.343 L 268.563 73.343 L 268.563 72.679 L 267.45 72.726 L 267.45 72.726 Q 266.122 72.773 265.535 73.138 L 265.535 73.138 L 265.535 73.138 Q 264.948 73.504 264.948 74.275 L 264.948 74.275 L 264.948 74.275 Q 264.948 74.879 265.314 75.194 L 265.314 75.194 L 265.314 75.194 Q 265.679 75.509 266.336 75.509 Z  M 266.075 67.971 L 266.075 67.803 L 266.075 67.803 Q 266.397 67.387 266.769 66.797 L 266.769 66.797 L 266.769 66.797 Q 267.141 66.207 267.356 65.771 L 267.356 65.771 L 268.71 65.771 L 268.71 65.912 L 268.71 65.912 Q 268.415 66.348 267.832 66.985 L 267.832 66.985 L 267.832 66.985 Q 267.248 67.622 266.819 67.971 L 266.819 67.971 L 266.075 67.971 L 266.075 67.971 Z  M 273.083 68.943 L 273.083 76.294 L 271.97 76.294 L 271.97 68.943 L 273.083 68.943 L 273.083 68.943 Z  M 271.876 66.952 L 271.876 66.952 L 271.876 66.952 Q 271.876 66.569 272.064 66.392 L 272.064 66.392 L 272.064 66.392 Q 272.251 66.214 272.533 66.214 L 272.533 66.214 L 272.533 66.214 Q 272.801 66.214 272.996 66.395 L 272.996 66.395 L 272.996 66.395 Q 273.19 66.576 273.19 66.952 L 273.19 66.952 L 273.19 66.952 Q 273.19 67.327 272.996 67.512 L 272.996 67.512 L 272.996 67.512 Q 272.801 67.696 272.533 67.696 L 272.533 67.696 L 272.533 67.696 Q 272.251 67.696 272.064 67.512 L 272.064 67.512 L 272.064 67.512 Q 271.876 67.327 271.876 66.952 Z  M 281.788 72.612 L 281.788 72.612 L 281.788 72.612 Q 281.788 74.409 280.883 75.418 L 280.883 75.418 L 280.883 75.418 Q 279.977 76.428 278.381 76.428 L 278.381 76.428 L 278.381 76.428 Q 277.395 76.428 276.631 75.965 L 276.631 75.965 L 276.631 75.965 Q 275.866 75.502 275.45 74.637 L 275.45 74.637 L 275.45 74.637 Q 275.035 73.772 275.035 72.612 L 275.035 72.612 L 275.035 72.612 Q 275.035 70.814 275.933 69.812 L 275.933 69.812 L 275.933 69.812 Q 276.832 68.809 278.428 68.809 L 278.428 68.809 L 278.428 68.809 Q 279.971 68.809 280.879 69.835 L 280.879 69.835 L 280.879 69.835 Q 281.788 70.861 281.788 72.612 Z  M 276.188 72.612 L 276.188 72.612 L 276.188 72.612 Q 276.188 74.02 276.751 74.758 L 276.751 74.758 L 276.751 74.758 Q 277.315 75.496 278.408 75.496 L 278.408 75.496 L 278.408 75.496 Q 279.501 75.496 280.068 74.761 L 280.068 74.761 L 280.068 74.761 Q 280.634 74.027 280.634 72.612 L 280.634 72.612 L 280.634 72.612 Q 280.634 71.21 280.068 70.483 L 280.068 70.483 L 280.068 70.483 Q 279.501 69.755 278.395 69.755 L 278.395 69.755 L 278.395 69.755 Q 277.301 69.755 276.745 70.472 L 276.745 70.472 L 276.745 70.472 Q 276.188 71.19 276.188 72.612 Z  M 209.534 59.142 L 207.488 59.142 L 207.488 63.22 L 206.348 63.22 L 206.348 53.415 L 209.037 53.415 L 209.037 53.415 Q 210.841 53.415 211.703 54.105 L 211.703 54.105 L 211.703 54.105 Q 212.565 54.796 212.565 56.184 L 212.565 56.184 L 212.565 56.184 Q 212.565 58.129 210.593 58.813 L 210.593 58.813 L 213.256 63.22 L 211.908 63.22 L 209.534 59.142 L 209.534 59.142 Z  M 207.488 54.414 L 207.488 58.163 L 209.051 58.163 L 209.051 58.163 Q 210.258 58.163 210.821 57.683 L 210.821 57.683 L 210.821 57.683 Q 211.385 57.204 211.385 56.245 L 211.385 56.245 L 211.385 56.245 Q 211.385 55.272 210.811 54.843 L 210.811 54.843 L 210.811 54.843 Q 210.238 54.414 208.97 54.414 L 208.97 54.414 L 207.488 54.414 L 207.488 54.414 Z  M 217.776 63.354 L 217.776 63.354 L 217.776 63.354 Q 216.146 63.354 215.204 62.361 L 215.204 62.361 L 215.204 62.361 Q 214.262 61.369 214.262 59.605 L 214.262 59.605 L 214.262 59.605 Q 214.262 57.828 215.137 56.781 L 215.137 56.781 L 215.137 56.781 Q 216.012 55.735 217.487 55.735 L 217.487 55.735 L 217.487 55.735 Q 218.869 55.735 219.674 56.644 L 219.674 56.644 L 219.674 56.644 Q 220.479 57.553 220.479 59.041 L 220.479 59.041 L 220.479 59.746 L 215.415 59.746 L 215.415 59.746 Q 215.449 61.04 216.069 61.711 L 216.069 61.711 L 216.069 61.711 Q 216.689 62.381 217.816 62.381 L 217.816 62.381 L 217.816 62.381 Q 219.003 62.381 220.163 61.885 L 220.163 61.885 L 220.163 62.878 L 220.163 62.878 Q 219.573 63.132 219.047 63.243 L 219.047 63.243 L 219.047 63.243 Q 218.52 63.354 217.776 63.354 Z  M 217.474 56.667 L 217.474 56.667 L 217.474 56.667 Q 216.589 56.667 216.062 57.244 L 216.062 57.244 L 216.062 57.244 Q 215.536 57.821 215.442 58.84 L 215.442 58.84 L 219.285 58.84 L 219.285 58.84 Q 219.285 57.787 218.815 57.227 L 218.815 57.227 L 218.815 57.227 Q 218.346 56.667 217.474 56.667 Z  M 227.118 61.214 L 227.118 61.214 L 227.118 61.214 Q 227.118 62.24 226.353 62.797 L 226.353 62.797 L 226.353 62.797 Q 225.589 63.354 224.207 63.354 L 224.207 63.354 L 224.207 63.354 Q 222.745 63.354 221.927 62.891 L 221.927 62.891 L 221.927 61.858 L 221.927 61.858 Q 222.457 62.126 223.064 62.281 L 223.064 62.281 L 223.064 62.281 Q 223.671 62.435 224.234 62.435 L 224.234 62.435 L 224.234 62.435 Q 225.106 62.435 225.575 62.157 L 225.575 62.157 L 225.575 62.157 Q 226.045 61.878 226.045 61.308 L 226.045 61.308 L 226.045 61.308 Q 226.045 60.879 225.673 60.574 L 225.673 60.574 L 225.673 60.574 Q 225.3 60.269 224.221 59.853 L 224.221 59.853 L 224.221 59.853 Q 223.195 59.471 222.762 59.186 L 222.762 59.186 L 222.762 59.186 Q 222.33 58.901 222.118 58.538 L 222.118 58.538 L 222.118 58.538 Q 221.907 58.176 221.907 57.673 L 221.907 57.673 L 221.907 57.673 Q 221.907 56.775 222.638 56.255 L 222.638 56.255 L 222.638 56.255 Q 223.369 55.735 224.643 55.735 L 224.643 55.735 L 224.643 55.735 Q 225.83 55.735 226.964 56.218 L 226.964 56.218 L 226.568 57.123 L 226.568 57.123 Q 225.461 56.667 224.563 56.667 L 224.563 56.667 L 224.563 56.667 Q 223.771 56.667 223.369 56.915 L 223.369 56.915 L 223.369 56.915 Q 222.967 57.164 222.967 57.6 L 222.967 57.6 L 222.967 57.6 Q 222.967 57.895 223.118 58.103 L 223.118 58.103 L 223.118 58.103 Q 223.268 58.31 223.604 58.498 L 223.604 58.498 L 223.604 58.498 Q 223.939 58.686 224.891 59.041 L 224.891 59.041 L 224.891 59.041 Q 226.199 59.518 226.659 60 L 226.659 60 L 226.659 60 Q 227.118 60.483 227.118 61.214 Z  M 231.303 62.435 L 231.303 62.435 L 231.303 62.435 Q 231.598 62.435 231.873 62.391 L 231.873 62.391 L 231.873 62.391 Q 232.148 62.348 232.309 62.301 L 232.309 62.301 L 232.309 63.153 L 232.309 63.153 Q 232.128 63.24 231.776 63.297 L 231.776 63.297 L 231.776 63.297 Q 231.423 63.354 231.142 63.354 L 231.142 63.354 L 231.142 63.354 Q 229.009 63.354 229.009 61.107 L 229.009 61.107 L 229.009 56.734 L 227.956 56.734 L 227.956 56.198 L 229.009 55.735 L 229.479 54.166 L 230.122 54.166 L 230.122 55.869 L 232.255 55.869 L 232.255 56.734 L 230.122 56.734 L 230.122 61.06 L 230.122 61.06 Q 230.122 61.724 230.438 62.079 L 230.438 62.079 L 230.438 62.079 Q 230.753 62.435 231.303 62.435 Z  M 239.123 63.22 L 238.298 63.22 L 238.076 62.173 L 238.023 62.173 L 238.023 62.173 Q 237.473 62.864 236.926 63.109 L 236.926 63.109 L 236.926 63.109 Q 236.38 63.354 235.561 63.354 L 235.561 63.354 L 235.561 63.354 Q 234.468 63.354 233.848 62.79 L 233.848 62.79 L 233.848 62.79 Q 233.228 62.227 233.228 61.188 L 233.228 61.188 L 233.228 61.188 Q 233.228 58.961 236.789 58.854 L 236.789 58.854 L 238.036 58.813 L 238.036 58.357 L 238.036 58.357 Q 238.036 57.492 237.664 57.08 L 237.664 57.08 L 237.664 57.08 Q 237.292 56.667 236.473 56.667 L 236.473 56.667 L 236.473 56.667 Q 235.555 56.667 234.394 57.231 L 234.394 57.231 L 234.052 56.379 L 234.052 56.379 Q 234.596 56.084 235.243 55.916 L 235.243 55.916 L 235.243 55.916 Q 235.89 55.749 236.541 55.749 L 236.541 55.749 L 236.541 55.749 Q 237.855 55.749 238.489 56.332 L 238.489 56.332 L 238.489 56.332 Q 239.123 56.915 239.123 58.203 L 239.123 58.203 L 239.123 63.22 L 239.123 63.22 Z  M 235.783 62.435 L 235.783 62.435 L 235.783 62.435 Q 236.822 62.435 237.416 61.865 L 237.416 61.865 L 237.416 61.865 Q 238.009 61.295 238.009 60.269 L 238.009 60.269 L 238.009 59.605 L 236.896 59.652 L 236.896 59.652 Q 235.568 59.699 234.981 60.064 L 234.981 60.064 L 234.981 60.064 Q 234.394 60.43 234.394 61.201 L 234.394 61.201 L 234.394 61.201 Q 234.394 61.805 234.76 62.12 L 234.76 62.12 L 234.76 62.12 Q 235.125 62.435 235.783 62.435 Z  M 241.336 55.869 L 242.462 55.869 L 242.462 60.638 L 242.462 60.638 Q 242.462 61.536 242.871 61.979 L 242.871 61.979 L 242.871 61.979 Q 243.281 62.422 244.152 62.422 L 244.152 62.422 L 244.152 62.422 Q 245.306 62.422 245.839 61.791 L 245.839 61.791 L 245.839 61.791 Q 246.372 61.161 246.372 59.732 L 246.372 59.732 L 246.372 55.869 L 247.485 55.869 L 247.485 63.22 L 246.567 63.22 L 246.406 62.234 L 246.345 62.234 L 246.345 62.234 Q 246.003 62.777 245.396 63.065 L 245.396 63.065 L 245.396 63.065 Q 244.789 63.354 244.012 63.354 L 244.012 63.354 L 244.012 63.354 Q 242.67 63.354 242.003 62.717 L 242.003 62.717 L 242.003 62.717 Q 241.336 62.079 241.336 60.678 L 241.336 60.678 L 241.336 55.869 L 241.336 55.869 Z  M 253.199 55.735 L 253.199 55.735 L 253.199 55.735 Q 253.689 55.735 254.078 55.816 L 254.078 55.816 L 253.924 56.848 L 253.924 56.848 Q 253.468 56.748 253.119 56.748 L 253.119 56.748 L 253.119 56.748 Q 252.227 56.748 251.593 57.472 L 251.593 57.472 L 251.593 57.472 Q 250.959 58.196 250.959 59.276 L 250.959 59.276 L 250.959 63.22 L 249.846 63.22 L 249.846 55.869 L 250.765 55.869 L 250.892 57.231 L 250.946 57.231 L 250.946 57.231 Q 251.355 56.513 251.932 56.124 L 251.932 56.124 L 251.932 56.124 Q 252.509 55.735 253.199 55.735 Z  M 260.798 63.22 L 259.973 63.22 L 259.752 62.173 L 259.698 62.173 L 259.698 62.173 Q 259.148 62.864 258.601 63.109 L 258.601 63.109 L 258.601 63.109 Q 258.055 63.354 257.237 63.354 L 257.237 63.354 L 257.237 63.354 Q 256.144 63.354 255.523 62.79 L 255.523 62.79 L 255.523 62.79 Q 254.903 62.227 254.903 61.188 L 254.903 61.188 L 254.903 61.188 Q 254.903 58.961 258.464 58.854 L 258.464 58.854 L 259.711 58.813 L 259.711 58.357 L 259.711 58.357 Q 259.711 57.492 259.339 57.08 L 259.339 57.08 L 259.339 57.08 Q 258.967 56.667 258.149 56.667 L 258.149 56.667 L 258.149 56.667 Q 257.23 56.667 256.07 57.231 L 256.07 57.231 L 255.728 56.379 L 255.728 56.379 Q 256.271 56.084 256.918 55.916 L 256.918 55.916 L 256.918 55.916 Q 257.565 55.749 258.216 55.749 L 258.216 55.749 L 258.216 55.749 Q 259.53 55.749 260.164 56.332 L 260.164 56.332 L 260.164 56.332 Q 260.798 56.915 260.798 58.203 L 260.798 58.203 L 260.798 63.22 L 260.798 63.22 Z  M 257.458 62.435 L 257.458 62.435 L 257.458 62.435 Q 258.498 62.435 259.091 61.865 L 259.091 61.865 L 259.091 61.865 Q 259.685 61.295 259.685 60.269 L 259.685 60.269 L 259.685 59.605 L 258.571 59.652 L 258.571 59.652 Q 257.243 59.699 256.657 60.064 L 256.657 60.064 L 256.657 60.064 Q 256.07 60.43 256.07 61.201 L 256.07 61.201 L 256.07 61.201 Q 256.07 61.805 256.435 62.12 L 256.435 62.12 L 256.435 62.12 Q 256.801 62.435 257.458 62.435 Z  M 269.235 63.22 L 268.121 63.22 L 268.121 58.465 L 268.121 58.465 Q 268.121 57.566 267.712 57.123 L 267.712 57.123 L 267.712 57.123 Q 267.303 56.681 266.431 56.681 L 266.431 56.681 L 266.431 56.681 Q 265.278 56.681 264.741 57.304 L 264.741 57.304 L 264.741 57.304 Q 264.205 57.928 264.205 59.363 L 264.205 59.363 L 264.205 63.22 L 263.091 63.22 L 263.091 55.869 L 263.997 55.869 L 264.178 56.875 L 264.232 56.875 L 264.232 56.875 Q 264.574 56.332 265.191 56.034 L 265.191 56.034 L 265.191 56.034 Q 265.808 55.735 266.565 55.735 L 266.565 55.735 L 266.565 55.735 Q 267.893 55.735 268.564 56.376 L 268.564 56.376 L 268.564 56.376 Q 269.235 57.016 269.235 58.424 L 269.235 58.424 L 269.235 63.22 L 269.235 63.22 Z  M 273.896 62.435 L 273.896 62.435 L 273.896 62.435 Q 274.191 62.435 274.466 62.391 L 274.466 62.391 L 274.466 62.391 Q 274.741 62.348 274.902 62.301 L 274.902 62.301 L 274.902 63.153 L 274.902 63.153 Q 274.72 63.24 274.368 63.297 L 274.368 63.297 L 274.368 63.297 Q 274.016 63.354 273.735 63.354 L 273.735 63.354 L 273.735 63.354 Q 271.602 63.354 271.602 61.107 L 271.602 61.107 L 271.602 56.734 L 270.549 56.734 L 270.549 56.198 L 271.602 55.735 L 272.071 54.166 L 272.715 54.166 L 272.715 55.869 L 274.848 55.869 L 274.848 56.734 L 272.715 56.734 L 272.715 61.06 L 272.715 61.06 Q 272.715 61.724 273.03 62.079 L 273.03 62.079 L 273.03 62.079 Q 273.346 62.435 273.896 62.435 Z  M 279.475 63.354 L 279.475 63.354 L 279.475 63.354 Q 277.846 63.354 276.903 62.361 L 276.903 62.361 L 276.903 62.361 Q 275.961 61.369 275.961 59.605 L 275.961 59.605 L 275.961 59.605 Q 275.961 57.828 276.836 56.781 L 276.836 56.781 L 276.836 56.781 Q 277.712 55.735 279.187 55.735 L 279.187 55.735 L 279.187 55.735 Q 280.569 55.735 281.373 56.644 L 281.373 56.644 L 281.373 56.644 Q 282.178 57.553 282.178 59.041 L 282.178 59.041 L 282.178 59.746 L 277.115 59.746 L 277.115 59.746 Q 277.148 61.04 277.769 61.711 L 277.769 61.711 L 277.769 61.711 Q 278.389 62.381 279.516 62.381 L 279.516 62.381 L 279.516 62.381 Q 280.703 62.381 281.863 61.885 L 281.863 61.885 L 281.863 62.878 L 281.863 62.878 Q 281.273 63.132 280.746 63.243 L 280.746 63.243 L 280.746 63.243 Q 280.22 63.354 279.475 63.354 Z  M 279.174 56.667 L 279.174 56.667 L 279.174 56.667 Q 278.288 56.667 277.762 57.244 L 277.762 57.244 L 277.762 57.244 Q 277.235 57.821 277.142 58.84 L 277.142 58.84 L 280.984 58.84 L 280.984 58.84 Q 280.984 57.787 280.515 57.227 L 280.515 57.227 L 280.515 57.227 Q 280.045 56.667 279.174 56.667 Z " fill="rgb(245,245,245)"/><path d=" M 248.65 87.829 L 247.889 87.829 L 247.101 85.817 L 244.566 85.817 L 243.787 87.829 L 243.043 87.829 L 245.544 81.477 L 246.163 81.477 L 248.65 87.829 L 248.65 87.829 Z  M 244.826 85.155 L 246.872 85.155 L 246.137 83.195 L 246.137 83.195 Q 245.994 82.823 245.842 82.282 L 245.842 82.282 L 245.842 82.282 Q 245.747 82.697 245.57 83.195 L 245.57 83.195 L 244.826 85.155 L 244.826 85.155 Z  M 251.575 83 L 251.575 83 L 251.575 83 Q 251.891 83 252.142 83.052 L 252.142 83.052 L 252.043 83.718 L 252.043 83.718 Q 251.748 83.653 251.523 83.653 L 251.523 83.653 L 251.523 83.653 Q 250.948 83.653 250.539 84.121 L 250.539 84.121 L 250.539 84.121 Q 250.13 84.588 250.13 85.285 L 250.13 85.285 L 250.13 87.829 L 249.412 87.829 L 249.412 83.087 L 250.005 83.087 L 250.087 83.965 L 250.122 83.965 L 250.122 83.965 Q 250.385 83.502 250.758 83.251 L 250.758 83.251 L 250.758 83.251 Q 251.13 83 251.575 83 Z  M 256.478 87.829 L 255.945 87.829 L 255.803 87.154 L 255.768 87.154 L 255.768 87.154 Q 255.413 87.599 255.061 87.757 L 255.061 87.757 L 255.061 87.757 Q 254.708 87.915 254.18 87.915 L 254.18 87.915 L 254.18 87.915 Q 253.475 87.915 253.075 87.552 L 253.075 87.552 L 253.075 87.552 Q 252.674 87.188 252.674 86.518 L 252.674 86.518 L 252.674 86.518 Q 252.674 85.081 254.972 85.012 L 254.972 85.012 L 255.777 84.986 L 255.777 84.692 L 255.777 84.692 Q 255.777 84.134 255.536 83.868 L 255.536 83.868 L 255.536 83.868 Q 255.296 83.601 254.768 83.601 L 254.768 83.601 L 254.768 83.601 Q 254.176 83.601 253.427 83.965 L 253.427 83.965 L 253.207 83.415 L 253.207 83.415 Q 253.557 83.225 253.975 83.117 L 253.975 83.117 L 253.975 83.117 Q 254.392 83.009 254.812 83.009 L 254.812 83.009 L 254.812 83.009 Q 255.66 83.009 256.069 83.385 L 256.069 83.385 L 256.069 83.385 Q 256.478 83.762 256.478 84.592 L 256.478 84.592 L 256.478 87.829 L 256.478 87.829 Z  M 254.323 87.322 L 254.323 87.322 L 254.323 87.322 Q 254.993 87.322 255.376 86.955 L 255.376 86.955 L 255.376 86.955 Q 255.759 86.587 255.759 85.925 L 255.759 85.925 L 255.759 85.497 L 255.041 85.527 L 255.041 85.527 Q 254.184 85.557 253.806 85.793 L 253.806 85.793 L 253.806 85.793 Q 253.427 86.029 253.427 86.526 L 253.427 86.526 L 253.427 86.526 Q 253.427 86.916 253.663 87.119 L 253.663 87.119 L 253.663 87.119 Q 253.899 87.322 254.323 87.322 Z  M 260.164 87.915 L 260.164 87.915 L 260.164 87.915 Q 259.701 87.915 259.318 87.744 L 259.318 87.744 L 259.318 87.744 Q 258.935 87.573 258.676 87.219 L 258.676 87.219 L 258.624 87.219 L 258.624 87.219 Q 258.676 87.634 258.676 88.006 L 258.676 88.006 L 258.676 89.957 L 257.957 89.957 L 257.957 83.087 L 258.541 83.087 L 258.641 83.736 L 258.676 83.736 L 258.676 83.736 Q 258.952 83.346 259.32 83.173 L 259.32 83.173 L 259.32 83.173 Q 259.688 83 260.164 83 L 260.164 83 L 260.164 83 Q 261.107 83 261.62 83.645 L 261.62 83.645 L 261.62 83.645 Q 262.133 84.289 262.133 85.453 L 262.133 85.453 L 262.133 85.453 Q 262.133 86.622 261.611 87.268 L 261.611 87.268 L 261.611 87.268 Q 261.09 87.915 260.164 87.915 Z  M 260.06 83.61 L 260.06 83.61 L 260.06 83.61 Q 259.333 83.61 259.009 84.012 L 259.009 84.012 L 259.009 84.012 Q 258.684 84.415 258.676 85.293 L 258.676 85.293 L 258.676 85.453 L 258.676 85.453 Q 258.676 86.453 259.009 86.883 L 259.009 86.883 L 259.009 86.883 Q 259.342 87.314 260.077 87.314 L 260.077 87.314 L 260.077 87.314 Q 260.692 87.314 261.04 86.816 L 261.04 86.816 L 261.04 86.816 Q 261.388 86.319 261.388 85.445 L 261.388 85.445 L 261.388 85.445 Q 261.388 84.558 261.04 84.084 L 261.04 84.084 L 261.04 84.084 Q 260.692 83.61 260.06 83.61 Z  M 264.106 83.087 L 264.106 87.829 L 263.387 87.829 L 263.387 83.087 L 264.106 83.087 L 264.106 83.087 Z  M 263.327 81.802 L 263.327 81.802 L 263.327 81.802 Q 263.327 81.555 263.448 81.44 L 263.448 81.44 L 263.448 81.44 Q 263.569 81.326 263.751 81.326 L 263.751 81.326 L 263.751 81.326 Q 263.924 81.326 264.049 81.442 L 264.049 81.442 L 264.049 81.442 Q 264.175 81.559 264.175 81.802 L 264.175 81.802 L 264.175 81.802 Q 264.175 82.044 264.049 82.163 L 264.049 82.163 L 264.049 82.163 Q 263.924 82.282 263.751 82.282 L 263.751 82.282 L 263.751 82.282 Q 263.569 82.282 263.448 82.163 L 263.448 82.163 L 263.448 82.163 Q 263.327 82.044 263.327 81.802 Z  M 267.792 83 L 267.792 83 L 267.792 83 Q 268.108 83 268.359 83.052 L 268.359 83.052 L 268.259 83.718 L 268.259 83.718 Q 267.965 83.653 267.74 83.653 L 267.74 83.653 L 267.74 83.653 Q 267.165 83.653 266.756 84.121 L 266.756 84.121 L 266.756 84.121 Q 266.347 84.588 266.347 85.285 L 266.347 85.285 L 266.347 87.829 L 265.629 87.829 L 265.629 83.087 L 266.221 83.087 L 266.304 83.965 L 266.338 83.965 L 266.338 83.965 Q 266.602 83.502 266.974 83.251 L 266.974 83.251 L 266.974 83.251 Q 267.346 83 267.792 83 Z  M 272.694 87.829 L 272.162 87.829 L 272.019 87.154 L 271.985 87.154 L 271.985 87.154 Q 271.63 87.599 271.277 87.757 L 271.277 87.757 L 271.277 87.757 Q 270.925 87.915 270.397 87.915 L 270.397 87.915 L 270.397 87.915 Q 269.691 87.915 269.291 87.552 L 269.291 87.552 L 269.291 87.552 Q 268.891 87.188 268.891 86.518 L 268.891 86.518 L 268.891 86.518 Q 268.891 85.081 271.189 85.012 L 271.189 85.012 L 271.993 84.986 L 271.993 84.692 L 271.993 84.692 Q 271.993 84.134 271.753 83.868 L 271.753 83.868 L 271.753 83.868 Q 271.513 83.601 270.985 83.601 L 270.985 83.601 L 270.985 83.601 Q 270.392 83.601 269.644 83.965 L 269.644 83.965 L 269.423 83.415 L 269.423 83.415 Q 269.774 83.225 270.191 83.117 L 270.191 83.117 L 270.191 83.117 Q 270.609 83.009 271.028 83.009 L 271.028 83.009 L 271.028 83.009 Q 271.876 83.009 272.285 83.385 L 272.285 83.385 L 272.285 83.385 Q 272.694 83.762 272.694 84.592 L 272.694 84.592 L 272.694 87.829 L 272.694 87.829 Z  M 270.54 87.322 L 270.54 87.322 L 270.54 87.322 Q 271.21 87.322 271.593 86.955 L 271.593 86.955 L 271.593 86.955 Q 271.976 86.587 271.976 85.925 L 271.976 85.925 L 271.976 85.497 L 271.258 85.527 L 271.258 85.527 Q 270.401 85.557 270.022 85.793 L 270.022 85.793 L 270.022 85.793 Q 269.644 86.029 269.644 86.526 L 269.644 86.526 L 269.644 86.526 Q 269.644 86.916 269.88 87.119 L 269.88 87.119 L 269.88 87.119 Q 270.115 87.322 270.54 87.322 Z  M 276.069 87.915 L 276.069 87.915 L 276.069 87.915 Q 275.039 87.915 274.475 87.281 L 274.475 87.281 L 274.475 87.281 Q 273.91 86.647 273.91 85.488 L 273.91 85.488 L 273.91 85.488 Q 273.91 84.298 274.483 83.649 L 274.483 83.649 L 274.483 83.649 Q 275.057 83 276.117 83 L 276.117 83 L 276.117 83 Q 276.459 83 276.8 83.074 L 276.8 83.074 L 276.8 83.074 Q 277.142 83.147 277.337 83.247 L 277.337 83.247 L 277.116 83.857 L 277.116 83.857 Q 276.878 83.762 276.597 83.699 L 276.597 83.699 L 276.597 83.699 Q 276.316 83.636 276.099 83.636 L 276.099 83.636 L 276.099 83.636 Q 274.654 83.636 274.654 85.479 L 274.654 85.479 L 274.654 85.479 Q 274.654 86.353 275.007 86.821 L 275.007 86.821 L 275.007 86.821 Q 275.36 87.288 276.052 87.288 L 276.052 87.288 L 276.052 87.288 Q 276.645 87.288 277.268 87.033 L 277.268 87.033 L 277.268 87.669 L 277.268 87.669 Q 276.792 87.915 276.069 87.915 Z  M 281.841 87.829 L 281.309 87.829 L 281.166 87.154 L 281.131 87.154 L 281.131 87.154 Q 280.777 87.599 280.424 87.757 L 280.424 87.757 L 280.424 87.757 Q 280.071 87.915 279.543 87.915 L 279.543 87.915 L 279.543 87.915 Q 278.838 87.915 278.438 87.552 L 278.438 87.552 L 278.438 87.552 Q 278.038 87.188 278.038 86.518 L 278.038 86.518 L 278.038 86.518 Q 278.038 85.081 280.335 85.012 L 280.335 85.012 L 281.14 84.986 L 281.14 84.692 L 281.14 84.692 Q 281.14 84.134 280.9 83.868 L 280.9 83.868 L 280.9 83.868 Q 280.66 83.601 280.132 83.601 L 280.132 83.601 L 280.132 83.601 Q 279.539 83.601 278.791 83.965 L 278.791 83.965 L 278.57 83.415 L 278.57 83.415 Q 278.92 83.225 279.338 83.117 L 279.338 83.117 L 279.338 83.117 Q 279.755 83.009 280.175 83.009 L 280.175 83.009 L 280.175 83.009 Q 281.023 83.009 281.432 83.385 L 281.432 83.385 L 281.432 83.385 Q 281.841 83.762 281.841 84.592 L 281.841 84.592 L 281.841 87.829 L 281.841 87.829 Z  M 279.686 87.322 L 279.686 87.322 L 279.686 87.322 Q 280.357 87.322 280.74 86.955 L 280.74 86.955 L 280.74 86.955 Q 281.123 86.587 281.123 85.925 L 281.123 85.925 L 281.123 85.497 L 280.405 85.527 L 280.405 85.527 Q 279.548 85.557 279.169 85.793 L 279.169 85.793 L 279.169 85.793 Q 278.791 86.029 278.791 86.526 L 278.791 86.526 L 278.791 86.526 Q 278.791 86.916 279.026 87.119 L 279.026 87.119 L 279.026 87.119 Q 279.262 87.322 279.686 87.322 Z  M 210.462 82.07 L 210.462 82.07 L 210.462 82.07 Q 209.42 82.07 208.816 82.764 L 208.816 82.764 L 208.816 82.764 Q 208.213 83.459 208.213 84.666 L 208.213 84.666 L 208.213 84.666 Q 208.213 85.908 208.795 86.585 L 208.795 86.585 L 208.795 86.585 Q 209.376 87.262 210.454 87.262 L 210.454 87.262 L 210.454 87.262 Q 211.116 87.262 211.964 87.024 L 211.964 87.024 L 211.964 87.669 L 211.964 87.669 Q 211.306 87.915 210.341 87.915 L 210.341 87.915 L 210.341 87.915 Q 208.944 87.915 208.184 87.067 L 208.184 87.067 L 208.184 87.067 Q 207.425 86.219 207.425 84.657 L 207.425 84.657 L 207.425 84.657 Q 207.425 83.679 207.791 82.944 L 207.791 82.944 L 207.791 82.944 Q 208.156 82.208 208.846 81.81 L 208.846 81.81 L 208.846 81.81 Q 209.537 81.412 210.471 81.412 L 210.471 81.412 L 210.471 81.412 Q 211.466 81.412 212.211 81.776 L 212.211 81.776 L 211.899 82.407 L 211.899 82.407 Q 211.181 82.07 210.462 82.07 Z  M 216.684 87.829 L 216.152 87.829 L 216.009 87.154 L 215.975 87.154 L 215.975 87.154 Q 215.62 87.599 215.267 87.757 L 215.267 87.757 L 215.267 87.757 Q 214.915 87.915 214.387 87.915 L 214.387 87.915 L 214.387 87.915 Q 213.682 87.915 213.281 87.552 L 213.281 87.552 L 213.281 87.552 Q 212.881 87.188 212.881 86.518 L 212.881 86.518 L 212.881 86.518 Q 212.881 85.081 215.179 85.012 L 215.179 85.012 L 215.983 84.986 L 215.983 84.692 L 215.983 84.692 Q 215.983 84.134 215.743 83.868 L 215.743 83.868 L 215.743 83.868 Q 215.503 83.601 214.975 83.601 L 214.975 83.601 L 214.975 83.601 Q 214.383 83.601 213.634 83.965 L 213.634 83.965 L 213.413 83.415 L 213.413 83.415 Q 213.764 83.225 214.181 83.117 L 214.181 83.117 L 214.181 83.117 Q 214.599 83.009 215.019 83.009 L 215.019 83.009 L 215.019 83.009 Q 215.867 83.009 216.275 83.385 L 216.275 83.385 L 216.275 83.385 Q 216.684 83.762 216.684 84.592 L 216.684 84.592 L 216.684 87.829 L 216.684 87.829 Z  M 214.53 87.322 L 214.53 87.322 L 214.53 87.322 Q 215.2 87.322 215.583 86.955 L 215.583 86.955 L 215.583 86.955 Q 215.966 86.587 215.966 85.925 L 215.966 85.925 L 215.966 85.497 L 215.248 85.527 L 215.248 85.527 Q 214.391 85.557 214.013 85.793 L 214.013 85.793 L 214.013 85.793 Q 213.634 86.029 213.634 86.526 L 213.634 86.526 L 213.634 86.526 Q 213.634 86.916 213.87 87.119 L 213.87 87.119 L 213.87 87.119 Q 214.106 87.322 214.53 87.322 Z  M 224.927 87.829 L 224.209 87.829 L 224.209 84.744 L 224.209 84.744 Q 224.209 84.177 223.966 83.893 L 223.966 83.893 L 223.966 83.893 Q 223.724 83.61 223.213 83.61 L 223.213 83.61 L 223.213 83.61 Q 222.543 83.61 222.223 83.995 L 222.223 83.995 L 222.223 83.995 Q 221.902 84.38 221.902 85.181 L 221.902 85.181 L 221.902 87.829 L 221.184 87.829 L 221.184 84.744 L 221.184 84.744 Q 221.184 84.177 220.942 83.893 L 220.942 83.893 L 220.942 83.893 Q 220.7 83.61 220.185 83.61 L 220.185 83.61 L 220.185 83.61 Q 219.51 83.61 219.196 84.015 L 219.196 84.015 L 219.196 84.015 Q 218.882 84.419 218.882 85.341 L 218.882 85.341 L 218.882 87.829 L 218.164 87.829 L 218.164 83.087 L 218.748 83.087 L 218.865 83.736 L 218.9 83.736 L 218.9 83.736 Q 219.103 83.389 219.473 83.195 L 219.473 83.195 L 219.473 83.195 Q 219.843 83 220.302 83 L 220.302 83 L 220.302 83 Q 221.414 83 221.755 83.805 L 221.755 83.805 L 221.79 83.805 L 221.79 83.805 Q 222.002 83.433 222.404 83.216 L 222.404 83.216 L 222.404 83.216 Q 222.807 83 223.322 83 L 223.322 83 L 223.322 83 Q 224.126 83 224.527 83.413 L 224.527 83.413 L 224.527 83.413 Q 224.927 83.826 224.927 84.735 L 224.927 84.735 L 224.927 87.829 L 224.927 87.829 Z  M 228.613 87.915 L 228.613 87.915 L 228.613 87.915 Q 228.15 87.915 227.767 87.744 L 227.767 87.744 L 227.767 87.744 Q 227.384 87.573 227.125 87.219 L 227.125 87.219 L 227.073 87.219 L 227.073 87.219 Q 227.125 87.634 227.125 88.006 L 227.125 88.006 L 227.125 89.957 L 226.407 89.957 L 226.407 83.087 L 226.991 83.087 L 227.09 83.736 L 227.125 83.736 L 227.125 83.736 Q 227.402 83.346 227.77 83.173 L 227.77 83.173 L 227.77 83.173 Q 228.137 83 228.613 83 L 228.613 83 L 228.613 83 Q 229.556 83 230.069 83.645 L 230.069 83.645 L 230.069 83.645 Q 230.582 84.289 230.582 85.453 L 230.582 85.453 L 230.582 85.453 Q 230.582 86.622 230.061 87.268 L 230.061 87.268 L 230.061 87.268 Q 229.539 87.915 228.613 87.915 Z  M 228.509 83.61 L 228.509 83.61 L 228.509 83.61 Q 227.782 83.61 227.458 84.012 L 227.458 84.012 L 227.458 84.012 Q 227.133 84.415 227.125 85.293 L 227.125 85.293 L 227.125 85.453 L 227.125 85.453 Q 227.125 86.453 227.458 86.883 L 227.458 86.883 L 227.458 86.883 Q 227.791 87.314 228.527 87.314 L 228.527 87.314 L 228.527 87.314 Q 229.141 87.314 229.489 86.816 L 229.489 86.816 L 229.489 86.816 Q 229.838 86.319 229.838 85.445 L 229.838 85.445 L 229.838 85.445 Q 229.838 84.558 229.489 84.084 L 229.489 84.084 L 229.489 84.084 Q 229.141 83.61 228.509 83.61 Z  M 231.785 83.087 L 232.512 83.087 L 232.512 86.163 L 232.512 86.163 Q 232.512 86.743 232.776 87.028 L 232.776 87.028 L 232.776 87.028 Q 233.04 87.314 233.602 87.314 L 233.602 87.314 L 233.602 87.314 Q 234.346 87.314 234.69 86.907 L 234.69 86.907 L 234.69 86.907 Q 235.034 86.5 235.034 85.579 L 235.034 85.579 L 235.034 83.087 L 235.752 83.087 L 235.752 87.829 L 235.16 87.829 L 235.056 87.193 L 235.017 87.193 L 235.017 87.193 Q 234.796 87.543 234.405 87.729 L 234.405 87.729 L 234.405 87.729 Q 234.013 87.915 233.511 87.915 L 233.511 87.915 L 233.511 87.915 Q 232.646 87.915 232.215 87.504 L 232.215 87.504 L 232.215 87.504 Q 231.785 87.093 231.785 86.189 L 231.785 86.189 L 231.785 83.087 L 231.785 83.087 Z  M 240.334 86.535 L 240.334 86.535 L 240.334 86.535 Q 240.334 87.197 239.841 87.556 L 239.841 87.556 L 239.841 87.556 Q 239.348 87.915 238.457 87.915 L 238.457 87.915 L 238.457 87.915 Q 237.513 87.915 236.986 87.617 L 236.986 87.617 L 236.986 86.95 L 236.986 86.95 Q 237.327 87.123 237.719 87.223 L 237.719 87.223 L 237.719 87.223 Q 238.11 87.322 238.474 87.322 L 238.474 87.322 L 238.474 87.322 Q 239.036 87.322 239.339 87.143 L 239.339 87.143 L 239.339 87.143 Q 239.642 86.963 239.642 86.596 L 239.642 86.596 L 239.642 86.596 Q 239.642 86.319 239.402 86.122 L 239.402 86.122 L 239.402 86.122 Q 239.162 85.925 238.465 85.657 L 238.465 85.657 L 238.465 85.657 Q 237.803 85.41 237.524 85.226 L 237.524 85.226 L 237.524 85.226 Q 237.245 85.042 237.109 84.809 L 237.109 84.809 L 237.109 84.809 Q 236.973 84.575 236.973 84.25 L 236.973 84.25 L 236.973 84.25 Q 236.973 83.671 237.444 83.335 L 237.444 83.335 L 237.444 83.335 Q 237.916 83 238.738 83 L 238.738 83 L 238.738 83 Q 239.504 83 240.235 83.312 L 240.235 83.312 L 239.98 83.896 L 239.98 83.896 Q 239.266 83.601 238.686 83.601 L 238.686 83.601 L 238.686 83.601 Q 238.175 83.601 237.916 83.762 L 237.916 83.762 L 237.916 83.762 Q 237.656 83.922 237.656 84.203 L 237.656 84.203 L 237.656 84.203 Q 237.656 84.393 237.754 84.527 L 237.754 84.527 L 237.754 84.527 Q 237.851 84.661 238.067 84.783 L 238.067 84.783 L 238.067 84.783 Q 238.284 84.904 238.898 85.133 L 238.898 85.133 L 238.898 85.133 Q 239.742 85.44 240.038 85.752 L 240.038 85.752 L 240.038 85.752 Q 240.334 86.063 240.334 86.535 Z " fill="rgb(245,245,245)"/><path d=" M 320.32 103.314 L 319.51 103.314 L 319.253 102.47 L 317.96 102.47 L 317.703 103.314 L 316.893 103.314 L 318.144 99.754 L 319.064 99.754 L 320.32 103.314 L 320.32 103.314 Z  M 318.149 101.84 L 319.073 101.84 L 319.073 101.84 Q 318.717 100.693 318.672 100.542 L 318.672 100.542 L 318.672 100.542 Q 318.627 100.392 318.608 100.305 L 318.608 100.305 L 318.608 100.305 Q 318.528 100.615 318.149 101.84 L 318.149 101.84 L 318.149 101.84 Z  M 322.956 103.314 L 320.766 103.314 L 320.766 99.769 L 321.518 99.769 L 321.518 102.694 L 322.956 102.694 L 322.956 103.314 L 322.956 103.314 Z  M 326.552 103.314 L 325.742 103.314 L 325.485 102.47 L 324.193 102.47 L 323.935 103.314 L 323.126 103.314 L 324.377 99.754 L 325.296 99.754 L 326.552 103.314 L 326.552 103.314 Z  M 324.382 101.84 L 325.306 101.84 L 325.306 101.84 Q 324.949 100.693 324.904 100.542 L 324.904 100.542 L 324.904 100.542 Q 324.859 100.392 324.84 100.305 L 324.84 100.305 L 324.84 100.305 Q 324.76 100.615 324.382 101.84 L 324.382 101.84 L 324.382 101.84 Z  M 328.344 101.949 L 328.344 101.323 L 329.751 101.323 L 329.751 103.162 L 329.751 103.162 Q 329.409 103.273 329.107 103.318 L 329.107 103.318 L 329.107 103.318 Q 328.805 103.363 328.49 103.363 L 328.49 103.363 L 328.49 103.363 Q 327.687 103.363 327.264 102.891 L 327.264 102.891 L 327.264 102.891 Q 326.841 102.419 326.841 101.537 L 326.841 101.537 L 326.841 101.537 Q 326.841 100.678 327.332 100.198 L 327.332 100.198 L 327.332 100.198 Q 327.823 99.718 328.693 99.718 L 328.693 99.718 L 328.693 99.718 Q 329.239 99.718 329.746 99.936 L 329.746 99.936 L 329.496 100.538 L 329.496 100.538 Q 329.108 100.344 328.689 100.344 L 328.689 100.344 L 328.689 100.344 Q 328.201 100.344 327.908 100.671 L 327.908 100.671 L 327.908 100.671 Q 327.614 100.998 327.614 101.551 L 327.614 101.551 L 327.614 101.551 Q 327.614 102.128 327.851 102.433 L 327.851 102.433 L 327.851 102.433 Q 328.087 102.737 328.538 102.737 L 328.538 102.737 L 328.538 102.737 Q 328.773 102.737 329.016 102.689 L 329.016 102.689 L 329.016 101.949 L 328.344 101.949 L 328.344 101.949 Z  M 333.813 101.537 L 333.813 101.537 L 333.813 101.537 Q 333.813 102.417 333.376 102.89 L 333.376 102.89 L 333.376 102.89 Q 332.94 103.363 332.125 103.363 L 332.125 103.363 L 332.125 103.363 Q 331.31 103.363 330.874 102.89 L 330.874 102.89 L 330.874 102.89 Q 330.437 102.417 330.437 101.532 L 330.437 101.532 L 330.437 101.532 Q 330.437 100.647 330.875 100.18 L 330.875 100.18 L 330.875 100.18 Q 331.313 99.713 332.13 99.713 L 332.13 99.713 L 332.13 99.713 Q 332.947 99.713 333.38 100.184 L 333.38 100.184 L 333.38 100.184 Q 333.813 100.654 333.813 101.537 Z  M 331.225 101.537 L 331.225 101.537 L 331.225 101.537 Q 331.225 102.131 331.451 102.432 L 331.451 102.432 L 331.451 102.432 Q 331.676 102.732 332.125 102.732 L 332.125 102.732 L 332.125 102.732 Q 333.025 102.732 333.025 101.537 L 333.025 101.537 L 333.025 101.537 Q 333.025 100.339 332.13 100.339 L 332.13 100.339 L 332.13 100.339 Q 331.681 100.339 331.453 100.641 L 331.453 100.641 L 331.453 100.641 Q 331.225 100.943 331.225 101.537 Z  M 337.528 103.314 L 336.718 103.314 L 336.461 102.47 L 335.168 102.47 L 334.911 103.314 L 334.101 103.314 L 335.353 99.754 L 336.272 99.754 L 337.528 103.314 L 337.528 103.314 Z  M 335.358 101.84 L 336.281 101.84 L 336.281 101.84 Q 335.925 100.693 335.88 100.542 L 335.88 100.542 L 335.88 100.542 Q 335.835 100.392 335.816 100.305 L 335.816 100.305 L 335.816 100.305 Q 335.736 100.615 335.358 101.84 L 335.358 101.84 L 335.358 101.84 Z  M 340.067 102.33 L 340.067 102.33 L 340.067 102.33 Q 340.067 102.81 339.721 103.086 L 339.721 103.086 L 339.721 103.086 Q 339.376 103.363 338.76 103.363 L 338.76 103.363 L 338.76 103.363 Q 338.192 103.363 337.756 103.149 L 337.756 103.149 L 337.756 102.451 L 337.756 102.451 Q 338.115 102.611 338.363 102.677 L 338.363 102.677 L 338.363 102.677 Q 338.612 102.742 338.818 102.742 L 338.818 102.742 L 338.818 102.742 Q 339.065 102.742 339.198 102.647 L 339.198 102.647 L 339.198 102.647 Q 339.33 102.553 339.33 102.366 L 339.33 102.366 L 339.33 102.366 Q 339.33 102.262 339.272 102.181 L 339.272 102.181 L 339.272 102.181 Q 339.213 102.099 339.101 102.024 L 339.101 102.024 L 339.101 102.024 Q 338.988 101.949 338.641 101.784 L 338.641 101.784 L 338.641 101.784 Q 338.316 101.631 338.154 101.491 L 338.154 101.491 L 338.154 101.491 Q 337.991 101.35 337.894 101.163 L 337.894 101.163 L 337.894 101.163 Q 337.797 100.977 337.797 100.727 L 337.797 100.727 L 337.797 100.727 Q 337.797 100.256 338.116 99.987 L 338.116 99.987 L 338.116 99.987 Q 338.435 99.718 338.998 99.718 L 338.998 99.718 L 338.998 99.718 Q 339.274 99.718 339.525 99.783 L 339.525 99.783 L 339.525 99.783 Q 339.776 99.849 340.05 99.968 L 340.05 99.968 L 339.807 100.552 L 339.807 100.552 Q 339.524 100.436 339.338 100.39 L 339.338 100.39 L 339.338 100.39 Q 339.153 100.344 338.973 100.344 L 338.973 100.344 L 338.973 100.344 Q 338.76 100.344 338.646 100.443 L 338.646 100.443 L 338.646 100.443 Q 338.532 100.542 338.532 100.703 L 338.532 100.703 L 338.532 100.703 Q 338.532 100.802 338.578 100.876 L 338.578 100.876 L 338.578 100.876 Q 338.624 100.95 338.725 101.019 L 338.725 101.019 L 338.725 101.019 Q 338.825 101.088 339.201 101.268 L 339.201 101.268 L 339.201 101.268 Q 339.698 101.505 339.883 101.744 L 339.883 101.744 L 339.883 101.744 Q 340.067 101.983 340.067 102.33 Z  M 312.533 101.508 L 312.533 101.508 L 312.533 101.508 Q 312.533 102.383 312.035 102.849 L 312.035 102.849 L 312.035 102.849 Q 311.536 103.314 310.595 103.314 L 310.595 103.314 L 309.591 103.314 L 309.591 99.769 L 310.704 99.769 L 310.704 99.769 Q 311.573 99.769 312.053 100.227 L 312.053 100.227 L 312.053 100.227 Q 312.533 100.686 312.533 101.508 Z  M 311.752 101.527 L 311.752 101.527 L 311.752 101.527 Q 311.752 100.385 310.743 100.385 L 310.743 100.385 L 310.343 100.385 L 310.343 102.694 L 310.666 102.694 L 310.666 102.694 Q 311.752 102.694 311.752 101.527 Z  M 315.31 102.694 L 315.31 103.314 L 313.268 103.314 L 313.268 99.769 L 315.31 99.769 L 315.31 100.385 L 314.019 100.385 L 314.019 101.163 L 315.22 101.163 L 315.22 101.779 L 314.019 101.779 L 314.019 102.694 L 315.31 102.694 L 315.31 102.694 Z  M 334.129 96.697 L 334.129 98.098 L 333.39 98.098 L 333.39 94.553 L 335.422 94.553 L 335.422 95.169 L 334.129 95.169 L 334.129 96.083 L 335.332 96.083 L 335.332 96.697 L 334.129 96.697 L 334.129 96.697 Z  M 338.157 97.477 L 338.157 98.098 L 336.115 98.098 L 336.115 94.553 L 338.157 94.553 L 338.157 95.169 L 336.867 95.169 L 336.867 95.947 L 338.068 95.947 L 338.068 96.563 L 336.867 96.563 L 336.867 97.477 L 338.157 97.477 L 338.157 97.477 Z  M 341.838 96.292 L 341.838 96.292 L 341.838 96.292 Q 341.838 97.167 341.34 97.633 L 341.34 97.633 L 341.34 97.633 Q 340.842 98.098 339.901 98.098 L 339.901 98.098 L 338.897 98.098 L 338.897 94.553 L 340.01 94.553 L 340.01 94.553 Q 340.878 94.553 341.358 95.011 L 341.358 95.011 L 341.358 95.011 Q 341.838 95.47 341.838 96.292 Z  M 341.058 96.311 L 341.058 96.311 L 341.058 96.311 Q 341.058 95.169 340.049 95.169 L 340.049 95.169 L 339.649 95.169 L 339.649 97.477 L 339.971 97.477 L 339.971 97.477 Q 341.058 97.477 341.058 96.311 Z  M 344.615 97.477 L 344.615 98.098 L 342.573 98.098 L 342.573 94.553 L 344.615 94.553 L 344.615 95.169 L 343.325 95.169 L 343.325 95.947 L 344.525 95.947 L 344.525 96.563 L 343.325 96.563 L 343.325 97.477 L 344.615 97.477 L 344.615 97.477 Z  M 346.107 95.169 L 346.107 96.127 L 346.349 96.127 L 346.349 96.127 Q 346.706 96.127 346.875 96.008 L 346.875 96.008 L 346.875 96.008 Q 347.045 95.889 347.045 95.634 L 347.045 95.634 L 347.045 95.634 Q 347.045 95.382 346.872 95.276 L 346.872 95.276 L 346.872 95.276 Q 346.698 95.169 346.335 95.169 L 346.335 95.169 L 346.107 95.169 L 346.107 95.169 Z  M 346.507 96.738 L 346.107 96.738 L 346.107 98.098 L 345.355 98.098 L 345.355 94.553 L 346.388 94.553 L 346.388 94.553 Q 347.111 94.553 347.457 94.816 L 347.457 94.816 L 347.457 94.816 Q 347.804 95.079 347.804 95.615 L 347.804 95.615 L 347.804 95.615 Q 347.804 95.928 347.632 96.172 L 347.632 96.172 L 347.632 96.172 Q 347.46 96.415 347.145 96.554 L 347.145 96.554 L 347.145 96.554 Q 347.945 97.749 348.187 98.098 L 348.187 98.098 L 347.353 98.098 L 346.507 96.738 L 346.507 96.738 Z  M 351.614 98.098 L 350.804 98.098 L 350.547 97.254 L 349.254 97.254 L 348.997 98.098 L 348.187 98.098 L 349.439 94.538 L 350.358 94.538 L 351.614 98.098 L 351.614 98.098 Z  M 349.443 96.624 L 350.367 96.624 L 350.367 96.624 Q 350.011 95.477 349.966 95.326 L 349.966 95.326 L 349.966 95.326 Q 349.921 95.176 349.902 95.089 L 349.902 95.089 L 349.902 95.089 Q 349.822 95.399 349.443 96.624 L 349.443 96.624 L 349.443 96.624 Z  M 354.25 98.098 L 352.06 98.098 L 352.06 94.553 L 352.812 94.553 L 352.812 97.477 L 354.25 97.477 L 354.25 98.098 L 354.25 98.098 Z  M 297.571 94.553 L 298.321 94.553 L 298.321 96.847 L 298.321 96.847 Q 298.321 97.24 298.145 97.536 L 298.145 97.536 L 298.145 97.536 Q 297.969 97.832 297.637 97.989 L 297.637 97.989 L 297.637 97.989 Q 297.305 98.147 296.851 98.147 L 296.851 98.147 L 296.851 98.147 Q 296.167 98.147 295.789 97.796 L 295.789 97.796 L 295.789 97.796 Q 295.411 97.446 295.411 96.837 L 295.411 96.837 L 295.411 94.553 L 296.16 94.553 L 296.16 96.723 L 296.16 96.723 Q 296.16 97.133 296.325 97.325 L 296.325 97.325 L 296.325 97.325 Q 296.49 97.516 296.871 97.516 L 296.871 97.516 L 296.871 97.516 Q 297.239 97.516 297.405 97.323 L 297.405 97.323 L 297.405 97.323 Q 297.571 97.131 297.571 96.718 L 297.571 96.718 L 297.571 94.553 L 297.571 94.553 Z  M 302.334 94.553 L 302.334 98.098 L 301.379 98.098 L 299.836 95.416 L 299.815 95.416 L 299.815 95.416 Q 299.861 96.127 299.861 96.43 L 299.861 96.43 L 299.861 98.098 L 299.189 98.098 L 299.189 94.553 L 300.137 94.553 L 301.677 97.208 L 301.694 97.208 L 301.694 97.208 Q 301.658 96.517 301.658 96.231 L 301.658 96.231 L 301.658 94.553 L 302.334 94.553 L 302.334 94.553 Z  M 303.978 98.098 L 303.227 98.098 L 303.227 94.553 L 303.978 94.553 L 303.978 98.098 L 303.978 98.098 Z  M 306.222 96.663 L 306.893 94.553 L 307.652 94.553 L 306.447 98.098 L 305.628 98.098 L 304.425 94.553 L 305.184 94.553 L 305.851 96.663 L 305.851 96.663 Q 305.906 96.849 305.966 97.098 L 305.966 97.098 L 305.966 97.098 Q 306.025 97.347 306.04 97.444 L 306.04 97.444 L 306.04 97.444 Q 306.066 97.22 306.222 96.663 L 306.222 96.663 L 306.222 96.663 Z  M 310.141 97.477 L 310.141 98.098 L 308.099 98.098 L 308.099 94.553 L 310.141 94.553 L 310.141 95.169 L 308.85 95.169 L 308.85 95.947 L 310.051 95.947 L 310.051 96.563 L 308.85 96.563 L 308.85 97.477 L 310.141 97.477 L 310.141 97.477 Z  M 311.632 95.169 L 311.632 96.127 L 311.874 96.127 L 311.874 96.127 Q 312.231 96.127 312.401 96.008 L 312.401 96.008 L 312.401 96.008 Q 312.57 95.889 312.57 95.634 L 312.57 95.634 L 312.57 95.634 Q 312.57 95.382 312.397 95.276 L 312.397 95.276 L 312.397 95.276 Q 312.224 95.169 311.86 95.169 L 311.86 95.169 L 311.632 95.169 L 311.632 95.169 Z  M 312.032 96.738 L 311.632 96.738 L 311.632 98.098 L 310.88 98.098 L 310.88 94.553 L 311.913 94.553 L 311.913 94.553 Q 312.636 94.553 312.983 94.816 L 312.983 94.816 L 312.983 94.816 Q 313.329 95.079 313.329 95.615 L 313.329 95.615 L 313.329 95.615 Q 313.329 95.928 313.157 96.172 L 313.157 96.172 L 313.157 96.172 Q 312.985 96.415 312.67 96.554 L 312.67 96.554 L 312.67 96.554 Q 313.47 97.749 313.713 98.098 L 313.713 98.098 L 312.878 98.098 L 312.032 96.738 L 312.032 96.738 Z  M 316.252 97.114 L 316.252 97.114 L 316.252 97.114 Q 316.252 97.594 315.906 97.87 L 315.906 97.87 L 315.906 97.87 Q 315.561 98.147 314.945 98.147 L 314.945 98.147 L 314.945 98.147 Q 314.377 98.147 313.941 97.933 L 313.941 97.933 L 313.941 97.235 L 313.941 97.235 Q 314.3 97.395 314.548 97.461 L 314.548 97.461 L 314.548 97.461 Q 314.797 97.526 315.003 97.526 L 315.003 97.526 L 315.003 97.526 Q 315.25 97.526 315.382 97.431 L 315.382 97.431 L 315.382 97.431 Q 315.514 97.337 315.514 97.15 L 315.514 97.15 L 315.514 97.15 Q 315.514 97.046 315.456 96.965 L 315.456 96.965 L 315.456 96.965 Q 315.398 96.883 315.285 96.808 L 315.285 96.808 L 315.285 96.808 Q 315.173 96.733 314.826 96.568 L 314.826 96.568 L 314.826 96.568 Q 314.501 96.415 314.338 96.275 L 314.338 96.275 L 314.338 96.275 Q 314.176 96.134 314.079 95.947 L 314.079 95.947 L 314.079 95.947 Q 313.982 95.761 313.982 95.511 L 313.982 95.511 L 313.982 95.511 Q 313.982 95.04 314.301 94.771 L 314.301 94.771 L 314.301 94.771 Q 314.62 94.502 315.182 94.502 L 315.182 94.502 L 315.182 94.502 Q 315.459 94.502 315.71 94.567 L 315.71 94.567 L 315.71 94.567 Q 315.961 94.633 316.235 94.752 L 316.235 94.752 L 315.992 95.336 L 315.992 95.336 Q 315.708 95.22 315.523 95.174 L 315.523 95.174 L 315.523 95.174 Q 315.337 95.128 315.158 95.128 L 315.158 95.128 L 315.158 95.128 Q 314.945 95.128 314.831 95.227 L 314.831 95.227 L 314.831 95.227 Q 314.717 95.326 314.717 95.487 L 314.717 95.487 L 314.717 95.487 Q 314.717 95.586 314.763 95.66 L 314.763 95.66 L 314.763 95.66 Q 314.809 95.734 314.909 95.803 L 314.909 95.803 L 314.909 95.803 Q 315.01 95.872 315.386 96.052 L 315.386 96.052 L 315.386 96.052 Q 315.883 96.289 316.067 96.528 L 316.067 96.528 L 316.067 96.528 Q 316.252 96.767 316.252 97.114 Z  M 317.646 98.098 L 316.894 98.098 L 316.894 94.553 L 317.646 94.553 L 317.646 98.098 L 317.646 98.098 Z  M 321.48 96.292 L 321.48 96.292 L 321.48 96.292 Q 321.48 97.167 320.982 97.633 L 320.982 97.633 L 320.982 97.633 Q 320.483 98.098 319.542 98.098 L 319.542 98.098 L 318.539 98.098 L 318.539 94.553 L 319.652 94.553 L 319.652 94.553 Q 320.52 94.553 321 95.011 L 321 95.011 L 321 95.011 Q 321.48 95.47 321.48 96.292 Z  M 320.699 96.311 L 320.699 96.311 L 320.699 96.311 Q 320.699 95.169 319.69 95.169 L 319.69 95.169 L 319.29 95.169 L 319.29 97.477 L 319.613 97.477 L 319.613 97.477 Q 320.699 97.477 320.699 96.311 Z  M 325.195 98.098 L 324.385 98.098 L 324.128 97.254 L 322.836 97.254 L 322.579 98.098 L 321.769 98.098 L 323.02 94.538 L 323.939 94.538 L 325.195 98.098 L 325.195 98.098 Z  M 323.025 96.624 L 323.949 96.624 L 323.949 96.624 Q 323.592 95.477 323.547 95.326 L 323.547 95.326 L 323.547 95.326 Q 323.503 95.176 323.483 95.089 L 323.483 95.089 L 323.483 95.089 Q 323.403 95.399 323.025 96.624 L 323.025 96.624 L 323.025 96.624 Z  M 328.583 96.292 L 328.583 96.292 L 328.583 96.292 Q 328.583 97.167 328.085 97.633 L 328.085 97.633 L 328.085 97.633 Q 327.586 98.098 326.645 98.098 L 326.645 98.098 L 325.642 98.098 L 325.642 94.553 L 326.755 94.553 L 326.755 94.553 Q 327.623 94.553 328.103 95.011 L 328.103 95.011 L 328.103 95.011 Q 328.583 95.47 328.583 96.292 Z  M 327.802 96.311 L 327.802 96.311 L 327.802 96.311 Q 327.802 95.169 326.793 95.169 L 326.793 95.169 L 326.393 95.169 L 326.393 97.477 L 326.716 97.477 L 326.716 97.477 Q 327.802 97.477 327.802 96.311 Z  M 331.36 97.477 L 331.36 98.098 L 329.318 98.098 L 329.318 94.553 L 331.36 94.553 L 331.36 95.169 L 330.07 95.169 L 330.07 95.947 L 331.27 95.947 L 331.27 96.563 L 330.07 96.563 L 330.07 97.477 L 331.36 97.477 L 331.36 97.477 Z " fill="rgb(245,245,245)"/><path d=" M 337.153 42.099 L 335.016 88.689 C 334.523 89.892 333.995 89.978 333.402 88.909 L 330.586 42.099 L 337.153 42.099 L 337.153 42.099 Z " fill-rule="evenodd" fill="rgb(0,149,218)"/><path d=" M 326.906 42.099 L 324.769 88.689 C 324.277 89.892 323.748 89.978 323.155 88.909 L 320.339 42.099 L 326.906 42.099 L 326.906 42.099 Z " fill-rule="evenodd" fill="rgb(0,149,218)"/><path d=" M 316.616 42.099 L 314.479 88.689 C 313.986 89.892 313.458 89.978 312.865 88.909 L 310.049 42.099 L 316.616 42.099 L 316.616 42.099 Z " fill-rule="evenodd" fill="rgb(0,149,218)"/><path d=" M 312.069 75.972 L 311.496 75.846 L 311.078 75.773 L 310.668 75.718 L 310.266 75.682 L 309.874 75.661 L 309.49 75.657 L 309.118 75.666 L 308.756 75.689 L 308.407 75.723 L 308.07 75.768 L 307.747 75.823 L 307.438 75.886 L 307.144 75.957 L 306.865 76.034 L 306.602 76.116 L 305.748 76.416 L 306.625 76.682 L 306.873 76.764 L 307.116 76.851 L 307.353 76.942 L 307.586 77.039 L 307.813 77.14 L 308.037 77.247 L 308.256 77.36 L 308.471 77.477 L 308.683 77.6 L 308.891 77.729 L 309.096 77.865 L 309.299 78.006 L 309.499 78.153 L 309.697 78.307 L 309.779 78.375 L 309.753 78.449 L 309.663 78.646 L 309.552 78.842 L 309.419 79.043 L 309.263 79.255 L 309.081 79.485 L 308.873 79.737 L 308.027 80.746 L 309.099 80.248 L 309.302 80.16 L 309.506 80.079 L 309.709 80.002 L 309.912 79.931 L 310.114 79.863 L 310.317 79.799 L 310.519 79.738 L 310.722 79.677 L 310.925 79.619 L 311.13 79.56 L 311.334 79.501 L 311.539 79.44 L 311.745 79.378 L 311.952 79.313 L 312.317 79.194 L 312.069 75.972 L 312.069 75.972 Z " fill-rule="evenodd" fill="rgb(35,31,32)"/><path d=" M 311.87 76.145 C 309.638 75.606 307.657 75.947 306.43 76.401 C 307.825 76.809 308.969 77.415 310.029 78.305 C 309.843 78.921 309.462 79.366 308.801 80.152 C 309.926 79.613 310.996 79.414 312.093 79.044 L 311.87 76.145 Z " fill-rule="evenodd" fill="rgb(237,28,36)"/><path d=" M 336.066 75.609 L 336.387 75.593 L 336.712 75.583 L 337.043 75.583 L 337.379 75.595 L 337.722 75.621 L 338.072 75.664 L 338.43 75.726 L 338.797 75.81 L 339.173 75.917 L 339.56 76.051 L 339.957 76.214 L 340.365 76.407 L 341.257 76.887 L 340.498 77.084 L 340.268 77.148 L 340.043 77.217 L 339.823 77.289 L 339.607 77.365 L 339.396 77.446 L 339.189 77.53 L 338.986 77.619 L 338.788 77.711 L 338.594 77.807 L 338.404 77.908 L 338.218 78.013 L 338.036 78.123 L 337.857 78.236 L 337.683 78.354 L 337.621 78.399 L 337.639 78.491 L 337.697 78.699 L 337.771 78.901 L 337.859 79.1 L 337.962 79.297 L 338.077 79.496 L 338.205 79.699 L 338.708 80.453 L 337.902 80.155 L 337.71 80.085 L 337.52 80.017 L 337.332 79.95 L 337.145 79.885 L 336.958 79.822 L 336.773 79.76 L 336.588 79.7 L 336.403 79.641 L 336.218 79.584 L 336.033 79.528 L 335.846 79.474 L 335.659 79.422 L 335.47 79.371 L 335.279 79.322 L 334.924 79.234 L 334.924 75.694 L 335.435 75.655 L 335.749 75.631 L 336.066 75.61 L 336.066 75.609 Z " fill-rule="evenodd" fill="rgb(35,31,32)"/><path d=" M 335.136 75.89 C 336.81 75.769 338.452 75.548 340.68 76.817 C 339.397 77.137 338.31 77.622 337.386 78.306 C 337.484 78.946 337.778 79.453 338.169 80.027 C 337.126 79.641 336.18 79.321 335.136 79.067 L 335.136 75.89 L 335.136 75.89 Z " fill-rule="evenodd" fill="rgb(237,28,36)"/><path d=" M 337.987 40.754 L 337.785 41.388 L 337.184 41.858 L 337.184 41.83 L 330.138 41.83 L 329.605 41.441 L 329.502 40.754 L 337.987 40.754 L 337.987 40.754 Z " fill-rule="evenodd" fill="rgb(0,149,218)"/><path d=" M 338.482 39.108 L 338.515 39.142 L 338.51 40.177 L 338.344 40.389 L 329.278 40.389 L 329.072 40.159 L 329.074 39.178 L 329.156 39.108 L 338.481 39.108 L 338.482 39.108 Z " fill-rule="evenodd" fill="rgb(0,149,218)"/><path d=" M 329.648 37.522 L 337.975 37.522 L 338.168 38.743 L 329.502 38.743 L 329.648 37.522 Z " fill-rule="evenodd" fill="rgb(0,149,218)"/><path d=" M 328.235 39.108 L 328.268 39.142 L 328.263 40.177 L 328.097 40.389 L 319.031 40.389 L 318.825 40.159 L 318.827 39.178 L 318.909 39.108 L 328.235 39.108 L 328.235 39.108 Z " fill-rule="evenodd" fill="rgb(0,149,218)"/><path d=" M 319.401 37.522 L 327.728 37.522 L 327.921 38.743 L 319.255 38.743 L 319.401 37.522 L 319.401 37.522 Z " fill-rule="evenodd" fill="rgb(0,149,218)"/><path d=" M 325.27 42.994 L 324.889 53.086 L 324.509 63.176 C 324.506 63.494 324.949 63.543 324.976 63.132 L 326.276 43 C 326.176 42.511 325.541 42.471 325.27 42.994 L 325.27 42.994 Z " fill-rule="evenodd" fill="rgb(255,255,255)"/><path d=" M 323.122 43.278 L 323.536 52.775 L 323.95 62.272 C 323.971 62.57 324.347 62.579 324.339 62.192 L 323.968 43.2 C 323.848 42.75 323.312 42.765 323.122 43.278 Z " fill-rule="evenodd" fill="rgb(255,255,255)"/><path d=" M 321.231 43.187 L 322.136 52.154 L 323.041 61.12 C 323.078 61.402 323.454 61.392 323.426 61.025 L 322.071 43.07 C 321.929 42.65 321.394 42.691 321.231 43.187 Z " fill-rule="evenodd" fill="rgb(255,255,255)"/><path d=" M 327.829 40.754 L 327.628 41.388 L 327.027 41.858 L 327.027 41.83 L 319.981 41.83 L 319.448 41.441 L 319.344 40.754 L 327.829 40.754 L 327.829 40.754 Z " fill-rule="evenodd" fill="rgb(0,149,218)"/><path d=" M 333.349 43.804 L 333.763 63.816 L 334.177 83.827 C 334.198 84.456 334.574 84.475 334.566 83.658 L 334.194 43.639 C 334.075 42.69 333.539 42.722 333.349 43.804 L 333.349 43.804 Z " fill-rule="evenodd" fill="rgb(255,255,255)"/><path d=" M 331.457 43.8 L 332.363 64.005 L 333.268 84.21 C 333.305 84.844 333.68 84.821 333.653 83.995 L 332.298 43.538 C 332.155 42.591 331.62 42.683 331.457 43.8 Z " fill-rule="evenodd" fill="rgb(255,255,255)"/><path d=" M 314.925 43.64 L 314.544 63.885 L 314.163 84.131 C 314.161 84.769 314.604 84.866 314.63 84.041 L 315.93 43.651 C 315.831 42.67 315.196 42.59 314.925 43.64 L 314.925 43.64 Z " fill-rule="evenodd" fill="rgb(255,255,255)"/><path d=" M 312.777 43.997 L 313.191 64.294 L 313.605 84.592 C 313.626 85.23 314.002 85.249 313.994 84.42 L 313.622 43.83 C 313.503 42.868 312.967 42.9 312.777 43.997 L 312.777 43.997 Z " fill-rule="evenodd" fill="rgb(255,255,255)"/><path d=" M 310.886 43.975 L 311.791 64.142 L 312.696 84.31 C 312.733 84.943 313.109 84.92 313.081 84.095 L 311.726 43.713 C 311.584 42.768 311.048 42.861 310.886 43.975 L 310.886 43.975 Z " fill-rule="evenodd" fill="rgb(255,255,255)"/><path d=" M 335.497 43.46 L 335.116 63.662 L 334.735 83.864 C 334.733 84.501 335.176 84.598 335.202 83.775 L 336.502 43.471 C 336.403 42.493 335.768 42.412 335.497 43.46 L 335.497 43.46 Z " fill-rule="evenodd" fill="rgb(255,255,255)"/><path d=" M 317.539 40.754 L 317.338 41.388 L 316.736 41.858 L 316.736 41.83 L 309.691 41.83 L 309.158 41.441 L 309.054 40.754 L 317.539 40.754 L 317.539 40.754 Z " fill-rule="evenodd" fill="rgb(0,149,218)"/><path d=" M 317.945 39.108 L 317.978 39.142 L 317.973 40.177 L 317.807 40.389 L 308.741 40.389 L 308.535 40.159 L 308.537 39.178 L 308.619 39.108 L 317.945 39.108 L 317.945 39.108 Z " fill-rule="evenodd" fill="rgb(0,149,218)"/><path d=" M 309.111 37.522 L 317.437 37.522 L 317.631 38.743 L 308.965 38.743 L 309.111 37.522 L 309.111 37.522 Z " fill-rule="evenodd" fill="rgb(0,149,218)"/><path d=" M 341.895 83.307 L 341.791 82.856 L 341.678 82.539 L 341.531 82.238 L 341.353 81.954 L 341.148 81.685 L 340.918 81.431 L 340.664 81.192 L 340.39 80.967 L 340.098 80.754 L 339.789 80.554 L 339.467 80.364 L 339.132 80.186 L 338.787 80.017 L 338.434 79.857 L 338.075 79.706 L 337.712 79.564 L 337.347 79.428 L 336.982 79.3 L 336.619 79.177 L 336.26 79.061 L 335.908 78.95 L 335.564 78.844 L 335.231 78.742 L 334.909 78.644 L 334.603 78.549 L 334.314 78.457 L 334.043 78.368 L 333.795 78.281 L 333.57 78.196 L 333.372 78.112 L 333.204 78.031 L 332.937 77.878 L 331.53 78.947 L 331.518 79.258 L 331.521 79.484 L 331.536 79.719 L 331.562 79.959 L 331.597 80.202 L 331.641 80.445 L 331.693 80.686 L 331.753 80.923 L 331.82 81.152 L 331.892 81.372 L 331.971 81.581 L 332.054 81.775 L 332.144 81.953 L 332.238 82.113 L 332.339 82.254 L 332.485 82.411 L 332.983 82.501 L 333.392 82.584 L 333.786 82.672 L 334.168 82.766 L 334.537 82.866 L 334.895 82.971 L 335.245 83.083 L 335.587 83.201 L 335.923 83.326 L 336.255 83.457 L 336.584 83.594 L 336.911 83.739 L 337.238 83.891 L 337.566 84.05 L 337.898 84.217 L 338.282 84.417 L 338.626 84.411 L 338.908 84.399 L 339.179 84.377 L 339.439 84.348 L 339.689 84.31 L 339.928 84.265 L 340.157 84.211 L 340.375 84.15 L 340.585 84.08 L 340.785 84.003 L 340.976 83.918 L 341.157 83.826 L 341.33 83.726 L 341.494 83.619 L 341.65 83.506 L 341.894 83.306 L 341.895 83.307 Z " fill-rule="evenodd" fill="rgb(35,31,32)"/><path d=" M 341.658 83.226 C 341.082 79.845 334.41 79.067 332.953 78.132 L 331.738 79.056 C 331.662 80.11 332.115 81.78 332.593 82.215 C 334.93 82.617 336.517 83.248 338.332 84.204 C 339.897 84.204 340.941 83.845 341.658 83.226 L 341.658 83.226 Z " fill-rule="evenodd" fill="rgb(237,28,36)"/><path d=" M 304.919 83.795 L 304.935 83.343 L 304.998 83.006 L 305.107 82.684 L 305.258 82.376 L 305.449 82.082 L 305.674 81.803 L 305.931 81.537 L 306.215 81.284 L 306.526 81.043 L 306.859 80.815 L 307.213 80.597 L 307.583 80.391 L 307.969 80.195 L 308.366 80.01 L 308.773 79.836 L 309.187 79.672 L 309.605 79.517 L 310.024 79.373 L 310.441 79.238 L 310.855 79.114 L 311.261 78.999 L 311.659 78.893 L 312.043 78.797 L 312.413 78.711 L 312.766 78.633 L 313.098 78.565 L 313.406 78.506 L 313.69 78.457 L 313.945 78.416 L 314.169 78.384 L 314.36 78.361 L 314.593 78.34 L 315.82 79.257 L 315.808 79.522 L 315.799 79.679 L 315.788 79.84 L 315.774 80.005 L 315.757 80.173 L 315.736 80.345 L 315.71 80.521 L 315.679 80.702 L 315.643 80.885 L 315.6 81.073 L 315.55 81.265 L 315.492 81.461 L 315.427 81.661 L 315.352 81.865 L 315.269 82.073 L 315.141 82.364 L 314.684 82.532 L 314.295 82.657 L 313.898 82.772 L 313.496 82.879 L 313.092 82.983 L 312.688 83.085 L 312.289 83.19 L 311.896 83.301 L 311.513 83.418 L 311.144 83.548 L 310.792 83.69 L 310.458 83.849 L 310.148 84.026 L 309.863 84.225 L 309.605 84.447 L 309.307 84.772 L 309.027 84.782 L 308.816 84.787 L 308.589 84.788 L 308.348 84.786 L 308.094 84.776 L 307.83 84.76 L 307.558 84.734 L 307.278 84.698 L 306.993 84.65 L 306.705 84.589 L 306.416 84.512 L 306.127 84.42 L 305.84 84.309 L 305.558 84.18 L 305.281 84.029 L 304.919 83.795 L 304.919 83.795 Z " fill-rule="evenodd" fill="rgb(35,31,32)"/><path d=" M 305.136 83.682 C 304.997 80.251 313.148 78.656 314.531 78.559 L 315.603 79.36 C 315.569 80.162 315.492 81.088 314.984 82.197 C 313.06 82.957 310.438 83.049 309.212 84.563 C 308.244 84.604 306.466 84.617 305.136 83.682 L 305.136 83.682 Z " fill-rule="evenodd" fill="rgb(237,28,36)"/><path d=" M 307.777 46.27 L 339.392 46.27 L 339.392 67.284 L 339.363 67.937 L 339.29 68.593 L 339.173 69.245 L 339.015 69.893 L 338.818 70.535 L 338.582 71.171 L 338.31 71.8 L 338.003 72.421 L 337.663 73.034 L 337.291 73.639 L 336.888 74.234 L 336.457 74.82 L 335.998 75.394 L 335.512 75.958 L 335.002 76.51 L 334.469 77.049 L 333.914 77.575 L 333.338 78.087 L 332.743 78.585 L 332.131 79.068 L 331.501 79.536 L 330.857 79.987 L 330.199 80.42 L 329.528 80.837 L 328.846 81.234 L 328.154 81.613 L 327.455 81.972 L 326.747 82.311 L 326.035 82.628 L 325.318 82.923 L 324.597 83.196 L 323.751 83.489 L 322.664 83.16 L 321.728 82.84 L 320.822 82.493 L 319.944 82.122 L 319.094 81.725 L 318.274 81.307 L 317.484 80.867 L 316.722 80.409 L 315.991 79.932 L 315.289 79.439 L 314.618 78.931 L 313.976 78.41 L 313.365 77.877 L 312.785 77.334 L 312.235 76.782 L 311.716 76.223 L 311.229 75.658 L 310.773 75.088 L 310.348 74.516 L 309.955 73.942 L 309.593 73.368 L 309.264 72.796 L 308.967 72.227 L 308.701 71.662 L 308.47 71.103 L 308.27 70.551 L 308.104 70.007 L 307.972 69.472 L 307.873 68.949 L 307.809 68.438 L 307.78 67.94 L 307.786 67.477 L 307.777 46.27 L 307.777 46.27 Z " fill-rule="evenodd" fill="rgb(35,31,32)"/><path d=" M 308.202 46.694 L 338.968 46.694 L 338.968 67.275 C 338.903 73.998 331.319 80.551 323.742 83.043 C 313.47 80.142 307.966 72.191 308.21 67.48 L 308.202 46.694 L 308.202 46.694 Z " fill-rule="evenodd" fill="rgb(255,255,255)"/><path d=" M 307.777 46.27 L 339.392 46.27 L 339.392 55.427 L 339.331 55.664 L 339.184 55.884 L 339.005 56.066 L 338.797 56.232 L 338.559 56.393 L 338.294 56.549 L 338.006 56.701 L 337.699 56.846 L 337.379 56.985 L 337.048 57.113 L 336.713 57.23 L 336.379 57.331 L 336.049 57.416 L 335.728 57.481 L 335.419 57.524 L 335.118 57.54 L 334.82 57.517 L 334.526 57.451 L 334.246 57.354 L 333.975 57.232 L 333.714 57.093 L 333.459 56.942 L 333.211 56.784 L 332.968 56.625 L 332.731 56.47 L 332.498 56.322 L 332.272 56.187 L 332.053 56.071 L 331.843 55.976 L 331.643 55.907 L 331.455 55.865 L 331.28 55.85 L 331.105 55.866 L 330.919 55.909 L 330.72 55.981 L 330.509 56.079 L 330.291 56.2 L 330.064 56.339 L 329.832 56.491 L 329.594 56.652 L 329.351 56.816 L 329.102 56.978 L 328.848 57.134 L 328.586 57.277 L 328.315 57.402 L 328.033 57.502 L 327.737 57.569 L 327.435 57.592 L 327.133 57.571 L 326.839 57.506 L 326.557 57.41 L 326.286 57.288 L 326.025 57.15 L 325.77 56.998 L 325.521 56.84 L 325.278 56.68 L 325.041 56.524 L 324.808 56.376 L 324.582 56.24 L 324.363 56.123 L 324.153 56.028 L 323.953 55.958 L 323.765 55.916 L 323.588 55.902 L 323.413 55.916 L 323.227 55.958 L 323.029 56.029 L 322.819 56.126 L 322.601 56.246 L 322.375 56.385 L 322.143 56.537 L 321.905 56.698 L 321.662 56.863 L 321.414 57.026 L 321.16 57.182 L 320.897 57.326 L 320.627 57.452 L 320.344 57.552 L 320.048 57.62 L 319.744 57.643 L 319.441 57.619 L 319.147 57.553 L 318.867 57.456 L 318.596 57.335 L 318.335 57.196 L 318.08 57.045 L 317.832 56.887 L 317.589 56.727 L 317.352 56.572 L 317.119 56.424 L 316.893 56.29 L 316.674 56.173 L 316.464 56.079 L 316.264 56.009 L 316.076 55.967 L 315.901 55.953 L 315.726 55.968 L 315.538 56.011 L 315.339 56.082 L 315.129 56.179 L 314.91 56.298 L 314.683 56.435 L 314.452 56.586 L 314.214 56.745 L 313.971 56.908 L 313.723 57.069 L 313.469 57.224 L 313.208 57.367 L 312.939 57.493 L 312.658 57.595 L 312.365 57.665 L 312.065 57.694 L 311.754 57.68 L 311.438 57.644 L 311.113 57.587 L 310.779 57.513 L 310.443 57.423 L 310.108 57.318 L 309.778 57.202 L 309.458 57.074 L 309.153 56.937 L 308.867 56.791 L 308.603 56.638 L 308.365 56.475 L 308.156 56.3 L 307.978 56.105 L 307.839 55.869 L 307.786 55.624 L 307.777 46.27 L 307.777 46.27 Z " fill-rule="evenodd" fill="rgb(35,31,32)"/><path d=" M 308.202 46.694 L 338.968 46.694 L 338.968 55.374 C 338.963 55.954 336.405 57.109 335.123 57.115 C 333.841 57.114 332.56 55.426 331.278 55.425 C 329.997 55.431 328.715 57.171 327.434 57.166 C 326.152 57.177 324.87 55.477 323.589 55.476 C 322.307 55.471 321.026 57.223 319.744 57.217 C 318.463 57.216 317.181 55.528 315.9 55.527 C 314.618 55.533 313.336 57.247 312.055 57.269 C 310.693 57.264 308.215 56.275 308.21 55.578 L 308.202 46.694 L 308.202 46.694 Z " fill-rule="evenodd" fill="rgb(0,149,218)"/><path d=" M 327.862 53.872 C 327.534 53.584 327.147 53.464 326.682 53.564 C 327.095 53.131 327.889 52.577 328.909 52.283 C 329.554 51.965 329.851 51.265 331.708 51.53 C 331.423 51.689 331.165 51.92 331.149 52.222 C 332.345 52.297 333.837 52.703 334.683 53.038 C 335.202 52.504 335.255 52.095 336.634 52.089 C 336.27 52.42 335.781 52.732 335.65 53.206 C 336.013 53.657 336.225 54.235 336.741 54.561 C 335.631 54.625 335.328 53.881 334.622 53.542 C 333.964 53.707 333.969 53.926 332.46 54.154 C 332.667 54.34 332.901 54.526 333.161 54.685 C 333.05 54.682 332.951 54.691 332.855 54.7 C 332.484 54.654 332.128 54.449 331.779 54.189 C 331.933 54.467 332.137 54.655 332.387 54.732 C 332.121 54.725 331.789 54.657 331.264 54.41 C 330.001 54.746 328.585 54.715 326.727 53.715 C 327.002 53.641 327.408 53.727 327.862 53.872 L 327.862 53.872 Z  M 327.835 53.079 C 327.908 53.079 327.967 53.139 327.967 53.214 C 327.967 53.288 327.908 53.349 327.835 53.349 C 327.761 53.349 327.702 53.288 327.702 53.214 C 327.702 53.139 327.761 53.079 327.835 53.079 Z " fill-rule="evenodd" fill="rgb(255,255,255)"/><path d=" M 320.73 50.576 C 320.457 50.295 320.081 50.165 319.555 50.254 C 319.983 49.83 320.83 49.321 321.832 49.031 C 322.477 48.713 322.648 48.068 324.505 48.315 C 324.219 48.474 324.016 48.632 324 48.934 C 325.196 49.1 326.779 49.451 327.68 49.713 C 328.198 49.179 328.36 48.734 329.667 48.511 C 329.303 48.841 328.795 49.426 328.665 49.899 C 329.028 50.351 329.857 50.456 330.391 50.656 C 329.245 51.137 328.524 50.63 327.8 50.181 C 327.142 50.346 326.82 50.637 325.311 50.866 C 325.518 51.052 325.752 51.238 326.012 51.397 C 325.848 51.394 325.709 51.411 325.569 51.426 C 325.279 51.384 324.982 51.19 324.684 50.964 C 324.833 51.211 324.98 51.394 325.121 51.437 C 324.874 51.415 324.567 51.335 324.115 51.122 C 322.848 51.459 321.425 51.427 319.558 50.416 C 319.89 50.344 320.302 50.442 320.73 50.576 L 320.73 50.576 Z  M 320.686 49.791 C 320.759 49.791 320.819 49.851 320.819 49.926 C 320.819 50 320.759 50.061 320.686 50.061 C 320.612 50.061 320.553 50 320.553 49.926 C 320.553 49.851 320.612 49.791 320.686 49.791 Z " fill-rule="evenodd" fill="rgb(255,255,255)"/><path d=" M 312.719 53.945 C 312.392 53.677 312.022 53.526 311.559 53.632 C 311.955 53.199 312.662 52.676 313.707 52.373 C 314.352 52.056 314.65 51.356 316.507 51.621 C 316.222 51.78 315.964 52.011 315.947 52.313 C 317.144 52.388 318.636 52.794 319.482 53.129 C 320.001 52.594 320.272 52.095 321.651 52.089 C 321.287 52.42 320.689 52.877 320.449 53.296 C 320.812 53.748 321.369 54.198 321.884 54.525 C 320.775 54.588 320.236 54.008 319.529 53.669 C 318.872 53.834 318.768 54.016 317.259 54.244 C 317.466 54.43 317.699 54.617 317.96 54.776 C 317.786 54.772 317.642 54.792 317.494 54.807 C 317.281 54.781 316.973 54.606 316.568 54.285 C 316.718 54.562 316.911 54.747 317.154 54.822 C 316.893 54.811 316.569 54.739 316.062 54.501 C 314.807 54.835 313.503 54.755 311.667 53.769 C 311.974 53.735 312.338 53.823 312.719 53.945 L 312.719 53.945 Z  M 312.978 52.988 C 313.052 52.988 313.111 53.049 313.111 53.123 C 313.111 53.198 313.052 53.258 312.978 53.258 C 312.905 53.258 312.845 53.198 312.845 53.123 C 312.845 53.049 312.905 52.988 312.978 52.988 Z " fill-rule="evenodd" fill="rgb(255,255,255)"/><path d=" M 304.993 83.303 L 305.575 83.649 L 305.889 83.802 L 306.223 83.933 L 306.577 84.043 L 306.952 84.134 L 307.348 84.205 L 307.763 84.259 L 308.197 84.295 L 308.651 84.315 L 309.124 84.32 L 309.615 84.31 L 310.124 84.287 L 310.651 84.252 L 311.195 84.206 L 311.757 84.15 L 312.334 84.084 L 312.929 84.011 L 313.54 83.931 L 314.166 83.845 L 314.807 83.754 L 315.464 83.659 L 316.136 83.563 L 316.822 83.464 L 317.522 83.366 L 318.236 83.268 L 318.964 83.172 L 319.705 83.079 L 320.459 82.991 L 321.226 82.907 L 322.005 82.83 L 322.797 82.76 L 323.609 82.698 L 324.198 82.71 L 324.803 82.736 L 325.427 82.774 L 326.07 82.824 L 326.727 82.882 L 327.398 82.949 L 328.08 83.023 L 328.77 83.103 L 329.467 83.185 L 330.166 83.27 L 330.868 83.356 L 331.567 83.442 L 332.264 83.526 L 332.954 83.607 L 333.635 83.683 L 334.306 83.753 L 334.963 83.815 L 335.604 83.868 L 336.227 83.91 L 336.829 83.941 L 337.407 83.959 L 337.959 83.962 L 338.483 83.95 L 338.975 83.92 L 339.432 83.871 L 339.853 83.803 L 340.234 83.715 L 340.571 83.606 L 340.862 83.477 L 341.106 83.328 L 341.3 83.159 L 341.711 82.634 L 341.888 83.205 L 341.935 83.398 L 341.972 83.596 L 341.996 83.796 L 342.007 84 L 342.003 84.206 L 341.986 84.414 L 341.952 84.629 L 341.775 85.247 L 341.564 85.796 L 341.317 86.284 L 341.034 86.712 L 340.717 87.083 L 340.365 87.399 L 339.983 87.662 L 339.572 87.874 L 339.134 88.038 L 338.671 88.159 L 338.184 88.24 L 337.674 88.286 L 337.142 88.299 L 336.589 88.285 L 336.015 88.245 L 335.42 88.185 L 334.806 88.106 L 334.172 88.013 L 333.521 87.908 L 332.851 87.795 L 332.164 87.677 L 331.461 87.557 L 330.742 87.439 L 330.008 87.326 L 329.261 87.219 L 328.5 87.125 L 327.727 87.044 L 326.943 86.981 L 326.147 86.938 L 325.342 86.919 L 324.527 86.926 L 323.691 86.965 L 322.965 86.935 L 322.247 86.94 L 321.524 86.975 L 320.799 87.036 L 320.071 87.121 L 319.343 87.226 L 318.617 87.346 L 317.893 87.48 L 317.174 87.622 L 316.46 87.771 L 315.754 87.92 L 315.056 88.069 L 314.368 88.212 L 313.691 88.346 L 313.028 88.468 L 312.377 88.574 L 311.744 88.66 L 311.126 88.722 L 310.526 88.757 L 309.945 88.761 L 309.384 88.73 L 308.845 88.659 L 308.329 88.545 L 307.838 88.384 L 307.374 88.169 L 306.94 87.899 L 306.539 87.57 L 306.173 87.179 L 305.845 86.723 L 305.556 86.201 L 305.308 85.61 L 305.104 84.954 L 305.056 84.791 L 305.014 84.622 L 304.98 84.452 L 304.953 84.28 L 304.936 84.11 L 304.93 83.941 L 304.936 83.776 L 304.993 83.303 L 304.993 83.303 Z " fill-rule="evenodd" fill="rgb(35,31,32)"/><path d=" M 305.165 83.652 C 308.353 85.752 315.011 83.515 323.615 82.91 C 329.633 82.958 340.045 85.614 341.628 83.083 C 341.787 83.553 341.846 84.063 341.745 84.583 C 340.107 91.312 332.6 86.173 323.691 86.753 C 316.02 86.243 307.239 92.18 305.308 84.893 C 305.178 84.479 305.102 84.016 305.165 83.652 L 305.165 83.652 Z " fill-rule="evenodd" fill="rgb(237,28,36)"/><path d=" M 308.658 86.996 L 309.069 86.829 C 309.094 86.918 309.124 86.983 309.16 87.023 C 309.219 87.087 309.29 87.106 309.374 87.079 C 309.437 87.059 309.482 87.024 309.509 86.974 C 309.536 86.923 309.545 86.871 309.536 86.818 C 309.528 86.768 309.504 86.728 309.465 86.699 C 309.426 86.669 309.345 86.655 309.221 86.658 C 309.018 86.659 308.868 86.624 308.769 86.552 C 308.67 86.48 308.608 86.369 308.582 86.217 C 308.565 86.118 308.57 86.017 308.597 85.915 C 308.625 85.814 308.677 85.724 308.753 85.646 C 308.829 85.569 308.942 85.508 309.09 85.461 C 309.271 85.404 309.418 85.406 309.528 85.468 C 309.639 85.53 309.721 85.659 309.773 85.854 L 309.364 86.017 C 309.339 85.933 309.305 85.877 309.263 85.848 C 309.221 85.82 309.169 85.816 309.107 85.835 C 309.056 85.851 309.02 85.878 308.999 85.915 C 308.979 85.953 308.972 85.993 308.979 86.035 C 308.984 86.066 308.999 86.09 309.025 86.108 C 309.05 86.127 309.103 86.136 309.184 86.133 C 309.386 86.129 309.533 86.143 309.625 86.175 C 309.718 86.206 309.791 86.258 309.843 86.332 C 309.895 86.406 309.931 86.495 309.949 86.601 C 309.97 86.725 309.964 86.847 309.931 86.968 C 309.898 87.089 309.841 87.19 309.76 87.273 C 309.679 87.355 309.569 87.418 309.432 87.461 C 309.19 87.537 309.012 87.527 308.898 87.429 C 308.783 87.332 308.703 87.187 308.658 86.996 L 308.658 86.996 Z  M 311.127 86.15 L 311.537 86.216 C 311.53 86.371 311.505 86.505 311.462 86.618 C 311.418 86.731 311.358 86.823 311.281 86.894 C 311.205 86.965 311.102 87.016 310.974 87.046 C 310.817 87.084 310.686 87.083 310.579 87.046 C 310.472 87.007 310.373 86.919 310.28 86.781 C 310.189 86.642 310.127 86.452 310.095 86.209 C 310.054 85.885 310.085 85.621 310.189 85.417 C 310.292 85.213 310.46 85.083 310.691 85.027 C 310.872 84.983 311.02 84.999 311.137 85.074 C 311.253 85.149 311.35 85.284 311.427 85.478 L 311.05 85.691 C 311.029 85.634 311.009 85.594 310.991 85.57 C 310.96 85.53 310.925 85.501 310.886 85.485 C 310.846 85.469 310.805 85.466 310.76 85.477 C 310.66 85.501 310.59 85.574 310.551 85.698 C 310.521 85.789 310.517 85.923 310.54 86.098 C 310.568 86.315 310.611 86.458 310.67 86.527 C 310.729 86.596 310.802 86.62 310.889 86.599 C 310.974 86.578 311.034 86.531 311.069 86.455 C 311.104 86.38 311.124 86.278 311.127 86.149 L 311.127 86.15 Z  M 311.629 84.883 L 312.074 84.787 L 312.303 86.749 L 311.857 86.845 L 311.629 84.883 Z  M 312.454 84.718 L 313.652 84.517 L 313.69 84.939 L 312.94 85.064 L 312.968 85.377 L 313.664 85.261 L 313.7 85.663 L 313.005 85.78 L 313.039 86.168 L 313.812 86.039 L 313.852 86.486 L 312.632 86.69 L 312.454 84.718 L 312.454 84.718 Z  M 313.934 84.495 L 314.352 84.435 L 314.983 85.45 L 314.898 84.357 L 315.321 84.296 L 315.473 86.272 L 315.051 86.333 L 314.424 85.326 L 314.508 86.41 L 314.086 86.471 L 313.934 84.495 L 313.934 84.495 Z  M 315.577 84.284 L 316.943 84.154 L 316.968 84.643 L 316.51 84.687 L 316.586 86.179 L 316.137 86.222 L 316.06 84.73 L 315.602 84.774 L 315.577 84.284 L 315.577 84.284 Z  M 317.168 84.134 L 317.618 84.091 L 317.72 86.073 L 317.269 86.116 L 317.168 84.134 L 317.168 84.134 Z  M 318.928 85.674 L 318.415 85.711 L 318.357 86.043 L 317.898 86.076 L 318.368 84.053 L 318.859 84.018 L 319.483 85.963 L 319.012 85.996 L 318.928 85.674 L 318.928 85.674 Z  M 318.817 85.252 L 318.629 84.55 L 318.496 85.275 L 318.817 85.252 L 318.817 85.252 Z  M 321.197 85.588 L 320.684 85.612 L 320.621 85.943 L 320.161 85.965 L 320.658 83.954 L 321.149 83.93 L 321.748 85.889 L 321.277 85.912 L 321.197 85.588 L 321.197 85.588 Z  M 321.091 85.163 L 320.912 84.457 L 320.77 85.178 L 321.091 85.163 Z  M 321.873 83.92 L 322.543 83.904 C 322.674 83.9 322.781 83.922 322.863 83.969 C 322.945 84.016 323.013 84.084 323.067 84.174 C 323.122 84.265 323.161 84.37 323.187 84.49 C 323.212 84.611 323.226 84.739 323.227 84.874 C 323.23 85.086 323.215 85.252 323.18 85.369 C 323.147 85.487 323.099 85.586 323.037 85.667 C 322.975 85.747 322.908 85.801 322.836 85.83 C 322.737 85.868 322.648 85.888 322.568 85.89 L 321.899 85.906 L 321.873 83.92 Z  M 322.329 84.359 L 322.344 85.444 L 322.454 85.442 C 322.548 85.439 322.615 85.424 322.654 85.394 C 322.693 85.365 322.724 85.314 322.746 85.243 C 322.768 85.172 322.777 85.056 322.775 84.897 C 322.772 84.687 322.745 84.544 322.694 84.467 C 322.643 84.391 322.559 84.354 322.442 84.357 L 322.329 84.359 L 322.329 84.359 Z  M 324.086 85.226 L 324.516 85.2 C 324.524 85.295 324.541 85.368 324.569 85.418 C 324.614 85.5 324.681 85.541 324.767 85.543 C 324.831 85.544 324.881 85.526 324.916 85.485 C 324.951 85.445 324.969 85.397 324.97 85.343 C 324.971 85.292 324.955 85.245 324.922 85.204 C 324.89 85.163 324.813 85.122 324.693 85.084 C 324.496 85.018 324.356 84.935 324.273 84.832 C 324.19 84.73 324.149 84.601 324.151 84.446 C 324.152 84.344 324.175 84.248 324.22 84.158 C 324.265 84.068 324.331 83.999 324.419 83.949 C 324.506 83.899 324.626 83.876 324.778 83.879 C 324.964 83.884 325.106 83.934 325.202 84.031 C 325.299 84.128 325.355 84.28 325.371 84.486 L 324.946 84.509 C 324.936 84.42 324.913 84.354 324.877 84.313 C 324.842 84.271 324.792 84.25 324.729 84.248 C 324.676 84.247 324.637 84.261 324.61 84.291 C 324.583 84.32 324.569 84.357 324.569 84.401 C 324.568 84.432 324.578 84.46 324.6 84.486 C 324.621 84.513 324.671 84.539 324.75 84.563 C 324.947 84.626 325.087 84.688 325.171 84.749 C 325.256 84.81 325.317 84.885 325.354 84.973 C 325.392 85.062 325.41 85.16 325.409 85.269 C 325.408 85.396 325.38 85.513 325.327 85.619 C 325.274 85.726 325.2 85.805 325.107 85.858 C 325.014 85.912 324.896 85.937 324.755 85.933 C 324.507 85.927 324.336 85.859 324.242 85.726 C 324.148 85.594 324.096 85.427 324.086 85.226 L 324.086 85.226 Z  M 326.532 85.604 L 326.019 85.579 L 325.94 85.904 L 325.48 85.882 L 326.079 83.922 L 326.57 83.946 L 327.067 85.957 L 326.596 85.935 L 326.532 85.604 L 326.532 85.604 Z  M 326.449 85.17 L 326.306 84.449 L 326.128 85.155 L 326.449 85.17 L 326.449 85.17 Z  M 327.286 83.964 L 328.034 84.017 C 328.197 84.029 328.317 84.09 328.394 84.202 C 328.471 84.313 328.506 84.467 328.498 84.661 C 328.491 84.861 328.44 85.015 328.347 85.121 C 328.255 85.228 328.117 85.274 327.936 85.262 L 327.69 85.244 L 327.662 85.98 L 327.21 85.948 L 327.286 83.964 L 327.286 83.964 Z  M 327.706 84.842 L 327.816 84.85 C 327.903 84.856 327.964 84.841 328.001 84.802 C 328.037 84.763 328.057 84.712 328.06 84.648 C 328.062 84.586 328.049 84.532 328.02 84.486 C 327.991 84.441 327.935 84.415 327.851 84.409 L 327.723 84.399 L 327.706 84.842 L 327.706 84.842 Z  M 328.777 84.076 L 329.228 84.108 L 329.151 86.092 L 328.701 86.06 L 328.777 84.076 L 328.777 84.076 Z  M 329.576 84.108 L 330.78 84.223 L 330.759 84.646 L 330.005 84.574 L 329.989 84.89 L 330.688 84.956 L 330.667 85.36 L 329.968 85.294 L 329.948 85.684 L 330.724 85.758 L 330.701 86.207 L 329.474 86.09 L 329.576 84.108 L 329.576 84.108 Z  M 331.076 84.254 L 331.495 84.304 L 331.972 85.464 L 332.042 84.369 L 332.465 84.419 L 332.338 86.399 L 331.915 86.348 L 331.441 85.197 L 331.371 86.283 L 330.949 86.233 L 331.076 84.254 L 331.076 84.254 Z  M 332.698 84.445 L 334.057 84.673 L 334.014 85.16 L 333.557 85.083 L 333.423 86.568 L 332.976 86.493 L 333.11 85.008 L 332.654 84.932 L 332.698 84.445 L 332.698 84.445 Z  M 334.313 84.696 L 334.76 84.781 L 334.557 86.748 L 334.11 86.663 L 334.313 84.696 L 334.313 84.696 Z  M 335.809 86.669 L 335.302 86.56 L 335.194 86.868 L 334.74 86.77 L 335.509 84.925 L 335.994 85.029 L 336.308 87.109 L 335.842 87.008 L 335.809 86.669 L 335.809 86.669 Z  M 335.765 86.224 L 335.688 85.485 L 335.447 86.156 L 335.765 86.224 Z  M 336.746 85.173 L 337.326 85.341 L 337.365 86.588 L 337.772 85.47 L 338.35 85.638 L 338.047 87.581 L 337.687 87.476 L 337.918 85.995 L 337.408 87.395 L 337.082 87.301 L 337.035 85.739 L 336.804 87.221 L 336.443 87.116 L 336.746 85.173 L 336.746 85.173 Z " fill-rule="evenodd" fill="rgb(255,255,255)"/><path d=" M 318.146 35.832 L 318.236 35.531 L 318.286 35.229 L 318.297 34.926 L 318.273 34.624 L 318.218 34.322 L 318.135 34.02 L 318.028 33.717 L 317.9 33.413 L 317.753 33.106 L 317.591 32.795 L 317.417 32.48 L 317.233 32.16 L 317.043 31.834 L 316.847 31.502 L 316.65 31.162 L 316.454 30.814 L 316.261 30.457 L 316.075 30.092 L 315.898 29.717 L 315.732 29.332 L 315.58 28.936 L 315.444 28.529 L 315.328 28.11 L 315.233 27.679 L 315.162 27.234 L 315.118 26.776 L 315.078 25.509 L 314.67 26.263 L 314.641 26.377 L 314.62 26.507 L 314.602 26.662 L 314.585 26.842 L 314.568 27.045 L 314.553 27.267 L 314.537 27.505 L 314.522 27.755 L 314.506 28.013 L 314.49 28.275 L 314.473 28.536 L 314.455 28.795 L 314.435 29.044 L 314.428 29.124 L 314.361 29.05 L 314.234 28.861 L 314.124 28.645 L 314.028 28.409 L 313.945 28.156 L 313.874 27.89 L 313.811 27.617 L 313.755 27.342 L 313.702 27.068 L 313.65 26.8 L 313.596 26.542 L 313.535 26.298 L 313.465 26.071 L 313.38 25.863 L 312.882 25 L 312.891 26.294 L 312.847 26.752 L 312.762 27.19 L 312.637 27.61 L 312.477 28.014 L 312.285 28.403 L 312.066 28.779 L 311.822 29.142 L 311.559 29.494 L 311.279 29.835 L 310.987 30.168 L 310.686 30.492 L 310.381 30.81 L 310.076 31.121 L 309.775 31.428 L 309.481 31.733 L 309.201 32.036 L 308.935 32.338 L 308.691 32.643 L 308.471 32.951 L 308.28 33.265 L 308.122 33.586 L 308.004 33.917 L 307.931 34.257 L 307.909 34.609 L 307.943 34.968 L 308.037 35.335 L 308.193 35.708 L 308.414 36.089 L 308.703 36.478 L 309.062 36.877 L 309.552 37.342 L 316.95 37.342 L 317.329 37.006 L 317.604 36.717 L 317.831 36.425 L 318.01 36.13 L 318.145 35.832 L 318.146 35.832 Z " fill-rule="evenodd" fill="rgb(35,31,32)"/><path d=" M 309.638 37.13 L 316.871 37.13 C 320.484 34.167 314.881 31.581 314.891 26.302 C 314.769 26.397 314.73 28.375 314.602 29.527 L 314.553 29.52 C 313.444 28.79 313.616 26.535 313.1 25.802 C 313.409 31.269 304.708 32.762 309.638 37.131 L 309.638 37.13 Z " fill-rule="evenodd" fill="rgb(237,28,36)"/><path d=" M 314.577 29.66 L 314.572 29.793 L 314.57 29.918 L 314.569 30.038 L 314.57 30.156 L 314.57 30.274 L 314.567 30.396 L 314.561 30.522 L 314.552 30.658 L 314.536 30.805 L 314.514 30.966 L 314.483 31.143 L 314.443 31.34 L 314.392 31.559 L 314.329 31.802 L 314.252 32.074 L 314.068 32.665 L 313.853 33.182 L 313.614 33.63 L 313.355 34.012 L 313.082 34.332 L 312.798 34.594 L 312.51 34.803 L 312.221 34.962 L 311.938 35.076 L 311.665 35.149 L 311.406 35.185 L 311.168 35.187 L 310.954 35.162 L 310.768 35.112 L 310.616 35.04 L 310.501 34.948 L 310.377 34.736 L 310.306 34.5 L 310.285 34.258 L 310.317 34.027 L 310.403 33.829 L 310.549 33.684 L 310.753 33.623 L 310.998 33.669 L 311.385 33.8 L 311.729 33.88 L 312.039 33.916 L 312.315 33.911 L 312.563 33.872 L 312.783 33.8 L 312.979 33.701 L 313.154 33.578 L 313.31 33.435 L 313.449 33.274 L 313.574 33.1 L 313.685 32.916 L 313.786 32.727 L 313.879 32.536 L 313.966 32.347 L 314.046 32.168 L 314.093 32.006 L 314.139 31.824 L 314.181 31.627 L 314.221 31.419 L 314.258 31.205 L 314.293 30.987 L 314.325 30.771 L 314.354 30.56 L 314.38 30.357 L 314.403 30.167 L 314.423 29.993 L 314.454 29.71 L 314.465 29.608 L 314.474 29.538 L 314.682 28.003 L 314.576 29.659 L 314.577 29.66 Z " fill-rule="evenodd" fill="rgb(35,31,32)"/><path d=" M 325.095 65.933 L 324.136 78.78 C 323.915 79.32 323.678 79.359 323.412 78.879 L 322.148 65.933 L 325.095 65.933 L 325.095 65.933 Z " fill-rule="evenodd" fill="rgb(0,149,218)"/><path d=" M 325.691 64.591 L 325.706 64.606 L 325.704 65.07 L 325.629 65.165 L 321.561 65.165 L 321.468 65.062 L 321.469 64.622 L 321.506 64.591 L 325.691 64.591 L 325.691 64.591 Z " fill-rule="evenodd" fill="rgb(0,149,218)"/><path d=" M 321.727 63.879 L 325.464 63.879 L 325.55 64.427 L 321.661 64.427 L 321.727 63.879 L 321.727 63.879 Z " fill-rule="evenodd" fill="rgb(0,149,218)"/><path d=" M 324.361 66.335 L 324.19 70.864 L 324.019 75.392 C 324.018 75.535 324.217 75.557 324.229 75.372 L 324.812 66.337 C 324.767 66.118 324.482 66.1 324.361 66.335 L 324.361 66.335 Z " fill-rule="evenodd" fill="rgb(255,255,255)"/><path d=" M 323.397 66.462 L 323.583 70.724 L 323.768 74.986 C 323.778 75.12 323.946 75.124 323.943 74.95 L 323.776 66.427 C 323.723 66.225 323.482 66.232 323.397 66.462 L 323.397 66.462 Z " fill-rule="evenodd" fill="rgb(255,255,255)"/><path d=" M 322.548 66.421 L 322.954 70.445 L 323.36 74.469 C 323.377 74.596 323.546 74.591 323.533 74.427 L 322.925 66.369 C 322.861 66.18 322.621 66.199 322.548 66.421 Z " fill-rule="evenodd" fill="rgb(255,255,255)"/><path d=" M 325.509 65.329 L 325.419 65.614 L 325.149 65.825 L 325.149 65.812 L 321.987 65.812 L 321.748 65.638 L 321.702 65.329 L 325.509 65.329 L 325.509 65.329 Z " fill-rule="evenodd" fill="rgb(0,149,218)"/><path d=" M 325.557 63.617 L 325.741 63.352 L 325.843 63.081 L 325.87 62.807 L 325.834 62.534 L 325.748 62.261 L 325.625 61.985 L 325.473 61.704 L 325.305 61.414 L 325.129 61.112 L 324.955 60.796 L 324.792 60.465 L 324.65 60.115 L 324.537 59.745 L 324.463 59.353 L 324.398 58.342 L 324.205 58.982 L 324.187 59.118 L 324.171 59.292 L 324.158 59.496 L 324.145 59.717 L 324.131 59.946 L 324.114 60.168 L 324.114 60.174 L 324.101 60.162 L 323.996 59.983 L 323.916 59.765 L 323.856 59.524 L 323.807 59.278 L 323.76 59.041 L 323.7 58.827 L 323.438 58.29 L 323.402 59.137 L 323.308 59.521 L 323.151 59.875 L 322.944 60.205 L 322.701 60.516 L 322.435 60.81 L 322.162 61.092 L 321.895 61.367 L 321.649 61.639 L 321.44 61.915 L 321.282 62.202 L 321.195 62.506 L 321.201 62.828 L 321.314 63.163 L 321.545 63.51 L 321.928 63.903 L 325.262 63.903 L 325.557 63.618 L 325.557 63.617 Z " fill-rule="evenodd" fill="rgb(35,31,32)"/><path d=" M 321.972 63.796 L 325.218 63.796 C 326.84 62.466 324.325 61.306 324.33 58.937 C 324.269 59.033 324.258 59.867 324.2 60.384 L 324.178 60.381 C 323.681 60.053 323.758 59.041 323.526 58.712 C 323.665 61.166 319.76 61.836 321.972 63.796 L 321.972 63.796 Z " fill-rule="evenodd" fill="rgb(237,28,36)"/><path d=" M 324.262 59.461 L 324.24 60.518 L 324.23 60.658 L 324.215 60.801 L 324.195 60.946 L 324.17 61.092 L 324.142 61.24 L 324.109 61.387 L 324.072 61.536 L 323.892 62.037 L 323.665 62.415 L 323.41 62.681 L 323.145 62.85 L 322.889 62.936 L 322.658 62.954 L 322.469 62.919 L 322.339 62.84 L 322.277 62.734 L 322.243 62.621 L 322.233 62.506 L 322.248 62.396 L 322.291 62.297 L 322.365 62.223 L 322.471 62.192 L 322.589 62.214 L 322.916 62.308 L 323.171 62.322 L 323.372 62.274 L 323.532 62.179 L 323.66 62.046 L 323.763 61.89 L 323.849 61.721 L 323.922 61.56 L 323.964 61.408 L 324.003 61.228 L 324.039 61.036 L 324.069 60.845 L 324.095 60.67 L 324.115 60.524 L 324.128 60.421 L 324.261 59.461 L 324.262 59.461 Z " fill-rule="evenodd" fill="rgb(35,31,32)"/><path d=" M 328.559 35.832 L 328.65 35.531 L 328.7 35.229 L 328.711 34.926 L 328.687 34.624 L 328.632 34.322 L 328.549 34.02 L 328.442 33.717 L 328.314 33.413 L 328.167 33.106 L 328.005 32.795 L 327.831 32.48 L 327.647 32.16 L 327.456 31.834 L 327.261 31.502 L 327.064 31.162 L 326.868 30.814 L 326.675 30.457 L 326.489 30.092 L 326.311 29.717 L 326.146 29.332 L 325.994 28.936 L 325.858 28.529 L 325.741 28.11 L 325.647 27.679 L 325.576 27.234 L 325.532 26.776 L 325.492 25.509 L 325.084 26.263 L 325.055 26.377 L 325.034 26.507 L 325.015 26.662 L 324.999 26.842 L 324.982 27.045 L 324.967 27.267 L 324.951 27.505 L 324.936 27.755 L 324.92 28.013 L 324.904 28.275 L 324.886 28.536 L 324.868 28.795 L 324.849 29.044 L 324.841 29.124 L 324.775 29.05 L 324.648 28.861 L 324.537 28.645 L 324.442 28.409 L 324.359 28.156 L 324.288 27.89 L 324.225 27.617 L 324.169 27.342 L 324.116 27.068 L 324.064 26.8 L 324.01 26.542 L 323.949 26.298 L 323.879 26.071 L 323.794 25.863 L 323.296 25 L 323.305 26.294 L 323.261 26.752 L 323.176 27.19 L 323.051 27.61 L 322.891 28.014 L 322.699 28.403 L 322.48 28.779 L 322.236 29.142 L 321.973 29.494 L 321.693 29.835 L 321.4 30.168 L 321.1 30.492 L 320.795 30.81 L 320.49 31.121 L 320.189 31.428 L 319.895 31.733 L 319.614 32.036 L 319.349 32.338 L 319.105 32.643 L 318.885 32.951 L 318.694 33.265 L 318.536 33.586 L 318.418 33.917 L 318.345 34.257 L 318.323 34.609 L 318.357 34.968 L 318.451 35.335 L 318.607 35.708 L 318.828 36.089 L 319.116 36.478 L 319.476 36.877 L 319.966 37.342 L 327.364 37.342 L 327.743 37.006 L 328.018 36.717 L 328.244 36.425 L 328.424 36.13 L 328.558 35.832 L 328.559 35.832 Z " fill-rule="evenodd" fill="rgb(35,31,32)"/><path d=" M 320.052 37.13 L 327.284 37.13 C 330.898 34.167 325.295 31.581 325.305 26.302 C 325.183 26.397 325.144 28.375 325.016 29.527 L 324.967 29.52 C 323.858 28.79 324.03 26.535 323.514 25.802 C 323.823 31.269 315.122 32.762 320.052 37.131 L 320.052 37.13 Z " fill-rule="evenodd" fill="rgb(237,28,36)"/><path d=" M 324.991 29.66 L 324.986 29.793 L 324.984 29.918 L 324.983 30.038 L 324.984 30.156 L 324.984 30.274 L 324.981 30.396 L 324.975 30.522 L 324.966 30.658 L 324.95 30.805 L 324.928 30.966 L 324.897 31.143 L 324.857 31.34 L 324.806 31.559 L 324.743 31.802 L 324.666 32.074 L 324.482 32.665 L 324.267 33.182 L 324.028 33.63 L 323.769 34.012 L 323.496 34.332 L 323.212 34.594 L 322.924 34.803 L 322.635 34.962 L 322.352 35.076 L 322.078 35.149 L 321.82 35.185 L 321.582 35.187 L 321.368 35.162 L 321.182 35.112 L 321.03 35.04 L 320.915 34.948 L 320.791 34.736 L 320.719 34.5 L 320.699 34.258 L 320.731 34.027 L 320.817 33.829 L 320.963 33.684 L 321.167 33.623 L 321.412 33.669 L 321.799 33.8 L 322.143 33.88 L 322.452 33.916 L 322.729 33.911 L 322.977 33.872 L 323.197 33.8 L 323.393 33.701 L 323.568 33.578 L 323.724 33.435 L 323.863 33.274 L 323.988 33.1 L 324.099 32.916 L 324.2 32.727 L 324.293 32.536 L 324.38 32.347 L 324.46 32.168 L 324.507 32.006 L 324.553 31.824 L 324.595 31.627 L 324.635 31.419 L 324.672 31.205 L 324.707 30.987 L 324.739 30.771 L 324.767 30.56 L 324.794 30.357 L 324.817 30.167 L 324.837 29.993 L 324.868 29.71 L 324.879 29.608 L 324.887 29.538 L 325.096 28.003 L 324.99 29.659 L 324.991 29.66 Z " fill-rule="evenodd" fill="rgb(35,31,32)"/><path d=" M 338.81 35.832 L 338.9 35.531 L 338.95 35.229 L 338.961 34.926 L 338.937 34.624 L 338.882 34.322 L 338.799 34.02 L 338.692 33.717 L 338.564 33.413 L 338.417 33.106 L 338.255 32.795 L 338.081 32.48 L 337.898 32.16 L 337.707 31.834 L 337.512 31.502 L 337.314 31.162 L 337.118 30.814 L 336.926 30.457 L 336.74 30.092 L 336.562 29.717 L 336.396 29.332 L 336.244 28.936 L 336.108 28.529 L 335.992 28.11 L 335.897 27.679 L 335.826 27.234 L 335.782 26.776 L 335.742 25.509 L 335.334 26.263 L 335.305 26.377 L 335.284 26.507 L 335.266 26.662 L 335.249 26.842 L 335.233 27.045 L 335.217 27.267 L 335.201 27.505 L 335.186 27.755 L 335.17 28.013 L 335.154 28.275 L 335.137 28.536 L 335.119 28.795 L 335.099 29.044 L 335.092 29.124 L 335.025 29.05 L 334.898 28.861 L 334.788 28.645 L 334.692 28.409 L 334.61 28.156 L 334.538 27.89 L 334.475 27.617 L 334.42 27.342 L 334.367 27.068 L 334.315 26.8 L 334.26 26.542 L 334.2 26.298 L 334.129 26.071 L 334.044 25.863 L 333.546 25 L 333.555 26.294 L 333.512 26.752 L 333.426 27.19 L 333.301 27.61 L 333.141 28.014 L 332.949 28.403 L 332.73 28.779 L 332.487 29.142 L 332.223 29.494 L 331.943 29.835 L 331.651 30.168 L 331.35 30.492 L 331.045 30.81 L 330.74 31.121 L 330.439 31.428 L 330.145 31.733 L 329.865 32.036 L 329.6 32.338 L 329.355 32.643 L 329.135 32.951 L 328.944 33.265 L 328.787 33.586 L 328.669 33.917 L 328.595 34.257 L 328.573 34.609 L 328.607 34.968 L 328.701 35.335 L 328.857 35.708 L 329.078 36.089 L 329.367 36.478 L 329.726 36.877 L 330.216 37.342 L 337.614 37.342 L 337.994 37.006 L 338.269 36.717 L 338.495 36.425 L 338.674 36.13 L 338.809 35.832 L 338.81 35.832 Z " fill-rule="evenodd" fill="rgb(35,31,32)"/><path d=" M 330.302 37.13 L 337.535 37.13 C 341.148 34.167 335.545 31.581 335.555 26.302 C 335.433 26.397 335.394 28.375 335.266 29.527 L 335.217 29.52 C 334.108 28.79 334.28 26.535 333.764 25.802 C 334.073 31.269 325.373 32.762 330.302 37.131 L 330.302 37.13 Z " fill-rule="evenodd" fill="rgb(237,28,36)"/><path d=" M 335.241 29.66 L 335.237 29.793 L 335.234 29.918 L 335.234 30.038 L 335.234 30.156 L 335.234 30.274 L 335.232 30.396 L 335.226 30.522 L 335.216 30.658 L 335.2 30.805 L 335.178 30.966 L 335.147 31.143 L 335.107 31.34 L 335.056 31.559 L 334.993 31.802 L 334.917 32.074 L 334.732 32.665 L 334.518 33.182 L 334.278 33.63 L 334.019 34.012 L 333.746 34.332 L 333.463 34.594 L 333.174 34.803 L 332.885 34.962 L 332.602 35.076 L 332.329 35.149 L 332.07 35.185 L 331.832 35.187 L 331.618 35.162 L 331.432 35.112 L 331.281 35.04 L 331.165 34.948 L 331.041 34.736 L 330.97 34.5 L 330.95 34.258 L 330.981 34.027 L 331.067 33.829 L 331.213 33.684 L 331.417 33.623 L 331.662 33.669 L 332.049 33.8 L 332.393 33.88 L 332.703 33.916 L 332.98 33.911 L 333.227 33.872 L 333.447 33.8 L 333.643 33.701 L 333.818 33.578 L 333.974 33.435 L 334.113 33.274 L 334.238 33.1 L 334.349 32.916 L 334.451 32.727 L 334.543 32.536 L 334.63 32.347 L 334.71 32.168 L 334.758 32.006 L 334.803 31.824 L 334.846 31.627 L 334.885 31.419 L 334.923 31.205 L 334.958 30.987 L 334.989 30.771 L 335.018 30.56 L 335.044 30.357 L 335.067 30.167 L 335.087 29.993 L 335.119 29.71 L 335.129 29.608 L 335.138 29.538 L 335.346 28.003 L 335.24 29.659 L 335.241 29.66 Z " fill-rule="evenodd" fill="rgb(35,31,32)"/></g></svg>