<?xml version="1.0" standalone="no"?><!-- Generator: Gravit.io --><svg xmlns="http://www.w3.org/2000/svg" xmlns:xlink="http://www.w3.org/1999/xlink" style="isolation:isolate" viewBox="0 0 150 79.769" width="150" height="79.769"><g><path d=" M 43.65 59.829 L 42.889 59.829 L 42.101 57.817 L 39.566 57.817 L 38.787 59.829 L 38.043 59.829 L 40.544 53.477 L 41.163 53.477 L 43.65 59.829 L 43.65 59.829 Z  M 39.826 57.155 L 41.872 57.155 L 41.137 55.195 L 41.137 55.195 Q 40.994 54.823 40.842 54.282 L 40.842 54.282 L 40.842 54.282 Q 40.747 54.697 40.57 55.195 L 40.57 55.195 L 39.826 57.155 L 39.826 57.155 Z  M 46.575 55 L 46.575 55 L 46.575 55 Q 46.891 55 47.142 55.052 L 47.142 55.052 L 47.043 55.718 L 47.043 55.718 Q 46.748 55.653 46.523 55.653 L 46.523 55.653 L 46.523 55.653 Q 45.948 55.653 45.539 56.121 L 45.539 56.121 L 45.539 56.121 Q 45.13 56.588 45.13 57.285 L 45.13 57.285 L 45.13 59.829 L 44.412 59.829 L 44.412 55.087 L 45.005 55.087 L 45.087 55.965 L 45.122 55.965 L 45.122 55.965 Q 45.385 55.502 45.758 55.251 L 45.758 55.251 L 45.758 55.251 Q 46.13 55 46.575 55 Z  M 51.478 59.829 L 50.945 59.829 L 50.803 59.154 L 50.768 59.154 L 50.768 59.154 Q 50.413 59.599 50.061 59.757 L 50.061 59.757 L 50.061 59.757 Q 49.708 59.915 49.18 59.915 L 49.18 59.915 L 49.18 59.915 Q 48.475 59.915 48.075 59.552 L 48.075 59.552 L 48.075 59.552 Q 47.674 59.188 47.674 58.518 L 47.674 58.518 L 47.674 58.518 Q 47.674 57.081 49.972 57.012 L 49.972 57.012 L 50.777 56.986 L 50.777 56.692 L 50.777 56.692 Q 50.777 56.134 50.536 55.868 L 50.536 55.868 L 50.536 55.868 Q 50.296 55.601 49.768 55.601 L 49.768 55.601 L 49.768 55.601 Q 49.176 55.601 48.427 55.965 L 48.427 55.965 L 48.207 55.415 L 48.207 55.415 Q 48.557 55.225 48.975 55.117 L 48.975 55.117 L 48.975 55.117 Q 49.392 55.009 49.812 55.009 L 49.812 55.009 L 49.812 55.009 Q 50.66 55.009 51.069 55.385 L 51.069 55.385 L 51.069 55.385 Q 51.478 55.762 51.478 56.592 L 51.478 56.592 L 51.478 59.829 L 51.478 59.829 Z  M 49.323 59.322 L 49.323 59.322 L 49.323 59.322 Q 49.993 59.322 50.376 58.955 L 50.376 58.955 L 50.376 58.955 Q 50.759 58.587 50.759 57.925 L 50.759 57.925 L 50.759 57.497 L 50.041 57.527 L 50.041 57.527 Q 49.184 57.557 48.806 57.793 L 48.806 57.793 L 48.806 57.793 Q 48.427 58.029 48.427 58.526 L 48.427 58.526 L 48.427 58.526 Q 48.427 58.916 48.663 59.119 L 48.663 59.119 L 48.663 59.119 Q 48.899 59.322 49.323 59.322 Z  M 55.164 59.915 L 55.164 59.915 L 55.164 59.915 Q 54.701 59.915 54.318 59.744 L 54.318 59.744 L 54.318 59.744 Q 53.935 59.573 53.676 59.219 L 53.676 59.219 L 53.624 59.219 L 53.624 59.219 Q 53.676 59.634 53.676 60.006 L 53.676 60.006 L 53.676 61.957 L 52.957 61.957 L 52.957 55.087 L 53.541 55.087 L 53.641 55.736 L 53.676 55.736 L 53.676 55.736 Q 53.952 55.346 54.32 55.173 L 54.32 55.173 L 54.32 55.173 Q 54.688 55 55.164 55 L 55.164 55 L 55.164 55 Q 56.107 55 56.62 55.645 L 56.62 55.645 L 56.62 55.645 Q 57.133 56.289 57.133 57.453 L 57.133 57.453 L 57.133 57.453 Q 57.133 58.622 56.611 59.268 L 56.611 59.268 L 56.611 59.268 Q 56.09 59.915 55.164 59.915 Z  M 55.06 55.61 L 55.06 55.61 L 55.06 55.61 Q 54.333 55.61 54.009 56.012 L 54.009 56.012 L 54.009 56.012 Q 53.684 56.415 53.676 57.293 L 53.676 57.293 L 53.676 57.453 L 53.676 57.453 Q 53.676 58.453 54.009 58.883 L 54.009 58.883 L 54.009 58.883 Q 54.342 59.314 55.077 59.314 L 55.077 59.314 L 55.077 59.314 Q 55.692 59.314 56.04 58.816 L 56.04 58.816 L 56.04 58.816 Q 56.388 58.319 56.388 57.445 L 56.388 57.445 L 56.388 57.445 Q 56.388 56.558 56.04 56.084 L 56.04 56.084 L 56.04 56.084 Q 55.692 55.61 55.06 55.61 Z  M 59.106 55.087 L 59.106 59.829 L 58.387 59.829 L 58.387 55.087 L 59.106 55.087 L 59.106 55.087 Z  M 58.327 53.802 L 58.327 53.802 L 58.327 53.802 Q 58.327 53.555 58.448 53.44 L 58.448 53.44 L 58.448 53.44 Q 58.569 53.326 58.751 53.326 L 58.751 53.326 L 58.751 53.326 Q 58.924 53.326 59.049 53.442 L 59.049 53.442 L 59.049 53.442 Q 59.175 53.559 59.175 53.802 L 59.175 53.802 L 59.175 53.802 Q 59.175 54.044 59.049 54.163 L 59.049 54.163 L 59.049 54.163 Q 58.924 54.282 58.751 54.282 L 58.751 54.282 L 58.751 54.282 Q 58.569 54.282 58.448 54.163 L 58.448 54.163 L 58.448 54.163 Q 58.327 54.044 58.327 53.802 Z  M 62.792 55 L 62.792 55 L 62.792 55 Q 63.108 55 63.359 55.052 L 63.359 55.052 L 63.259 55.718 L 63.259 55.718 Q 62.965 55.653 62.74 55.653 L 62.74 55.653 L 62.74 55.653 Q 62.165 55.653 61.756 56.121 L 61.756 56.121 L 61.756 56.121 Q 61.347 56.588 61.347 57.285 L 61.347 57.285 L 61.347 59.829 L 60.629 59.829 L 60.629 55.087 L 61.221 55.087 L 61.304 55.965 L 61.338 55.965 L 61.338 55.965 Q 61.602 55.502 61.974 55.251 L 61.974 55.251 L 61.974 55.251 Q 62.346 55 62.792 55 Z  M 67.694 59.829 L 67.162 59.829 L 67.019 59.154 L 66.985 59.154 L 66.985 59.154 Q 66.63 59.599 66.277 59.757 L 66.277 59.757 L 66.277 59.757 Q 65.925 59.915 65.397 59.915 L 65.397 59.915 L 65.397 59.915 Q 64.691 59.915 64.291 59.552 L 64.291 59.552 L 64.291 59.552 Q 63.891 59.188 63.891 58.518 L 63.891 58.518 L 63.891 58.518 Q 63.891 57.081 66.189 57.012 L 66.189 57.012 L 66.993 56.986 L 66.993 56.692 L 66.993 56.692 Q 66.993 56.134 66.753 55.868 L 66.753 55.868 L 66.753 55.868 Q 66.513 55.601 65.985 55.601 L 65.985 55.601 L 65.985 55.601 Q 65.392 55.601 64.644 55.965 L 64.644 55.965 L 64.423 55.415 L 64.423 55.415 Q 64.774 55.225 65.191 55.117 L 65.191 55.117 L 65.191 55.117 Q 65.609 55.009 66.028 55.009 L 66.028 55.009 L 66.028 55.009 Q 66.876 55.009 67.285 55.385 L 67.285 55.385 L 67.285 55.385 Q 67.694 55.762 67.694 56.592 L 67.694 56.592 L 67.694 59.829 L 67.694 59.829 Z  M 65.54 59.322 L 65.54 59.322 L 65.54 59.322 Q 66.21 59.322 66.593 58.955 L 66.593 58.955 L 66.593 58.955 Q 66.976 58.587 66.976 57.925 L 66.976 57.925 L 66.976 57.497 L 66.258 57.527 L 66.258 57.527 Q 65.401 57.557 65.022 57.793 L 65.022 57.793 L 65.022 57.793 Q 64.644 58.029 64.644 58.526 L 64.644 58.526 L 64.644 58.526 Q 64.644 58.916 64.88 59.119 L 64.88 59.119 L 64.88 59.119 Q 65.115 59.322 65.54 59.322 Z  M 71.069 59.915 L 71.069 59.915 L 71.069 59.915 Q 70.039 59.915 69.475 59.281 L 69.475 59.281 L 69.475 59.281 Q 68.91 58.647 68.91 57.488 L 68.91 57.488 L 68.91 57.488 Q 68.91 56.298 69.483 55.649 L 69.483 55.649 L 69.483 55.649 Q 70.057 55 71.117 55 L 71.117 55 L 71.117 55 Q 71.459 55 71.8 55.074 L 71.8 55.074 L 71.8 55.074 Q 72.142 55.147 72.337 55.247 L 72.337 55.247 L 72.116 55.857 L 72.116 55.857 Q 71.878 55.762 71.597 55.699 L 71.597 55.699 L 71.597 55.699 Q 71.316 55.636 71.099 55.636 L 71.099 55.636 L 71.099 55.636 Q 69.654 55.636 69.654 57.479 L 69.654 57.479 L 69.654 57.479 Q 69.654 58.353 70.007 58.821 L 70.007 58.821 L 70.007 58.821 Q 70.36 59.288 71.052 59.288 L 71.052 59.288 L 71.052 59.288 Q 71.645 59.288 72.268 59.033 L 72.268 59.033 L 72.268 59.669 L 72.268 59.669 Q 71.792 59.915 71.069 59.915 Z  M 76.841 59.829 L 76.309 59.829 L 76.166 59.154 L 76.131 59.154 L 76.131 59.154 Q 75.777 59.599 75.424 59.757 L 75.424 59.757 L 75.424 59.757 Q 75.071 59.915 74.543 59.915 L 74.543 59.915 L 74.543 59.915 Q 73.838 59.915 73.438 59.552 L 73.438 59.552 L 73.438 59.552 Q 73.038 59.188 73.038 58.518 L 73.038 58.518 L 73.038 58.518 Q 73.038 57.081 75.335 57.012 L 75.335 57.012 L 76.14 56.986 L 76.14 56.692 L 76.14 56.692 Q 76.14 56.134 75.9 55.868 L 75.9 55.868 L 75.9 55.868 Q 75.66 55.601 75.132 55.601 L 75.132 55.601 L 75.132 55.601 Q 74.539 55.601 73.791 55.965 L 73.791 55.965 L 73.57 55.415 L 73.57 55.415 Q 73.92 55.225 74.338 55.117 L 74.338 55.117 L 74.338 55.117 Q 74.755 55.009 75.175 55.009 L 75.175 55.009 L 75.175 55.009 Q 76.023 55.009 76.432 55.385 L 76.432 55.385 L 76.432 55.385 Q 76.841 55.762 76.841 56.592 L 76.841 56.592 L 76.841 59.829 L 76.841 59.829 Z  M 74.686 59.322 L 74.686 59.322 L 74.686 59.322 Q 75.357 59.322 75.74 58.955 L 75.74 58.955 L 75.74 58.955 Q 76.123 58.587 76.123 57.925 L 76.123 57.925 L 76.123 57.497 L 75.405 57.527 L 75.405 57.527 Q 74.548 57.557 74.169 57.793 L 74.169 57.793 L 74.169 57.793 Q 73.791 58.029 73.791 58.526 L 73.791 58.526 L 73.791 58.526 Q 73.791 58.916 74.026 59.119 L 74.026 59.119 L 74.026 59.119 Q 74.262 59.322 74.686 59.322 Z  M 5.462 54.07 L 5.462 54.07 L 5.462 54.07 Q 4.42 54.07 3.816 54.764 L 3.816 54.764 L 3.816 54.764 Q 3.213 55.459 3.213 56.666 L 3.213 56.666 L 3.213 56.666 Q 3.213 57.908 3.795 58.585 L 3.795 58.585 L 3.795 58.585 Q 4.376 59.262 5.454 59.262 L 5.454 59.262 L 5.454 59.262 Q 6.116 59.262 6.964 59.024 L 6.964 59.024 L 6.964 59.669 L 6.964 59.669 Q 6.306 59.915 5.341 59.915 L 5.341 59.915 L 5.341 59.915 Q 3.944 59.915 3.184 59.067 L 3.184 59.067 L 3.184 59.067 Q 2.425 58.219 2.425 56.657 L 2.425 56.657 L 2.425 56.657 Q 2.425 55.679 2.791 54.944 L 2.791 54.944 L 2.791 54.944 Q 3.156 54.208 3.846 53.81 L 3.846 53.81 L 3.846 53.81 Q 4.537 53.412 5.471 53.412 L 5.471 53.412 L 5.471 53.412 Q 6.466 53.412 7.211 53.776 L 7.211 53.776 L 6.899 54.407 L 6.899 54.407 Q 6.181 54.07 5.462 54.07 Z  M 11.684 59.829 L 11.152 59.829 L 11.009 59.154 L 10.975 59.154 L 10.975 59.154 Q 10.62 59.599 10.267 59.757 L 10.267 59.757 L 10.267 59.757 Q 9.915 59.915 9.387 59.915 L 9.387 59.915 L 9.387 59.915 Q 8.682 59.915 8.281 59.552 L 8.281 59.552 L 8.281 59.552 Q 7.881 59.188 7.881 58.518 L 7.881 58.518 L 7.881 58.518 Q 7.881 57.081 10.179 57.012 L 10.179 57.012 L 10.983 56.986 L 10.983 56.692 L 10.983 56.692 Q 10.983 56.134 10.743 55.868 L 10.743 55.868 L 10.743 55.868 Q 10.503 55.601 9.975 55.601 L 9.975 55.601 L 9.975 55.601 Q 9.383 55.601 8.634 55.965 L 8.634 55.965 L 8.413 55.415 L 8.413 55.415 Q 8.764 55.225 9.181 55.117 L 9.181 55.117 L 9.181 55.117 Q 9.599 55.009 10.019 55.009 L 10.019 55.009 L 10.019 55.009 Q 10.867 55.009 11.275 55.385 L 11.275 55.385 L 11.275 55.385 Q 11.684 55.762 11.684 56.592 L 11.684 56.592 L 11.684 59.829 L 11.684 59.829 Z  M 9.53 59.322 L 9.53 59.322 L 9.53 59.322 Q 10.2 59.322 10.583 58.955 L 10.583 58.955 L 10.583 58.955 Q 10.966 58.587 10.966 57.925 L 10.966 57.925 L 10.966 57.497 L 10.248 57.527 L 10.248 57.527 Q 9.391 57.557 9.013 57.793 L 9.013 57.793 L 9.013 57.793 Q 8.634 58.029 8.634 58.526 L 8.634 58.526 L 8.634 58.526 Q 8.634 58.916 8.87 59.119 L 8.87 59.119 L 8.87 59.119 Q 9.106 59.322 9.53 59.322 Z  M 19.927 59.829 L 19.209 59.829 L 19.209 56.744 L 19.209 56.744 Q 19.209 56.177 18.966 55.893 L 18.966 55.893 L 18.966 55.893 Q 18.724 55.61 18.213 55.61 L 18.213 55.61 L 18.213 55.61 Q 17.543 55.61 17.223 55.995 L 17.223 55.995 L 17.223 55.995 Q 16.902 56.38 16.902 57.181 L 16.902 57.181 L 16.902 59.829 L 16.184 59.829 L 16.184 56.744 L 16.184 56.744 Q 16.184 56.177 15.942 55.893 L 15.942 55.893 L 15.942 55.893 Q 15.7 55.61 15.185 55.61 L 15.185 55.61 L 15.185 55.61 Q 14.51 55.61 14.196 56.015 L 14.196 56.015 L 14.196 56.015 Q 13.882 56.419 13.882 57.341 L 13.882 57.341 L 13.882 59.829 L 13.164 59.829 L 13.164 55.087 L 13.748 55.087 L 13.865 55.736 L 13.9 55.736 L 13.9 55.736 Q 14.103 55.389 14.473 55.195 L 14.473 55.195 L 14.473 55.195 Q 14.843 55 15.302 55 L 15.302 55 L 15.302 55 Q 16.414 55 16.755 55.805 L 16.755 55.805 L 16.79 55.805 L 16.79 55.805 Q 17.002 55.433 17.404 55.216 L 17.404 55.216 L 17.404 55.216 Q 17.807 55 18.322 55 L 18.322 55 L 18.322 55 Q 19.126 55 19.527 55.413 L 19.527 55.413 L 19.527 55.413 Q 19.927 55.826 19.927 56.735 L 19.927 56.735 L 19.927 59.829 L 19.927 59.829 Z  M 23.613 59.915 L 23.613 59.915 L 23.613 59.915 Q 23.15 59.915 22.767 59.744 L 22.767 59.744 L 22.767 59.744 Q 22.384 59.573 22.125 59.219 L 22.125 59.219 L 22.073 59.219 L 22.073 59.219 Q 22.125 59.634 22.125 60.006 L 22.125 60.006 L 22.125 61.957 L 21.407 61.957 L 21.407 55.087 L 21.991 55.087 L 22.09 55.736 L 22.125 55.736 L 22.125 55.736 Q 22.402 55.346 22.77 55.173 L 22.77 55.173 L 22.77 55.173 Q 23.137 55 23.613 55 L 23.613 55 L 23.613 55 Q 24.556 55 25.069 55.645 L 25.069 55.645 L 25.069 55.645 Q 25.582 56.289 25.582 57.453 L 25.582 57.453 L 25.582 57.453 Q 25.582 58.622 25.061 59.268 L 25.061 59.268 L 25.061 59.268 Q 24.539 59.915 23.613 59.915 Z  M 23.509 55.61 L 23.509 55.61 L 23.509 55.61 Q 22.782 55.61 22.458 56.012 L 22.458 56.012 L 22.458 56.012 Q 22.133 56.415 22.125 57.293 L 22.125 57.293 L 22.125 57.453 L 22.125 57.453 Q 22.125 58.453 22.458 58.883 L 22.458 58.883 L 22.458 58.883 Q 22.791 59.314 23.527 59.314 L 23.527 59.314 L 23.527 59.314 Q 24.141 59.314 24.489 58.816 L 24.489 58.816 L 24.489 58.816 Q 24.838 58.319 24.838 57.445 L 24.838 57.445 L 24.838 57.445 Q 24.838 56.558 24.489 56.084 L 24.489 56.084 L 24.489 56.084 Q 24.141 55.61 23.509 55.61 Z  M 26.785 55.087 L 27.512 55.087 L 27.512 58.163 L 27.512 58.163 Q 27.512 58.743 27.776 59.028 L 27.776 59.028 L 27.776 59.028 Q 28.04 59.314 28.602 59.314 L 28.602 59.314 L 28.602 59.314 Q 29.346 59.314 29.69 58.907 L 29.69 58.907 L 29.69 58.907 Q 30.034 58.5 30.034 57.579 L 30.034 57.579 L 30.034 55.087 L 30.752 55.087 L 30.752 59.829 L 30.16 59.829 L 30.056 59.193 L 30.017 59.193 L 30.017 59.193 Q 29.796 59.543 29.405 59.729 L 29.405 59.729 L 29.405 59.729 Q 29.013 59.915 28.511 59.915 L 28.511 59.915 L 28.511 59.915 Q 27.646 59.915 27.215 59.504 L 27.215 59.504 L 27.215 59.504 Q 26.785 59.093 26.785 58.189 L 26.785 58.189 L 26.785 55.087 L 26.785 55.087 Z  M 35.334 58.535 L 35.334 58.535 L 35.334 58.535 Q 35.334 59.197 34.841 59.556 L 34.841 59.556 L 34.841 59.556 Q 34.348 59.915 33.457 59.915 L 33.457 59.915 L 33.457 59.915 Q 32.513 59.915 31.986 59.617 L 31.986 59.617 L 31.986 58.95 L 31.986 58.95 Q 32.327 59.123 32.719 59.223 L 32.719 59.223 L 32.719 59.223 Q 33.11 59.322 33.474 59.322 L 33.474 59.322 L 33.474 59.322 Q 34.036 59.322 34.339 59.143 L 34.339 59.143 L 34.339 59.143 Q 34.642 58.963 34.642 58.596 L 34.642 58.596 L 34.642 58.596 Q 34.642 58.319 34.402 58.122 L 34.402 58.122 L 34.402 58.122 Q 34.162 57.925 33.465 57.657 L 33.465 57.657 L 33.465 57.657 Q 32.803 57.41 32.524 57.226 L 32.524 57.226 L 32.524 57.226 Q 32.245 57.042 32.109 56.809 L 32.109 56.809 L 32.109 56.809 Q 31.973 56.575 31.973 56.25 L 31.973 56.25 L 31.973 56.25 Q 31.973 55.671 32.444 55.335 L 32.444 55.335 L 32.444 55.335 Q 32.916 55 33.738 55 L 33.738 55 L 33.738 55 Q 34.504 55 35.235 55.312 L 35.235 55.312 L 34.98 55.896 L 34.98 55.896 Q 34.266 55.601 33.686 55.601 L 33.686 55.601 L 33.686 55.601 Q 33.175 55.601 32.916 55.762 L 32.916 55.762 L 32.916 55.762 Q 32.656 55.922 32.656 56.203 L 32.656 56.203 L 32.656 56.203 Q 32.656 56.393 32.754 56.527 L 32.754 56.527 L 32.754 56.527 Q 32.851 56.661 33.067 56.783 L 33.067 56.783 L 33.067 56.783 Q 33.284 56.904 33.898 57.133 L 33.898 57.133 L 33.898 57.133 Q 34.742 57.44 35.038 57.752 L 35.038 57.752 L 35.038 57.752 Q 35.334 58.063 35.334 58.535 Z " fill="rgb(245,245,245)"/><path d=" M 115.32 78.314 L 114.51 78.314 L 114.253 77.47 L 112.96 77.47 L 112.703 78.314 L 111.893 78.314 L 113.144 74.754 L 114.064 74.754 L 115.32 78.314 L 115.32 78.314 Z  M 113.149 76.84 L 114.073 76.84 L 114.073 76.84 Q 113.717 75.693 113.672 75.542 L 113.672 75.542 L 113.672 75.542 Q 113.627 75.392 113.608 75.305 L 113.608 75.305 L 113.608 75.305 Q 113.528 75.615 113.149 76.84 L 113.149 76.84 L 113.149 76.84 Z  M 117.956 78.314 L 115.766 78.314 L 115.766 74.769 L 116.518 74.769 L 116.518 77.694 L 117.956 77.694 L 117.956 78.314 L 117.956 78.314 Z  M 121.552 78.314 L 120.742 78.314 L 120.485 77.47 L 119.193 77.47 L 118.935 78.314 L 118.126 78.314 L 119.377 74.754 L 120.296 74.754 L 121.552 78.314 L 121.552 78.314 Z  M 119.382 76.84 L 120.306 76.84 L 120.306 76.84 Q 119.949 75.693 119.904 75.542 L 119.904 75.542 L 119.904 75.542 Q 119.859 75.392 119.84 75.305 L 119.84 75.305 L 119.84 75.305 Q 119.76 75.615 119.382 76.84 L 119.382 76.84 L 119.382 76.84 Z  M 123.344 76.949 L 123.344 76.323 L 124.751 76.323 L 124.751 78.162 L 124.751 78.162 Q 124.409 78.273 124.107 78.318 L 124.107 78.318 L 124.107 78.318 Q 123.805 78.363 123.49 78.363 L 123.49 78.363 L 123.49 78.363 Q 122.687 78.363 122.264 77.891 L 122.264 77.891 L 122.264 77.891 Q 121.841 77.419 121.841 76.537 L 121.841 76.537 L 121.841 76.537 Q 121.841 75.678 122.332 75.198 L 122.332 75.198 L 122.332 75.198 Q 122.823 74.718 123.693 74.718 L 123.693 74.718 L 123.693 74.718 Q 124.239 74.718 124.746 74.936 L 124.746 74.936 L 124.496 75.538 L 124.496 75.538 Q 124.108 75.344 123.689 75.344 L 123.689 75.344 L 123.689 75.344 Q 123.201 75.344 122.908 75.671 L 122.908 75.671 L 122.908 75.671 Q 122.614 75.998 122.614 76.551 L 122.614 76.551 L 122.614 76.551 Q 122.614 77.128 122.851 77.433 L 122.851 77.433 L 122.851 77.433 Q 123.087 77.737 123.538 77.737 L 123.538 77.737 L 123.538 77.737 Q 123.773 77.737 124.016 77.689 L 124.016 77.689 L 124.016 76.949 L 123.344 76.949 L 123.344 76.949 Z  M 128.813 76.537 L 128.813 76.537 L 128.813 76.537 Q 128.813 77.417 128.376 77.89 L 128.376 77.89 L 128.376 77.89 Q 127.94 78.363 127.125 78.363 L 127.125 78.363 L 127.125 78.363 Q 126.31 78.363 125.874 77.89 L 125.874 77.89 L 125.874 77.89 Q 125.437 77.417 125.437 76.532 L 125.437 76.532 L 125.437 76.532 Q 125.437 75.647 125.875 75.18 L 125.875 75.18 L 125.875 75.18 Q 126.313 74.713 127.13 74.713 L 127.13 74.713 L 127.13 74.713 Q 127.947 74.713 128.38 75.184 L 128.38 75.184 L 128.38 75.184 Q 128.813 75.654 128.813 76.537 Z  M 126.225 76.537 L 126.225 76.537 L 126.225 76.537 Q 126.225 77.131 126.451 77.432 L 126.451 77.432 L 126.451 77.432 Q 126.676 77.732 127.125 77.732 L 127.125 77.732 L 127.125 77.732 Q 128.025 77.732 128.025 76.537 L 128.025 76.537 L 128.025 76.537 Q 128.025 75.339 127.13 75.339 L 127.13 75.339 L 127.13 75.339 Q 126.681 75.339 126.453 75.641 L 126.453 75.641 L 126.453 75.641 Q 126.225 75.943 126.225 76.537 Z  M 132.528 78.314 L 131.718 78.314 L 131.461 77.47 L 130.168 77.47 L 129.911 78.314 L 129.101 78.314 L 130.353 74.754 L 131.272 74.754 L 132.528 78.314 L 132.528 78.314 Z  M 130.358 76.84 L 131.281 76.84 L 131.281 76.84 Q 130.925 75.693 130.88 75.542 L 130.88 75.542 L 130.88 75.542 Q 130.835 75.392 130.816 75.305 L 130.816 75.305 L 130.816 75.305 Q 130.736 75.615 130.358 76.84 L 130.358 76.84 L 130.358 76.84 Z  M 135.067 77.33 L 135.067 77.33 L 135.067 77.33 Q 135.067 77.81 134.721 78.086 L 134.721 78.086 L 134.721 78.086 Q 134.376 78.363 133.76 78.363 L 133.76 78.363 L 133.76 78.363 Q 133.192 78.363 132.756 78.149 L 132.756 78.149 L 132.756 77.451 L 132.756 77.451 Q 133.115 77.611 133.363 77.677 L 133.363 77.677 L 133.363 77.677 Q 133.612 77.742 133.818 77.742 L 133.818 77.742 L 133.818 77.742 Q 134.065 77.742 134.198 77.647 L 134.198 77.647 L 134.198 77.647 Q 134.33 77.553 134.33 77.366 L 134.33 77.366 L 134.33 77.366 Q 134.33 77.262 134.272 77.181 L 134.272 77.181 L 134.272 77.181 Q 134.213 77.099 134.101 77.024 L 134.101 77.024 L 134.101 77.024 Q 133.988 76.949 133.641 76.784 L 133.641 76.784 L 133.641 76.784 Q 133.316 76.631 133.154 76.491 L 133.154 76.491 L 133.154 76.491 Q 132.991 76.35 132.894 76.163 L 132.894 76.163 L 132.894 76.163 Q 132.797 75.977 132.797 75.727 L 132.797 75.727 L 132.797 75.727 Q 132.797 75.256 133.116 74.987 L 133.116 74.987 L 133.116 74.987 Q 133.435 74.718 133.998 74.718 L 133.998 74.718 L 133.998 74.718 Q 134.274 74.718 134.525 74.783 L 134.525 74.783 L 134.525 74.783 Q 134.776 74.849 135.05 74.968 L 135.05 74.968 L 134.807 75.552 L 134.807 75.552 Q 134.524 75.436 134.338 75.39 L 134.338 75.39 L 134.338 75.39 Q 134.153 75.344 133.973 75.344 L 133.973 75.344 L 133.973 75.344 Q 133.76 75.344 133.646 75.443 L 133.646 75.443 L 133.646 75.443 Q 133.532 75.542 133.532 75.703 L 133.532 75.703 L 133.532 75.703 Q 133.532 75.802 133.578 75.876 L 133.578 75.876 L 133.578 75.876 Q 133.624 75.95 133.725 76.019 L 133.725 76.019 L 133.725 76.019 Q 133.825 76.088 134.201 76.268 L 134.201 76.268 L 134.201 76.268 Q 134.698 76.505 134.883 76.744 L 134.883 76.744 L 134.883 76.744 Q 135.067 76.983 135.067 77.33 Z  M 107.533 76.508 L 107.533 76.508 L 107.533 76.508 Q 107.533 77.383 107.035 77.849 L 107.035 77.849 L 107.035 77.849 Q 106.536 78.314 105.595 78.314 L 105.595 78.314 L 104.591 78.314 L 104.591 74.769 L 105.704 74.769 L 105.704 74.769 Q 106.573 74.769 107.053 75.227 L 107.053 75.227 L 107.053 75.227 Q 107.533 75.686 107.533 76.508 Z  M 106.752 76.527 L 106.752 76.527 L 106.752 76.527 Q 106.752 75.385 105.743 75.385 L 105.743 75.385 L 105.343 75.385 L 105.343 77.694 L 105.666 77.694 L 105.666 77.694 Q 106.752 77.694 106.752 76.527 Z  M 110.31 77.694 L 110.31 78.314 L 108.268 78.314 L 108.268 74.769 L 110.31 74.769 L 110.31 75.385 L 109.019 75.385 L 109.019 76.163 L 110.22 76.163 L 110.22 76.779 L 109.019 76.779 L 109.019 77.694 L 110.31 77.694 L 110.31 77.694 Z  M 129.129 71.697 L 129.129 73.098 L 128.39 73.098 L 128.39 69.553 L 130.422 69.553 L 130.422 70.169 L 129.129 70.169 L 129.129 71.083 L 130.332 71.083 L 130.332 71.697 L 129.129 71.697 L 129.129 71.697 Z  M 133.157 72.477 L 133.157 73.098 L 131.115 73.098 L 131.115 69.553 L 133.157 69.553 L 133.157 70.169 L 131.867 70.169 L 131.867 70.947 L 133.068 70.947 L 133.068 71.563 L 131.867 71.563 L 131.867 72.477 L 133.157 72.477 L 133.157 72.477 Z  M 136.838 71.292 L 136.838 71.292 L 136.838 71.292 Q 136.838 72.167 136.34 72.633 L 136.34 72.633 L 136.34 72.633 Q 135.842 73.098 134.901 73.098 L 134.901 73.098 L 133.897 73.098 L 133.897 69.553 L 135.01 69.553 L 135.01 69.553 Q 135.878 69.553 136.358 70.011 L 136.358 70.011 L 136.358 70.011 Q 136.838 70.47 136.838 71.292 Z  M 136.058 71.311 L 136.058 71.311 L 136.058 71.311 Q 136.058 70.169 135.049 70.169 L 135.049 70.169 L 134.649 70.169 L 134.649 72.477 L 134.971 72.477 L 134.971 72.477 Q 136.058 72.477 136.058 71.311 Z  M 139.615 72.477 L 139.615 73.098 L 137.573 73.098 L 137.573 69.553 L 139.615 69.553 L 139.615 70.169 L 138.325 70.169 L 138.325 70.947 L 139.525 70.947 L 139.525 71.563 L 138.325 71.563 L 138.325 72.477 L 139.615 72.477 L 139.615 72.477 Z  M 141.107 70.169 L 141.107 71.127 L 141.349 71.127 L 141.349 71.127 Q 141.706 71.127 141.875 71.008 L 141.875 71.008 L 141.875 71.008 Q 142.045 70.889 142.045 70.634 L 142.045 70.634 L 142.045 70.634 Q 142.045 70.382 141.872 70.276 L 141.872 70.276 L 141.872 70.276 Q 141.698 70.169 141.335 70.169 L 141.335 70.169 L 141.107 70.169 L 141.107 70.169 Z  M 141.507 71.738 L 141.107 71.738 L 141.107 73.098 L 140.355 73.098 L 140.355 69.553 L 141.388 69.553 L 141.388 69.553 Q 142.111 69.553 142.457 69.816 L 142.457 69.816 L 142.457 69.816 Q 142.804 70.079 142.804 70.615 L 142.804 70.615 L 142.804 70.615 Q 142.804 70.928 142.632 71.172 L 142.632 71.172 L 142.632 71.172 Q 142.46 71.415 142.145 71.554 L 142.145 71.554 L 142.145 71.554 Q 142.945 72.749 143.187 73.098 L 143.187 73.098 L 142.353 73.098 L 141.507 71.738 L 141.507 71.738 Z  M 146.614 73.098 L 145.804 73.098 L 145.547 72.254 L 144.254 72.254 L 143.997 73.098 L 143.187 73.098 L 144.439 69.538 L 145.358 69.538 L 146.614 73.098 L 146.614 73.098 Z  M 144.443 71.624 L 145.367 71.624 L 145.367 71.624 Q 145.011 70.477 144.966 70.326 L 144.966 70.326 L 144.966 70.326 Q 144.921 70.176 144.902 70.089 L 144.902 70.089 L 144.902 70.089 Q 144.822 70.399 144.443 71.624 L 144.443 71.624 L 144.443 71.624 Z  M 149.25 73.098 L 147.06 73.098 L 147.06 69.553 L 147.812 69.553 L 147.812 72.477 L 149.25 72.477 L 149.25 73.098 L 149.25 73.098 Z  M 92.571 69.553 L 93.321 69.553 L 93.321 71.847 L 93.321 71.847 Q 93.321 72.24 93.145 72.536 L 93.145 72.536 L 93.145 72.536 Q 92.969 72.832 92.637 72.989 L 92.637 72.989 L 92.637 72.989 Q 92.305 73.147 91.851 73.147 L 91.851 73.147 L 91.851 73.147 Q 91.167 73.147 90.789 72.796 L 90.789 72.796 L 90.789 72.796 Q 90.411 72.446 90.411 71.837 L 90.411 71.837 L 90.411 69.553 L 91.16 69.553 L 91.16 71.723 L 91.16 71.723 Q 91.16 72.133 91.325 72.325 L 91.325 72.325 L 91.325 72.325 Q 91.49 72.516 91.871 72.516 L 91.871 72.516 L 91.871 72.516 Q 92.239 72.516 92.405 72.323 L 92.405 72.323 L 92.405 72.323 Q 92.571 72.131 92.571 71.718 L 92.571 71.718 L 92.571 69.553 L 92.571 69.553 Z  M 97.334 69.553 L 97.334 73.098 L 96.379 73.098 L 94.836 70.416 L 94.815 70.416 L 94.815 70.416 Q 94.861 71.127 94.861 71.43 L 94.861 71.43 L 94.861 73.098 L 94.189 73.098 L 94.189 69.553 L 95.137 69.553 L 96.677 72.208 L 96.694 72.208 L 96.694 72.208 Q 96.658 71.517 96.658 71.231 L 96.658 71.231 L 96.658 69.553 L 97.334 69.553 L 97.334 69.553 Z  M 98.978 73.098 L 98.227 73.098 L 98.227 69.553 L 98.978 69.553 L 98.978 73.098 L 98.978 73.098 Z  M 101.222 71.663 L 101.893 69.553 L 102.652 69.553 L 101.447 73.098 L 100.628 73.098 L 99.425 69.553 L 100.184 69.553 L 100.851 71.663 L 100.851 71.663 Q 100.906 71.849 100.966 72.098 L 100.966 72.098 L 100.966 72.098 Q 101.025 72.347 101.04 72.444 L 101.04 72.444 L 101.04 72.444 Q 101.066 72.22 101.222 71.663 L 101.222 71.663 L 101.222 71.663 Z  M 105.141 72.477 L 105.141 73.098 L 103.099 73.098 L 103.099 69.553 L 105.141 69.553 L 105.141 70.169 L 103.85 70.169 L 103.85 70.947 L 105.051 70.947 L 105.051 71.563 L 103.85 71.563 L 103.85 72.477 L 105.141 72.477 L 105.141 72.477 Z  M 106.632 70.169 L 106.632 71.127 L 106.874 71.127 L 106.874 71.127 Q 107.231 71.127 107.401 71.008 L 107.401 71.008 L 107.401 71.008 Q 107.57 70.889 107.57 70.634 L 107.57 70.634 L 107.57 70.634 Q 107.57 70.382 107.397 70.276 L 107.397 70.276 L 107.397 70.276 Q 107.224 70.169 106.86 70.169 L 106.86 70.169 L 106.632 70.169 L 106.632 70.169 Z  M 107.032 71.738 L 106.632 71.738 L 106.632 73.098 L 105.88 73.098 L 105.88 69.553 L 106.913 69.553 L 106.913 69.553 Q 107.636 69.553 107.983 69.816 L 107.983 69.816 L 107.983 69.816 Q 108.329 70.079 108.329 70.615 L 108.329 70.615 L 108.329 70.615 Q 108.329 70.928 108.157 71.172 L 108.157 71.172 L 108.157 71.172 Q 107.985 71.415 107.67 71.554 L 107.67 71.554 L 107.67 71.554 Q 108.47 72.749 108.713 73.098 L 108.713 73.098 L 107.878 73.098 L 107.032 71.738 L 107.032 71.738 Z  M 111.252 72.114 L 111.252 72.114 L 111.252 72.114 Q 111.252 72.594 110.906 72.87 L 110.906 72.87 L 110.906 72.87 Q 110.561 73.147 109.945 73.147 L 109.945 73.147 L 109.945 73.147 Q 109.377 73.147 108.941 72.933 L 108.941 72.933 L 108.941 72.235 L 108.941 72.235 Q 109.3 72.395 109.548 72.461 L 109.548 72.461 L 109.548 72.461 Q 109.797 72.526 110.003 72.526 L 110.003 72.526 L 110.003 72.526 Q 110.25 72.526 110.382 72.431 L 110.382 72.431 L 110.382 72.431 Q 110.514 72.337 110.514 72.15 L 110.514 72.15 L 110.514 72.15 Q 110.514 72.046 110.456 71.965 L 110.456 71.965 L 110.456 71.965 Q 110.398 71.883 110.285 71.808 L 110.285 71.808 L 110.285 71.808 Q 110.173 71.733 109.826 71.568 L 109.826 71.568 L 109.826 71.568 Q 109.501 71.415 109.338 71.275 L 109.338 71.275 L 109.338 71.275 Q 109.176 71.134 109.079 70.947 L 109.079 70.947 L 109.079 70.947 Q 108.982 70.761 108.982 70.511 L 108.982 70.511 L 108.982 70.511 Q 108.982 70.04 109.301 69.771 L 109.301 69.771 L 109.301 69.771 Q 109.62 69.502 110.182 69.502 L 110.182 69.502 L 110.182 69.502 Q 110.459 69.502 110.71 69.567 L 110.71 69.567 L 110.71 69.567 Q 110.961 69.633 111.235 69.752 L 111.235 69.752 L 110.992 70.336 L 110.992 70.336 Q 110.708 70.22 110.523 70.174 L 110.523 70.174 L 110.523 70.174 Q 110.337 70.128 110.158 70.128 L 110.158 70.128 L 110.158 70.128 Q 109.945 70.128 109.831 70.227 L 109.831 70.227 L 109.831 70.227 Q 109.717 70.326 109.717 70.487 L 109.717 70.487 L 109.717 70.487 Q 109.717 70.586 109.763 70.66 L 109.763 70.66 L 109.763 70.66 Q 109.809 70.734 109.909 70.803 L 109.909 70.803 L 109.909 70.803 Q 110.01 70.872 110.386 71.052 L 110.386 71.052 L 110.386 71.052 Q 110.883 71.289 111.067 71.528 L 111.067 71.528 L 111.067 71.528 Q 111.252 71.767 111.252 72.114 Z  M 112.646 73.098 L 111.894 73.098 L 111.894 69.553 L 112.646 69.553 L 112.646 73.098 L 112.646 73.098 Z  M 116.48 71.292 L 116.48 71.292 L 116.48 71.292 Q 116.48 72.167 115.982 72.633 L 115.982 72.633 L 115.982 72.633 Q 115.483 73.098 114.542 73.098 L 114.542 73.098 L 113.539 73.098 L 113.539 69.553 L 114.652 69.553 L 114.652 69.553 Q 115.52 69.553 116 70.011 L 116 70.011 L 116 70.011 Q 116.48 70.47 116.48 71.292 Z  M 115.699 71.311 L 115.699 71.311 L 115.699 71.311 Q 115.699 70.169 114.69 70.169 L 114.69 70.169 L 114.29 70.169 L 114.29 72.477 L 114.613 72.477 L 114.613 72.477 Q 115.699 72.477 115.699 71.311 Z  M 120.195 73.098 L 119.385 73.098 L 119.128 72.254 L 117.836 72.254 L 117.579 73.098 L 116.769 73.098 L 118.02 69.538 L 118.939 69.538 L 120.195 73.098 L 120.195 73.098 Z  M 118.025 71.624 L 118.949 71.624 L 118.949 71.624 Q 118.592 70.477 118.547 70.326 L 118.547 70.326 L 118.547 70.326 Q 118.503 70.176 118.483 70.089 L 118.483 70.089 L 118.483 70.089 Q 118.403 70.399 118.025 71.624 L 118.025 71.624 L 118.025 71.624 Z  M 123.583 71.292 L 123.583 71.292 L 123.583 71.292 Q 123.583 72.167 123.085 72.633 L 123.085 72.633 L 123.085 72.633 Q 122.586 73.098 121.645 73.098 L 121.645 73.098 L 120.642 73.098 L 120.642 69.553 L 121.755 69.553 L 121.755 69.553 Q 122.623 69.553 123.103 70.011 L 123.103 70.011 L 123.103 70.011 Q 123.583 70.47 123.583 71.292 Z  M 122.802 71.311 L 122.802 71.311 L 122.802 71.311 Q 122.802 70.169 121.793 70.169 L 121.793 70.169 L 121.393 70.169 L 121.393 72.477 L 121.716 72.477 L 121.716 72.477 Q 122.802 72.477 122.802 71.311 Z  M 126.36 72.477 L 126.36 73.098 L 124.318 73.098 L 124.318 69.553 L 126.36 69.553 L 126.36 70.169 L 125.07 70.169 L 125.07 70.947 L 126.27 70.947 L 126.27 71.563 L 125.07 71.563 L 125.07 72.477 L 126.36 72.477 L 126.36 72.477 Z " fill="rgb(245,245,245)"/><path d=" M 132.153 17.099 L 130.016 63.689 C 129.523 64.892 128.995 64.978 128.402 63.909 L 125.586 17.099 L 132.153 17.099 L 132.153 17.099 Z " fill-rule="evenodd" fill="rgb(0,149,218)"/><path d=" M 121.906 17.099 L 119.769 63.689 C 119.277 64.892 118.748 64.978 118.155 63.909 L 115.339 17.099 L 121.906 17.099 L 121.906 17.099 Z " fill-rule="evenodd" fill="rgb(0,149,218)"/><path d=" M 111.616 17.099 L 109.479 63.689 C 108.986 64.892 108.458 64.978 107.865 63.909 L 105.049 17.099 L 111.616 17.099 L 111.616 17.099 Z " fill-rule="evenodd" fill="rgb(0,149,218)"/><path d=" M 107.069 50.972 L 106.496 50.846 L 106.078 50.773 L 105.668 50.718 L 105.266 50.682 L 104.874 50.661 L 104.49 50.657 L 104.118 50.666 L 103.756 50.689 L 103.407 50.723 L 103.07 50.768 L 102.747 50.823 L 102.438 50.886 L 102.144 50.957 L 101.865 51.034 L 101.602 51.116 L 100.748 51.416 L 101.625 51.682 L 101.873 51.764 L 102.116 51.851 L 102.353 51.942 L 102.586 52.039 L 102.813 52.14 L 103.037 52.247 L 103.256 52.36 L 103.471 52.477 L 103.683 52.6 L 103.891 52.729 L 104.096 52.865 L 104.299 53.006 L 104.499 53.153 L 104.697 53.307 L 104.779 53.375 L 104.753 53.449 L 104.663 53.646 L 104.552 53.842 L 104.419 54.043 L 104.263 54.255 L 104.081 54.485 L 103.873 54.737 L 103.027 55.746 L 104.099 55.248 L 104.302 55.16 L 104.506 55.079 L 104.709 55.002 L 104.912 54.931 L 105.114 54.863 L 105.317 54.799 L 105.519 54.738 L 105.722 54.677 L 105.925 54.619 L 106.13 54.56 L 106.334 54.501 L 106.539 54.44 L 106.745 54.378 L 106.952 54.313 L 107.317 54.194 L 107.069 50.972 L 107.069 50.972 Z " fill-rule="evenodd" fill="rgb(35,31,32)"/><path d=" M 106.87 51.145 C 104.638 50.606 102.657 50.947 101.43 51.401 C 102.825 51.809 103.969 52.415 105.029 53.305 C 104.843 53.921 104.462 54.366 103.801 55.152 C 104.926 54.613 105.996 54.414 107.093 54.044 L 106.87 51.145 Z " fill-rule="evenodd" fill="rgb(237,28,36)"/><path d=" M 131.066 50.609 L 131.387 50.593 L 131.712 50.583 L 132.043 50.583 L 132.379 50.595 L 132.722 50.621 L 133.072 50.664 L 133.43 50.726 L 133.797 50.81 L 134.173 50.917 L 134.56 51.051 L 134.957 51.214 L 135.365 51.407 L 136.257 51.887 L 135.498 52.084 L 135.268 52.148 L 135.043 52.217 L 134.823 52.289 L 134.607 52.365 L 134.396 52.446 L 134.189 52.53 L 133.986 52.619 L 133.788 52.711 L 133.594 52.807 L 133.404 52.908 L 133.218 53.013 L 133.036 53.123 L 132.857 53.236 L 132.683 53.354 L 132.621 53.399 L 132.639 53.491 L 132.697 53.699 L 132.771 53.901 L 132.859 54.1 L 132.962 54.297 L 133.077 54.496 L 133.205 54.699 L 133.708 55.453 L 132.902 55.155 L 132.71 55.085 L 132.52 55.017 L 132.332 54.95 L 132.145 54.885 L 131.958 54.822 L 131.773 54.76 L 131.588 54.7 L 131.403 54.641 L 131.218 54.584 L 131.033 54.528 L 130.846 54.474 L 130.659 54.422 L 130.47 54.371 L 130.279 54.322 L 129.924 54.234 L 129.924 50.694 L 130.435 50.655 L 130.749 50.631 L 131.066 50.61 L 131.066 50.609 Z " fill-rule="evenodd" fill="rgb(35,31,32)"/><path d=" M 130.136 50.89 C 131.81 50.769 133.452 50.548 135.68 51.817 C 134.397 52.137 133.31 52.622 132.386 53.306 C 132.484 53.946 132.778 54.453 133.169 55.027 C 132.126 54.641 131.18 54.321 130.136 54.067 L 130.136 50.89 L 130.136 50.89 Z " fill-rule="evenodd" fill="rgb(237,28,36)"/><path d=" M 132.987 15.754 L 132.785 16.388 L 132.184 16.858 L 132.184 16.83 L 125.138 16.83 L 124.605 16.441 L 124.502 15.754 L 132.987 15.754 L 132.987 15.754 Z " fill-rule="evenodd" fill="rgb(0,149,218)"/><path d=" M 133.482 14.108 L 133.515 14.142 L 133.51 15.177 L 133.344 15.389 L 124.278 15.389 L 124.072 15.159 L 124.074 14.178 L 124.156 14.108 L 133.481 14.108 L 133.482 14.108 Z " fill-rule="evenodd" fill="rgb(0,149,218)"/><path d=" M 124.648 12.522 L 132.975 12.522 L 133.168 13.743 L 124.502 13.743 L 124.648 12.522 Z " fill-rule="evenodd" fill="rgb(0,149,218)"/><path d=" M 123.235 14.108 L 123.268 14.142 L 123.263 15.177 L 123.097 15.389 L 114.031 15.389 L 113.825 15.159 L 113.827 14.178 L 113.909 14.108 L 123.235 14.108 L 123.235 14.108 Z " fill-rule="evenodd" fill="rgb(0,149,218)"/><path d=" M 114.401 12.522 L 122.728 12.522 L 122.921 13.743 L 114.255 13.743 L 114.401 12.522 L 114.401 12.522 Z " fill-rule="evenodd" fill="rgb(0,149,218)"/><path d=" M 120.27 17.994 L 119.889 28.086 L 119.509 38.176 C 119.506 38.494 119.949 38.543 119.976 38.132 L 121.276 18 C 121.176 17.511 120.541 17.471 120.27 17.994 L 120.27 17.994 Z " fill-rule="evenodd" fill="rgb(255,255,255)"/><path d=" M 118.122 18.278 L 118.536 27.775 L 118.95 37.272 C 118.971 37.57 119.347 37.579 119.339 37.192 L 118.968 18.2 C 118.848 17.75 118.312 17.765 118.122 18.278 Z " fill-rule="evenodd" fill="rgb(255,255,255)"/><path d=" M 116.231 18.187 L 117.136 27.154 L 118.041 36.12 C 118.078 36.402 118.454 36.392 118.426 36.025 L 117.071 18.07 C 116.929 17.65 116.394 17.691 116.231 18.187 Z " fill-rule="evenodd" fill="rgb(255,255,255)"/><path d=" M 122.829 15.754 L 122.628 16.388 L 122.027 16.858 L 122.027 16.83 L 114.981 16.83 L 114.448 16.441 L 114.344 15.754 L 122.829 15.754 L 122.829 15.754 Z " fill-rule="evenodd" fill="rgb(0,149,218)"/><path d=" M 128.349 18.804 L 128.763 38.816 L 129.177 58.827 C 129.198 59.456 129.574 59.475 129.566 58.658 L 129.194 18.639 C 129.075 17.69 128.539 17.722 128.349 18.804 L 128.349 18.804 Z " fill-rule="evenodd" fill="rgb(255,255,255)"/><path d=" M 126.457 18.8 L 127.363 39.005 L 128.268 59.21 C 128.305 59.844 128.68 59.821 128.653 58.995 L 127.298 18.538 C 127.155 17.591 126.62 17.683 126.457 18.8 Z " fill-rule="evenodd" fill="rgb(255,255,255)"/><path d=" M 109.925 18.64 L 109.544 38.885 L 109.163 59.131 C 109.161 59.769 109.604 59.866 109.63 59.041 L 110.93 18.651 C 110.831 17.67 110.196 17.59 109.925 18.64 L 109.925 18.64 Z " fill-rule="evenodd" fill="rgb(255,255,255)"/><path d=" M 107.777 18.997 L 108.191 39.294 L 108.605 59.592 C 108.626 60.23 109.002 60.249 108.994 59.42 L 108.622 18.83 C 108.503 17.868 107.967 17.9 107.777 18.997 L 107.777 18.997 Z " fill-rule="evenodd" fill="rgb(255,255,255)"/><path d=" M 105.886 18.975 L 106.791 39.142 L 107.696 59.31 C 107.733 59.943 108.109 59.92 108.081 59.095 L 106.726 18.713 C 106.584 17.768 106.048 17.861 105.886 18.975 L 105.886 18.975 Z " fill-rule="evenodd" fill="rgb(255,255,255)"/><path d=" M 130.497 18.46 L 130.116 38.662 L 129.735 58.864 C 129.733 59.501 130.176 59.598 130.202 58.775 L 131.502 18.471 C 131.403 17.493 130.768 17.412 130.497 18.46 L 130.497 18.46 Z " fill-rule="evenodd" fill="rgb(255,255,255)"/><path d=" M 112.539 15.754 L 112.338 16.388 L 111.736 16.858 L 111.736 16.83 L 104.691 16.83 L 104.158 16.441 L 104.054 15.754 L 112.539 15.754 L 112.539 15.754 Z " fill-rule="evenodd" fill="rgb(0,149,218)"/><path d=" M 112.945 14.108 L 112.978 14.142 L 112.973 15.177 L 112.807 15.389 L 103.741 15.389 L 103.535 15.159 L 103.537 14.178 L 103.619 14.108 L 112.945 14.108 L 112.945 14.108 Z " fill-rule="evenodd" fill="rgb(0,149,218)"/><path d=" M 104.111 12.522 L 112.437 12.522 L 112.631 13.743 L 103.965 13.743 L 104.111 12.522 L 104.111 12.522 Z " fill-rule="evenodd" fill="rgb(0,149,218)"/><path d=" M 136.895 58.307 L 136.791 57.856 L 136.678 57.539 L 136.531 57.238 L 136.353 56.954 L 136.148 56.685 L 135.918 56.431 L 135.664 56.192 L 135.39 55.967 L 135.098 55.754 L 134.789 55.554 L 134.467 55.364 L 134.132 55.186 L 133.787 55.017 L 133.434 54.857 L 133.075 54.706 L 132.712 54.564 L 132.347 54.428 L 131.982 54.3 L 131.619 54.177 L 131.26 54.061 L 130.908 53.95 L 130.564 53.844 L 130.231 53.742 L 129.909 53.644 L 129.603 53.549 L 129.314 53.457 L 129.043 53.368 L 128.795 53.281 L 128.57 53.196 L 128.372 53.112 L 128.204 53.031 L 127.937 52.878 L 126.53 53.947 L 126.518 54.258 L 126.521 54.484 L 126.536 54.719 L 126.562 54.959 L 126.597 55.202 L 126.641 55.445 L 126.693 55.686 L 126.753 55.923 L 126.82 56.152 L 126.892 56.372 L 126.971 56.581 L 127.054 56.775 L 127.144 56.953 L 127.238 57.113 L 127.339 57.254 L 127.485 57.411 L 127.983 57.501 L 128.392 57.584 L 128.786 57.672 L 129.168 57.766 L 129.537 57.866 L 129.895 57.971 L 130.245 58.083 L 130.587 58.201 L 130.923 58.326 L 131.255 58.457 L 131.584 58.594 L 131.911 58.739 L 132.238 58.891 L 132.566 59.05 L 132.898 59.217 L 133.282 59.417 L 133.626 59.411 L 133.908 59.399 L 134.179 59.377 L 134.439 59.348 L 134.689 59.31 L 134.928 59.265 L 135.157 59.211 L 135.375 59.15 L 135.585 59.08 L 135.785 59.003 L 135.976 58.918 L 136.157 58.826 L 136.33 58.726 L 136.494 58.619 L 136.65 58.506 L 136.894 58.306 L 136.895 58.307 Z " fill-rule="evenodd" fill="rgb(35,31,32)"/><path d=" M 136.658 58.226 C 136.082 54.845 129.41 54.067 127.953 53.132 L 126.738 54.056 C 126.662 55.11 127.115 56.78 127.593 57.215 C 129.93 57.617 131.517 58.248 133.332 59.204 C 134.897 59.204 135.941 58.845 136.658 58.226 L 136.658 58.226 Z " fill-rule="evenodd" fill="rgb(237,28,36)"/><path d=" M 99.919 58.795 L 99.935 58.343 L 99.998 58.006 L 100.107 57.684 L 100.258 57.376 L 100.449 57.082 L 100.674 56.803 L 100.931 56.537 L 101.215 56.284 L 101.526 56.043 L 101.859 55.815 L 102.213 55.597 L 102.583 55.391 L 102.969 55.195 L 103.366 55.01 L 103.773 54.836 L 104.187 54.672 L 104.605 54.517 L 105.024 54.373 L 105.441 54.238 L 105.855 54.114 L 106.261 53.999 L 106.659 53.893 L 107.043 53.797 L 107.413 53.711 L 107.766 53.633 L 108.098 53.565 L 108.406 53.506 L 108.69 53.457 L 108.945 53.416 L 109.169 53.384 L 109.36 53.361 L 109.593 53.34 L 110.82 54.257 L 110.808 54.522 L 110.799 54.679 L 110.788 54.84 L 110.774 55.005 L 110.757 55.173 L 110.736 55.345 L 110.71 55.521 L 110.679 55.702 L 110.643 55.885 L 110.6 56.073 L 110.55 56.265 L 110.492 56.461 L 110.427 56.661 L 110.352 56.865 L 110.269 57.073 L 110.141 57.364 L 109.684 57.532 L 109.295 57.657 L 108.898 57.772 L 108.496 57.879 L 108.092 57.983 L 107.688 58.085 L 107.289 58.19 L 106.896 58.301 L 106.513 58.418 L 106.144 58.548 L 105.792 58.69 L 105.458 58.849 L 105.148 59.026 L 104.863 59.225 L 104.605 59.447 L 104.307 59.772 L 104.027 59.782 L 103.816 59.787 L 103.589 59.788 L 103.348 59.786 L 103.094 59.776 L 102.83 59.76 L 102.558 59.734 L 102.278 59.698 L 101.993 59.65 L 101.705 59.589 L 101.416 59.512 L 101.127 59.42 L 100.84 59.309 L 100.558 59.18 L 100.281 59.029 L 99.919 58.795 L 99.919 58.795 Z " fill-rule="evenodd" fill="rgb(35,31,32)"/><path d=" M 100.136 58.682 C 99.997 55.251 108.148 53.656 109.531 53.559 L 110.603 54.36 C 110.569 55.162 110.492 56.088 109.984 57.197 C 108.06 57.957 105.438 58.049 104.212 59.563 C 103.244 59.604 101.466 59.617 100.136 58.682 L 100.136 58.682 Z " fill-rule="evenodd" fill="rgb(237,28,36)"/><path d=" M 102.777 21.27 L 134.392 21.27 L 134.392 42.284 L 134.363 42.937 L 134.29 43.593 L 134.173 44.245 L 134.015 44.893 L 133.818 45.535 L 133.582 46.171 L 133.31 46.8 L 133.003 47.421 L 132.663 48.034 L 132.291 48.639 L 131.888 49.234 L 131.457 49.82 L 130.998 50.394 L 130.512 50.958 L 130.002 51.51 L 129.469 52.049 L 128.914 52.575 L 128.338 53.087 L 127.743 53.585 L 127.131 54.068 L 126.501 54.536 L 125.857 54.987 L 125.199 55.42 L 124.528 55.837 L 123.846 56.234 L 123.154 56.613 L 122.455 56.972 L 121.747 57.311 L 121.035 57.628 L 120.318 57.923 L 119.597 58.196 L 118.751 58.489 L 117.664 58.16 L 116.728 57.84 L 115.822 57.493 L 114.944 57.122 L 114.094 56.725 L 113.274 56.307 L 112.484 55.867 L 111.722 55.409 L 110.991 54.932 L 110.289 54.439 L 109.618 53.931 L 108.976 53.41 L 108.365 52.877 L 107.785 52.334 L 107.235 51.782 L 106.716 51.223 L 106.229 50.658 L 105.773 50.088 L 105.348 49.516 L 104.955 48.942 L 104.593 48.368 L 104.264 47.796 L 103.967 47.227 L 103.701 46.662 L 103.47 46.103 L 103.27 45.551 L 103.104 45.007 L 102.972 44.472 L 102.873 43.949 L 102.809 43.438 L 102.78 42.94 L 102.786 42.477 L 102.777 21.27 L 102.777 21.27 Z " fill-rule="evenodd" fill="rgb(35,31,32)"/><path d=" M 103.202 21.694 L 133.968 21.694 L 133.968 42.275 C 133.903 48.998 126.319 55.551 118.742 58.043 C 108.47 55.142 102.966 47.191 103.21 42.48 L 103.202 21.694 L 103.202 21.694 Z " fill-rule="evenodd" fill="rgb(255,255,255)"/><path d=" M 102.777 21.27 L 134.392 21.27 L 134.392 30.427 L 134.331 30.664 L 134.184 30.884 L 134.005 31.066 L 133.797 31.232 L 133.559 31.393 L 133.294 31.549 L 133.006 31.701 L 132.699 31.846 L 132.379 31.985 L 132.048 32.113 L 131.713 32.23 L 131.379 32.331 L 131.049 32.416 L 130.728 32.481 L 130.419 32.524 L 130.118 32.54 L 129.82 32.517 L 129.526 32.451 L 129.246 32.354 L 128.975 32.232 L 128.714 32.093 L 128.459 31.942 L 128.211 31.784 L 127.968 31.625 L 127.731 31.47 L 127.498 31.322 L 127.272 31.187 L 127.053 31.071 L 126.843 30.976 L 126.643 30.907 L 126.455 30.865 L 126.28 30.85 L 126.105 30.866 L 125.919 30.909 L 125.72 30.981 L 125.509 31.079 L 125.291 31.2 L 125.064 31.339 L 124.832 31.491 L 124.594 31.652 L 124.351 31.816 L 124.102 31.978 L 123.848 32.134 L 123.586 32.277 L 123.315 32.402 L 123.033 32.502 L 122.737 32.569 L 122.435 32.592 L 122.133 32.571 L 121.839 32.506 L 121.557 32.41 L 121.286 32.288 L 121.025 32.15 L 120.77 31.998 L 120.521 31.84 L 120.278 31.68 L 120.041 31.524 L 119.808 31.376 L 119.582 31.24 L 119.363 31.123 L 119.153 31.028 L 118.953 30.958 L 118.765 30.916 L 118.588 30.902 L 118.413 30.916 L 118.227 30.958 L 118.029 31.029 L 117.819 31.126 L 117.601 31.246 L 117.375 31.385 L 117.143 31.537 L 116.905 31.698 L 116.662 31.863 L 116.414 32.026 L 116.16 32.182 L 115.897 32.326 L 115.627 32.452 L 115.344 32.552 L 115.048 32.62 L 114.744 32.643 L 114.441 32.619 L 114.147 32.553 L 113.867 32.456 L 113.596 32.335 L 113.335 32.196 L 113.08 32.045 L 112.832 31.887 L 112.589 31.727 L 112.352 31.572 L 112.119 31.424 L 111.893 31.29 L 111.674 31.173 L 111.464 31.079 L 111.264 31.009 L 111.076 30.967 L 110.901 30.953 L 110.726 30.968 L 110.538 31.011 L 110.339 31.082 L 110.129 31.179 L 109.91 31.298 L 109.683 31.435 L 109.452 31.586 L 109.214 31.745 L 108.971 31.908 L 108.723 32.069 L 108.469 32.224 L 108.208 32.367 L 107.939 32.493 L 107.658 32.595 L 107.365 32.665 L 107.065 32.694 L 106.754 32.68 L 106.438 32.644 L 106.113 32.587 L 105.779 32.513 L 105.443 32.423 L 105.108 32.318 L 104.778 32.202 L 104.458 32.074 L 104.153 31.937 L 103.867 31.791 L 103.603 31.638 L 103.365 31.475 L 103.156 31.3 L 102.978 31.105 L 102.839 30.869 L 102.786 30.624 L 102.777 21.27 L 102.777 21.27 Z " fill-rule="evenodd" fill="rgb(35,31,32)"/><path d=" M 103.202 21.694 L 133.968 21.694 L 133.968 30.374 C 133.963 30.954 131.405 32.109 130.123 32.115 C 128.841 32.114 127.56 30.426 126.278 30.425 C 124.997 30.431 123.715 32.171 122.434 32.166 C 121.152 32.177 119.87 30.477 118.589 30.476 C 117.307 30.471 116.026 32.223 114.744 32.217 C 113.463 32.216 112.181 30.528 110.9 30.527 C 109.618 30.533 108.336 32.247 107.055 32.269 C 105.693 32.264 103.215 31.275 103.21 30.578 L 103.202 21.694 L 103.202 21.694 Z " fill-rule="evenodd" fill="rgb(0,149,218)"/><path d=" M 122.862 28.872 C 122.534 28.584 122.147 28.464 121.682 28.564 C 122.095 28.131 122.889 27.577 123.909 27.283 C 124.554 26.965 124.851 26.265 126.708 26.53 C 126.423 26.689 126.165 26.92 126.149 27.222 C 127.345 27.297 128.837 27.703 129.683 28.038 C 130.202 27.504 130.255 27.095 131.634 27.089 C 131.27 27.42 130.781 27.732 130.65 28.206 C 131.013 28.657 131.225 29.235 131.741 29.561 C 130.631 29.625 130.328 28.881 129.622 28.542 C 128.964 28.707 128.969 28.926 127.46 29.154 C 127.667 29.34 127.901 29.526 128.161 29.685 C 128.05 29.682 127.951 29.691 127.855 29.7 C 127.484 29.654 127.128 29.449 126.779 29.189 C 126.933 29.467 127.137 29.655 127.387 29.732 C 127.121 29.725 126.789 29.657 126.264 29.41 C 125.001 29.746 123.585 29.715 121.727 28.715 C 122.002 28.641 122.408 28.727 122.862 28.872 L 122.862 28.872 Z  M 122.835 28.079 C 122.908 28.079 122.967 28.139 122.967 28.214 C 122.967 28.288 122.908 28.349 122.835 28.349 C 122.761 28.349 122.702 28.288 122.702 28.214 C 122.702 28.139 122.761 28.079 122.835 28.079 Z " fill-rule="evenodd" fill="rgb(255,255,255)"/><path d=" M 115.73 25.576 C 115.457 25.295 115.081 25.165 114.555 25.254 C 114.983 24.83 115.83 24.321 116.832 24.031 C 117.477 23.713 117.648 23.068 119.505 23.315 C 119.219 23.474 119.016 23.632 119 23.934 C 120.196 24.1 121.779 24.451 122.68 24.713 C 123.198 24.179 123.36 23.734 124.667 23.511 C 124.303 23.841 123.795 24.426 123.665 24.899 C 124.028 25.351 124.857 25.456 125.391 25.656 C 124.245 26.137 123.524 25.63 122.8 25.181 C 122.142 25.346 121.82 25.637 120.311 25.866 C 120.518 26.052 120.752 26.238 121.012 26.397 C 120.848 26.394 120.709 26.411 120.569 26.426 C 120.279 26.384 119.982 26.19 119.684 25.964 C 119.833 26.211 119.98 26.394 120.121 26.437 C 119.874 26.415 119.567 26.335 119.115 26.122 C 117.848 26.459 116.425 26.427 114.558 25.416 C 114.89 25.344 115.302 25.442 115.73 25.576 L 115.73 25.576 Z  M 115.686 24.791 C 115.759 24.791 115.819 24.851 115.819 24.926 C 115.819 25 115.759 25.061 115.686 25.061 C 115.612 25.061 115.553 25 115.553 24.926 C 115.553 24.851 115.612 24.791 115.686 24.791 Z " fill-rule="evenodd" fill="rgb(255,255,255)"/><path d=" M 107.719 28.945 C 107.392 28.677 107.022 28.526 106.559 28.632 C 106.955 28.199 107.662 27.676 108.707 27.373 C 109.352 27.056 109.65 26.356 111.507 26.621 C 111.222 26.78 110.964 27.011 110.947 27.313 C 112.144 27.388 113.636 27.794 114.482 28.129 C 115.001 27.594 115.272 27.095 116.651 27.089 C 116.287 27.42 115.689 27.877 115.449 28.296 C 115.812 28.748 116.369 29.198 116.884 29.525 C 115.775 29.588 115.236 29.008 114.529 28.669 C 113.872 28.834 113.768 29.016 112.259 29.244 C 112.466 29.43 112.699 29.617 112.96 29.776 C 112.786 29.772 112.642 29.792 112.494 29.807 C 112.281 29.781 111.973 29.606 111.568 29.285 C 111.718 29.562 111.911 29.747 112.154 29.822 C 111.893 29.811 111.569 29.739 111.062 29.501 C 109.807 29.835 108.503 29.755 106.667 28.769 C 106.974 28.735 107.338 28.823 107.719 28.945 L 107.719 28.945 Z  M 107.978 27.988 C 108.052 27.988 108.111 28.049 108.111 28.123 C 108.111 28.198 108.052 28.258 107.978 28.258 C 107.905 28.258 107.845 28.198 107.845 28.123 C 107.845 28.049 107.905 27.988 107.978 27.988 Z " fill-rule="evenodd" fill="rgb(255,255,255)"/><path d=" M 99.993 58.303 L 100.575 58.649 L 100.889 58.802 L 101.223 58.933 L 101.577 59.043 L 101.952 59.134 L 102.348 59.205 L 102.763 59.259 L 103.197 59.295 L 103.651 59.315 L 104.124 59.32 L 104.615 59.31 L 105.124 59.287 L 105.651 59.252 L 106.195 59.206 L 106.757 59.15 L 107.334 59.084 L 107.929 59.011 L 108.54 58.931 L 109.166 58.845 L 109.807 58.754 L 110.464 58.659 L 111.136 58.563 L 111.822 58.464 L 112.522 58.366 L 113.236 58.268 L 113.964 58.172 L 114.705 58.079 L 115.459 57.991 L 116.226 57.907 L 117.005 57.83 L 117.797 57.76 L 118.609 57.698 L 119.198 57.71 L 119.803 57.736 L 120.427 57.774 L 121.07 57.824 L 121.727 57.882 L 122.398 57.949 L 123.08 58.023 L 123.77 58.103 L 124.467 58.185 L 125.166 58.27 L 125.868 58.356 L 126.567 58.442 L 127.264 58.526 L 127.954 58.607 L 128.635 58.683 L 129.306 58.753 L 129.963 58.815 L 130.604 58.868 L 131.227 58.91 L 131.829 58.941 L 132.407 58.959 L 132.959 58.962 L 133.483 58.95 L 133.975 58.92 L 134.432 58.871 L 134.853 58.803 L 135.234 58.715 L 135.571 58.606 L 135.862 58.477 L 136.106 58.328 L 136.3 58.159 L 136.711 57.634 L 136.888 58.205 L 136.935 58.398 L 136.972 58.596 L 136.996 58.796 L 137.007 59 L 137.003 59.206 L 136.986 59.414 L 136.952 59.629 L 136.775 60.247 L 136.564 60.796 L 136.317 61.284 L 136.034 61.712 L 135.717 62.083 L 135.365 62.399 L 134.983 62.662 L 134.572 62.874 L 134.134 63.038 L 133.671 63.159 L 133.184 63.24 L 132.674 63.286 L 132.142 63.299 L 131.589 63.285 L 131.015 63.245 L 130.42 63.185 L 129.806 63.106 L 129.172 63.013 L 128.521 62.908 L 127.851 62.795 L 127.164 62.677 L 126.461 62.557 L 125.742 62.439 L 125.008 62.326 L 124.261 62.219 L 123.5 62.125 L 122.727 62.044 L 121.943 61.981 L 121.147 61.938 L 120.342 61.919 L 119.527 61.926 L 118.691 61.965 L 117.965 61.935 L 117.247 61.94 L 116.524 61.975 L 115.799 62.036 L 115.071 62.121 L 114.343 62.226 L 113.617 62.346 L 112.893 62.48 L 112.174 62.622 L 111.46 62.771 L 110.754 62.92 L 110.056 63.069 L 109.368 63.212 L 108.691 63.346 L 108.028 63.468 L 107.377 63.574 L 106.744 63.66 L 106.126 63.722 L 105.526 63.757 L 104.945 63.761 L 104.384 63.73 L 103.845 63.659 L 103.329 63.545 L 102.838 63.384 L 102.374 63.169 L 101.94 62.899 L 101.539 62.57 L 101.173 62.179 L 100.845 61.723 L 100.556 61.201 L 100.308 60.61 L 100.104 59.954 L 100.056 59.791 L 100.014 59.622 L 99.98 59.452 L 99.953 59.28 L 99.936 59.11 L 99.93 58.941 L 99.936 58.776 L 99.993 58.303 L 99.993 58.303 Z " fill-rule="evenodd" fill="rgb(35,31,32)"/><path d=" M 100.165 58.652 C 103.353 60.752 110.011 58.515 118.615 57.91 C 124.633 57.958 135.045 60.614 136.628 58.083 C 136.787 58.553 136.846 59.063 136.745 59.583 C 135.107 66.312 127.6 61.173 118.691 61.753 C 111.02 61.243 102.239 67.18 100.308 59.893 C 100.178 59.479 100.102 59.016 100.165 58.652 L 100.165 58.652 Z " fill-rule="evenodd" fill="rgb(237,28,36)"/><path d=" M 103.658 61.996 L 104.069 61.829 C 104.094 61.918 104.124 61.983 104.16 62.023 C 104.219 62.087 104.29 62.106 104.374 62.079 C 104.437 62.059 104.482 62.024 104.509 61.974 C 104.536 61.923 104.545 61.871 104.536 61.818 C 104.528 61.768 104.504 61.728 104.465 61.699 C 104.426 61.669 104.345 61.655 104.221 61.658 C 104.018 61.659 103.868 61.624 103.769 61.552 C 103.67 61.48 103.608 61.369 103.582 61.217 C 103.565 61.118 103.57 61.017 103.597 60.915 C 103.625 60.814 103.677 60.724 103.753 60.646 C 103.829 60.569 103.942 60.508 104.09 60.461 C 104.271 60.404 104.418 60.406 104.528 60.468 C 104.639 60.53 104.721 60.659 104.773 60.854 L 104.364 61.017 C 104.339 60.933 104.305 60.877 104.263 60.848 C 104.221 60.82 104.169 60.816 104.107 60.835 C 104.056 60.851 104.02 60.878 103.999 60.915 C 103.979 60.953 103.972 60.993 103.979 61.035 C 103.984 61.066 103.999 61.09 104.025 61.108 C 104.05 61.127 104.103 61.136 104.184 61.133 C 104.386 61.129 104.533 61.143 104.625 61.175 C 104.718 61.206 104.791 61.258 104.843 61.332 C 104.895 61.406 104.931 61.495 104.949 61.601 C 104.97 61.725 104.964 61.847 104.931 61.968 C 104.898 62.089 104.841 62.19 104.76 62.273 C 104.679 62.355 104.569 62.418 104.432 62.461 C 104.19 62.537 104.012 62.527 103.898 62.429 C 103.783 62.332 103.703 62.187 103.658 61.996 L 103.658 61.996 Z  M 106.127 61.15 L 106.537 61.216 C 106.53 61.371 106.505 61.505 106.462 61.618 C 106.418 61.731 106.358 61.823 106.281 61.894 C 106.205 61.965 106.102 62.016 105.974 62.046 C 105.817 62.084 105.686 62.083 105.579 62.046 C 105.472 62.007 105.373 61.919 105.28 61.781 C 105.189 61.642 105.127 61.452 105.095 61.209 C 105.054 60.885 105.085 60.621 105.189 60.417 C 105.292 60.213 105.46 60.083 105.691 60.027 C 105.872 59.983 106.02 59.999 106.137 60.074 C 106.253 60.149 106.35 60.284 106.427 60.478 L 106.05 60.691 C 106.029 60.634 106.009 60.594 105.991 60.57 C 105.96 60.53 105.925 60.501 105.886 60.485 C 105.846 60.469 105.805 60.466 105.76 60.477 C 105.66 60.501 105.59 60.574 105.551 60.698 C 105.521 60.789 105.517 60.923 105.54 61.098 C 105.568 61.315 105.611 61.458 105.67 61.527 C 105.729 61.596 105.802 61.62 105.889 61.599 C 105.974 61.578 106.034 61.531 106.069 61.455 C 106.104 61.38 106.124 61.278 106.127 61.149 L 106.127 61.15 Z  M 106.629 59.883 L 107.074 59.787 L 107.303 61.749 L 106.857 61.845 L 106.629 59.883 Z  M 107.454 59.718 L 108.652 59.517 L 108.69 59.939 L 107.94 60.064 L 107.968 60.377 L 108.664 60.261 L 108.7 60.663 L 108.005 60.78 L 108.039 61.168 L 108.812 61.039 L 108.852 61.486 L 107.632 61.69 L 107.454 59.718 L 107.454 59.718 Z  M 108.934 59.495 L 109.352 59.435 L 109.983 60.45 L 109.898 59.357 L 110.321 59.296 L 110.473 61.272 L 110.051 61.333 L 109.424 60.326 L 109.508 61.41 L 109.086 61.471 L 108.934 59.495 L 108.934 59.495 Z  M 110.577 59.284 L 111.943 59.154 L 111.968 59.643 L 111.51 59.687 L 111.586 61.179 L 111.137 61.222 L 111.06 59.73 L 110.602 59.774 L 110.577 59.284 L 110.577 59.284 Z  M 112.168 59.134 L 112.618 59.091 L 112.72 61.073 L 112.269 61.116 L 112.168 59.134 L 112.168 59.134 Z  M 113.928 60.674 L 113.415 60.711 L 113.357 61.043 L 112.898 61.076 L 113.368 59.053 L 113.859 59.018 L 114.483 60.963 L 114.012 60.996 L 113.928 60.674 L 113.928 60.674 Z  M 113.817 60.252 L 113.629 59.55 L 113.496 60.275 L 113.817 60.252 L 113.817 60.252 Z  M 116.197 60.588 L 115.684 60.612 L 115.621 60.943 L 115.161 60.965 L 115.658 58.954 L 116.149 58.93 L 116.748 60.889 L 116.277 60.912 L 116.197 60.588 L 116.197 60.588 Z  M 116.091 60.163 L 115.912 59.457 L 115.77 60.178 L 116.091 60.163 Z  M 116.873 58.92 L 117.543 58.904 C 117.674 58.9 117.781 58.922 117.863 58.969 C 117.945 59.016 118.013 59.084 118.067 59.174 C 118.122 59.265 118.161 59.37 118.187 59.49 C 118.212 59.611 118.226 59.739 118.227 59.874 C 118.23 60.086 118.215 60.252 118.18 60.369 C 118.147 60.487 118.099 60.586 118.037 60.667 C 117.975 60.747 117.908 60.801 117.836 60.83 C 117.737 60.868 117.648 60.888 117.568 60.89 L 116.899 60.906 L 116.873 58.92 Z  M 117.329 59.359 L 117.344 60.444 L 117.454 60.442 C 117.548 60.439 117.615 60.424 117.654 60.394 C 117.693 60.365 117.724 60.314 117.746 60.243 C 117.768 60.172 117.777 60.056 117.775 59.897 C 117.772 59.687 117.745 59.544 117.694 59.467 C 117.643 59.391 117.559 59.354 117.442 59.357 L 117.329 59.359 L 117.329 59.359 Z  M 119.086 60.226 L 119.516 60.2 C 119.524 60.295 119.541 60.368 119.569 60.418 C 119.614 60.5 119.681 60.541 119.767 60.543 C 119.831 60.544 119.881 60.526 119.916 60.485 C 119.951 60.445 119.969 60.397 119.97 60.343 C 119.971 60.292 119.955 60.245 119.922 60.204 C 119.89 60.163 119.813 60.122 119.693 60.084 C 119.496 60.018 119.356 59.935 119.273 59.832 C 119.19 59.73 119.149 59.601 119.151 59.446 C 119.152 59.344 119.175 59.248 119.22 59.158 C 119.265 59.068 119.331 58.999 119.419 58.949 C 119.506 58.899 119.626 58.876 119.778 58.879 C 119.964 58.884 120.106 58.934 120.202 59.031 C 120.299 59.128 120.355 59.28 120.371 59.486 L 119.946 59.509 C 119.936 59.42 119.913 59.354 119.877 59.313 C 119.842 59.271 119.792 59.25 119.729 59.248 C 119.676 59.247 119.637 59.261 119.61 59.291 C 119.583 59.32 119.569 59.357 119.569 59.401 C 119.568 59.432 119.578 59.46 119.6 59.486 C 119.621 59.513 119.671 59.539 119.75 59.563 C 119.947 59.626 120.087 59.688 120.171 59.749 C 120.256 59.81 120.317 59.885 120.354 59.973 C 120.392 60.062 120.41 60.16 120.409 60.269 C 120.408 60.396 120.38 60.513 120.327 60.619 C 120.274 60.726 120.2 60.805 120.107 60.858 C 120.014 60.912 119.896 60.937 119.755 60.933 C 119.507 60.927 119.336 60.859 119.242 60.726 C 119.148 60.594 119.096 60.427 119.086 60.226 L 119.086 60.226 Z  M 121.532 60.604 L 121.019 60.579 L 120.94 60.904 L 120.48 60.882 L 121.079 58.922 L 121.57 58.946 L 122.067 60.957 L 121.596 60.935 L 121.532 60.604 L 121.532 60.604 Z  M 121.449 60.17 L 121.306 59.449 L 121.128 60.155 L 121.449 60.17 L 121.449 60.17 Z  M 122.286 58.964 L 123.034 59.017 C 123.197 59.029 123.317 59.09 123.394 59.202 C 123.471 59.313 123.506 59.467 123.498 59.661 C 123.491 59.861 123.44 60.015 123.347 60.121 C 123.255 60.228 123.117 60.274 122.936 60.262 L 122.69 60.244 L 122.662 60.98 L 122.21 60.948 L 122.286 58.964 L 122.286 58.964 Z  M 122.706 59.842 L 122.816 59.85 C 122.903 59.856 122.964 59.841 123.001 59.802 C 123.037 59.763 123.057 59.712 123.06 59.648 C 123.062 59.586 123.049 59.532 123.02 59.486 C 122.991 59.441 122.935 59.415 122.851 59.409 L 122.723 59.399 L 122.706 59.842 L 122.706 59.842 Z  M 123.777 59.076 L 124.228 59.108 L 124.151 61.092 L 123.701 61.06 L 123.777 59.076 L 123.777 59.076 Z  M 124.576 59.108 L 125.78 59.223 L 125.759 59.646 L 125.005 59.574 L 124.989 59.89 L 125.688 59.956 L 125.667 60.36 L 124.968 60.294 L 124.948 60.684 L 125.724 60.758 L 125.701 61.207 L 124.474 61.09 L 124.576 59.108 L 124.576 59.108 Z  M 126.076 59.254 L 126.495 59.304 L 126.972 60.464 L 127.042 59.369 L 127.465 59.419 L 127.338 61.399 L 126.915 61.348 L 126.441 60.197 L 126.371 61.283 L 125.949 61.233 L 126.076 59.254 L 126.076 59.254 Z  M 127.698 59.445 L 129.057 59.673 L 129.014 60.16 L 128.557 60.083 L 128.423 61.568 L 127.976 61.493 L 128.11 60.008 L 127.654 59.932 L 127.698 59.445 L 127.698 59.445 Z  M 129.313 59.696 L 129.76 59.781 L 129.557 61.748 L 129.11 61.663 L 129.313 59.696 L 129.313 59.696 Z  M 130.809 61.669 L 130.302 61.56 L 130.194 61.868 L 129.74 61.77 L 130.509 59.925 L 130.994 60.029 L 131.308 62.109 L 130.842 62.008 L 130.809 61.669 L 130.809 61.669 Z  M 130.765 61.224 L 130.688 60.485 L 130.447 61.156 L 130.765 61.224 Z  M 131.746 60.173 L 132.326 60.341 L 132.365 61.588 L 132.772 60.47 L 133.35 60.638 L 133.047 62.581 L 132.687 62.476 L 132.918 60.995 L 132.408 62.395 L 132.082 62.301 L 132.035 60.739 L 131.804 62.221 L 131.443 62.116 L 131.746 60.173 L 131.746 60.173 Z " fill-rule="evenodd" fill="rgb(255,255,255)"/><path d=" M 113.146 10.832 L 113.236 10.531 L 113.286 10.229 L 113.297 9.926 L 113.273 9.624 L 113.218 9.322 L 113.135 9.02 L 113.028 8.717 L 112.9 8.413 L 112.753 8.106 L 112.591 7.795 L 112.417 7.48 L 112.233 7.16 L 112.043 6.834 L 111.847 6.502 L 111.65 6.162 L 111.454 5.814 L 111.261 5.457 L 111.075 5.092 L 110.898 4.717 L 110.732 4.332 L 110.58 3.936 L 110.444 3.529 L 110.328 3.11 L 110.233 2.679 L 110.162 2.234 L 110.118 1.776 L 110.078 0.509 L 109.67 1.263 L 109.641 1.377 L 109.62 1.507 L 109.602 1.662 L 109.585 1.842 L 109.568 2.045 L 109.553 2.267 L 109.537 2.505 L 109.522 2.755 L 109.506 3.013 L 109.49 3.275 L 109.473 3.536 L 109.455 3.795 L 109.435 4.044 L 109.428 4.124 L 109.361 4.05 L 109.234 3.861 L 109.124 3.645 L 109.028 3.409 L 108.945 3.156 L 108.874 2.89 L 108.811 2.617 L 108.755 2.342 L 108.702 2.068 L 108.65 1.8 L 108.596 1.542 L 108.535 1.298 L 108.465 1.071 L 108.38 0.863 L 107.882 0 L 107.891 1.294 L 107.847 1.752 L 107.762 2.19 L 107.637 2.61 L 107.477 3.014 L 107.285 3.403 L 107.066 3.779 L 106.822 4.142 L 106.559 4.494 L 106.279 4.835 L 105.987 5.168 L 105.686 5.492 L 105.381 5.81 L 105.076 6.121 L 104.775 6.428 L 104.481 6.733 L 104.201 7.036 L 103.935 7.338 L 103.691 7.643 L 103.471 7.951 L 103.28 8.265 L 103.122 8.586 L 103.004 8.917 L 102.931 9.257 L 102.909 9.609 L 102.943 9.968 L 103.037 10.335 L 103.193 10.708 L 103.414 11.089 L 103.703 11.478 L 104.062 11.877 L 104.552 12.342 L 111.95 12.342 L 112.329 12.006 L 112.604 11.717 L 112.831 11.425 L 113.01 11.13 L 113.145 10.832 L 113.146 10.832 Z " fill-rule="evenodd" fill="rgb(35,31,32)"/><path d=" M 104.638 12.13 L 111.871 12.13 C 115.484 9.167 109.881 6.581 109.891 1.302 C 109.769 1.397 109.73 3.375 109.602 4.527 L 109.553 4.52 C 108.444 3.79 108.616 1.535 108.1 0.802 C 108.409 6.269 99.708 7.762 104.638 12.131 L 104.638 12.13 Z " fill-rule="evenodd" fill="rgb(237,28,36)"/><path d=" M 109.577 4.66 L 109.572 4.793 L 109.57 4.918 L 109.569 5.038 L 109.57 5.156 L 109.57 5.274 L 109.567 5.396 L 109.561 5.522 L 109.552 5.658 L 109.536 5.805 L 109.514 5.966 L 109.483 6.143 L 109.443 6.34 L 109.392 6.559 L 109.329 6.802 L 109.252 7.074 L 109.068 7.665 L 108.853 8.182 L 108.614 8.63 L 108.355 9.012 L 108.082 9.332 L 107.798 9.594 L 107.51 9.803 L 107.221 9.962 L 106.938 10.076 L 106.665 10.149 L 106.406 10.185 L 106.168 10.187 L 105.954 10.162 L 105.768 10.112 L 105.616 10.04 L 105.501 9.948 L 105.377 9.736 L 105.306 9.5 L 105.285 9.258 L 105.317 9.027 L 105.403 8.829 L 105.549 8.684 L 105.753 8.623 L 105.998 8.669 L 106.385 8.8 L 106.729 8.88 L 107.039 8.916 L 107.315 8.911 L 107.563 8.872 L 107.783 8.8 L 107.979 8.701 L 108.154 8.578 L 108.31 8.435 L 108.449 8.274 L 108.574 8.1 L 108.685 7.916 L 108.786 7.727 L 108.879 7.536 L 108.966 7.347 L 109.046 7.168 L 109.093 7.006 L 109.139 6.824 L 109.181 6.627 L 109.221 6.419 L 109.258 6.205 L 109.293 5.987 L 109.325 5.771 L 109.354 5.56 L 109.38 5.357 L 109.403 5.167 L 109.423 4.993 L 109.454 4.71 L 109.465 4.608 L 109.474 4.538 L 109.682 3.003 L 109.576 4.659 L 109.577 4.66 Z " fill-rule="evenodd" fill="rgb(35,31,32)"/><path d=" M 120.095 40.933 L 119.136 53.78 C 118.915 54.32 118.678 54.359 118.412 53.879 L 117.148 40.933 L 120.095 40.933 L 120.095 40.933 Z " fill-rule="evenodd" fill="rgb(0,149,218)"/><path d=" M 120.691 39.591 L 120.706 39.606 L 120.704 40.07 L 120.629 40.165 L 116.561 40.165 L 116.468 40.062 L 116.469 39.622 L 116.506 39.591 L 120.691 39.591 L 120.691 39.591 Z " fill-rule="evenodd" fill="rgb(0,149,218)"/><path d=" M 116.727 38.879 L 120.464 38.879 L 120.55 39.427 L 116.661 39.427 L 116.727 38.879 L 116.727 38.879 Z " fill-rule="evenodd" fill="rgb(0,149,218)"/><path d=" M 119.361 41.335 L 119.19 45.864 L 119.019 50.392 C 119.018 50.535 119.217 50.557 119.229 50.372 L 119.812 41.337 C 119.767 41.118 119.482 41.1 119.361 41.335 L 119.361 41.335 Z " fill-rule="evenodd" fill="rgb(255,255,255)"/><path d=" M 118.397 41.462 L 118.583 45.724 L 118.768 49.986 C 118.778 50.12 118.946 50.124 118.943 49.95 L 118.776 41.427 C 118.723 41.225 118.482 41.232 118.397 41.462 L 118.397 41.462 Z " fill-rule="evenodd" fill="rgb(255,255,255)"/><path d=" M 117.548 41.421 L 117.954 45.445 L 118.36 49.469 C 118.377 49.596 118.546 49.591 118.533 49.427 L 117.925 41.369 C 117.861 41.18 117.621 41.199 117.548 41.421 Z " fill-rule="evenodd" fill="rgb(255,255,255)"/><path d=" M 120.509 40.329 L 120.419 40.614 L 120.149 40.825 L 120.149 40.812 L 116.987 40.812 L 116.748 40.638 L 116.702 40.329 L 120.509 40.329 L 120.509 40.329 Z " fill-rule="evenodd" fill="rgb(0,149,218)"/><path d=" M 120.557 38.617 L 120.741 38.352 L 120.843 38.081 L 120.87 37.807 L 120.834 37.534 L 120.748 37.261 L 120.625 36.985 L 120.473 36.704 L 120.305 36.414 L 120.129 36.112 L 119.955 35.796 L 119.792 35.465 L 119.65 35.115 L 119.537 34.745 L 119.463 34.353 L 119.398 33.342 L 119.205 33.982 L 119.187 34.118 L 119.171 34.292 L 119.158 34.496 L 119.145 34.717 L 119.131 34.946 L 119.114 35.168 L 119.114 35.174 L 119.101 35.162 L 118.996 34.983 L 118.916 34.765 L 118.856 34.524 L 118.807 34.278 L 118.76 34.041 L 118.7 33.827 L 118.438 33.29 L 118.402 34.137 L 118.308 34.521 L 118.151 34.875 L 117.944 35.205 L 117.701 35.516 L 117.435 35.81 L 117.162 36.092 L 116.895 36.367 L 116.649 36.639 L 116.44 36.915 L 116.282 37.202 L 116.195 37.506 L 116.201 37.828 L 116.314 38.163 L 116.545 38.51 L 116.928 38.903 L 120.262 38.903 L 120.557 38.618 L 120.557 38.617 Z " fill-rule="evenodd" fill="rgb(35,31,32)"/><path d=" M 116.972 38.796 L 120.218 38.796 C 121.84 37.466 119.325 36.306 119.33 33.937 C 119.269 34.033 119.258 34.867 119.2 35.384 L 119.178 35.381 C 118.681 35.053 118.758 34.041 118.526 33.712 C 118.665 36.166 114.76 36.836 116.972 38.796 L 116.972 38.796 Z " fill-rule="evenodd" fill="rgb(237,28,36)"/><path d=" M 119.262 34.461 L 119.24 35.518 L 119.23 35.658 L 119.215 35.801 L 119.195 35.946 L 119.17 36.092 L 119.142 36.24 L 119.109 36.387 L 119.072 36.536 L 118.892 37.037 L 118.665 37.415 L 118.41 37.681 L 118.145 37.85 L 117.889 37.936 L 117.658 37.954 L 117.469 37.919 L 117.339 37.84 L 117.277 37.734 L 117.243 37.621 L 117.233 37.506 L 117.248 37.396 L 117.291 37.297 L 117.365 37.223 L 117.471 37.192 L 117.589 37.214 L 117.916 37.308 L 118.171 37.322 L 118.372 37.274 L 118.532 37.179 L 118.66 37.046 L 118.763 36.89 L 118.849 36.721 L 118.922 36.56 L 118.964 36.408 L 119.003 36.228 L 119.039 36.036 L 119.069 35.845 L 119.095 35.67 L 119.115 35.524 L 119.128 35.421 L 119.261 34.461 L 119.262 34.461 Z " fill-rule="evenodd" fill="rgb(35,31,32)"/><path d=" M 123.559 10.832 L 123.65 10.531 L 123.7 10.229 L 123.711 9.926 L 123.687 9.624 L 123.632 9.322 L 123.549 9.02 L 123.442 8.717 L 123.314 8.413 L 123.167 8.106 L 123.005 7.795 L 122.831 7.48 L 122.647 7.16 L 122.456 6.834 L 122.261 6.502 L 122.064 6.162 L 121.868 5.814 L 121.675 5.457 L 121.489 5.092 L 121.311 4.717 L 121.146 4.332 L 120.994 3.936 L 120.858 3.529 L 120.741 3.11 L 120.647 2.679 L 120.576 2.234 L 120.532 1.776 L 120.492 0.509 L 120.084 1.263 L 120.055 1.377 L 120.034 1.507 L 120.015 1.662 L 119.999 1.842 L 119.982 2.045 L 119.967 2.267 L 119.951 2.505 L 119.936 2.755 L 119.92 3.013 L 119.904 3.275 L 119.886 3.536 L 119.868 3.795 L 119.849 4.044 L 119.841 4.124 L 119.775 4.05 L 119.648 3.861 L 119.537 3.645 L 119.442 3.409 L 119.359 3.156 L 119.288 2.89 L 119.225 2.617 L 119.169 2.342 L 119.116 2.068 L 119.064 1.8 L 119.01 1.542 L 118.949 1.298 L 118.879 1.071 L 118.794 0.863 L 118.296 0 L 118.305 1.294 L 118.261 1.752 L 118.176 2.19 L 118.051 2.61 L 117.891 3.014 L 117.699 3.403 L 117.48 3.779 L 117.236 4.142 L 116.973 4.494 L 116.693 4.835 L 116.4 5.168 L 116.1 5.492 L 115.795 5.81 L 115.49 6.121 L 115.189 6.428 L 114.895 6.733 L 114.614 7.036 L 114.349 7.338 L 114.105 7.643 L 113.885 7.951 L 113.694 8.265 L 113.536 8.586 L 113.418 8.917 L 113.345 9.257 L 113.323 9.609 L 113.357 9.968 L 113.451 10.335 L 113.607 10.708 L 113.828 11.089 L 114.116 11.478 L 114.476 11.877 L 114.966 12.342 L 122.364 12.342 L 122.743 12.006 L 123.018 11.717 L 123.244 11.425 L 123.424 11.13 L 123.558 10.832 L 123.559 10.832 Z " fill-rule="evenodd" fill="rgb(35,31,32)"/><path d=" M 115.052 12.13 L 122.284 12.13 C 125.898 9.167 120.295 6.581 120.305 1.302 C 120.183 1.397 120.144 3.375 120.016 4.527 L 119.967 4.52 C 118.858 3.79 119.03 1.535 118.514 0.802 C 118.823 6.269 110.122 7.762 115.052 12.131 L 115.052 12.13 Z " fill-rule="evenodd" fill="rgb(237,28,36)"/><path d=" M 119.991 4.66 L 119.986 4.793 L 119.984 4.918 L 119.983 5.038 L 119.984 5.156 L 119.984 5.274 L 119.981 5.396 L 119.975 5.522 L 119.966 5.658 L 119.95 5.805 L 119.928 5.966 L 119.897 6.143 L 119.857 6.34 L 119.806 6.559 L 119.743 6.802 L 119.666 7.074 L 119.482 7.665 L 119.267 8.182 L 119.028 8.63 L 118.769 9.012 L 118.496 9.332 L 118.212 9.594 L 117.924 9.803 L 117.635 9.962 L 117.352 10.076 L 117.078 10.149 L 116.82 10.185 L 116.582 10.187 L 116.368 10.162 L 116.182 10.112 L 116.03 10.04 L 115.915 9.948 L 115.791 9.736 L 115.719 9.5 L 115.699 9.258 L 115.731 9.027 L 115.817 8.829 L 115.963 8.684 L 116.167 8.623 L 116.412 8.669 L 116.799 8.8 L 117.143 8.88 L 117.452 8.916 L 117.729 8.911 L 117.977 8.872 L 118.197 8.8 L 118.393 8.701 L 118.568 8.578 L 118.724 8.435 L 118.863 8.274 L 118.988 8.1 L 119.099 7.916 L 119.2 7.727 L 119.293 7.536 L 119.38 7.347 L 119.46 7.168 L 119.507 7.006 L 119.553 6.824 L 119.595 6.627 L 119.635 6.419 L 119.672 6.205 L 119.707 5.987 L 119.739 5.771 L 119.767 5.56 L 119.794 5.357 L 119.817 5.167 L 119.837 4.993 L 119.868 4.71 L 119.879 4.608 L 119.887 4.538 L 120.096 3.003 L 119.99 4.659 L 119.991 4.66 Z " fill-rule="evenodd" fill="rgb(35,31,32)"/><path d=" M 133.81 10.832 L 133.9 10.531 L 133.95 10.229 L 133.961 9.926 L 133.937 9.624 L 133.882 9.322 L 133.799 9.02 L 133.692 8.717 L 133.564 8.413 L 133.417 8.106 L 133.255 7.795 L 133.081 7.48 L 132.898 7.16 L 132.707 6.834 L 132.512 6.502 L 132.314 6.162 L 132.118 5.814 L 131.926 5.457 L 131.74 5.092 L 131.562 4.717 L 131.396 4.332 L 131.244 3.936 L 131.108 3.529 L 130.992 3.11 L 130.897 2.679 L 130.826 2.234 L 130.782 1.776 L 130.742 0.509 L 130.334 1.263 L 130.305 1.377 L 130.284 1.507 L 130.266 1.662 L 130.249 1.842 L 130.233 2.045 L 130.217 2.267 L 130.201 2.505 L 130.186 2.755 L 130.17 3.013 L 130.154 3.275 L 130.137 3.536 L 130.119 3.795 L 130.099 4.044 L 130.092 4.124 L 130.025 4.05 L 129.898 3.861 L 129.788 3.645 L 129.692 3.409 L 129.61 3.156 L 129.538 2.89 L 129.475 2.617 L 129.42 2.342 L 129.367 2.068 L 129.315 1.8 L 129.26 1.542 L 129.2 1.298 L 129.129 1.071 L 129.044 0.863 L 128.546 0 L 128.555 1.294 L 128.512 1.752 L 128.426 2.19 L 128.301 2.61 L 128.141 3.014 L 127.949 3.403 L 127.73 3.779 L 127.487 4.142 L 127.223 4.494 L 126.943 4.835 L 126.651 5.168 L 126.35 5.492 L 126.045 5.81 L 125.74 6.121 L 125.439 6.428 L 125.145 6.733 L 124.865 7.036 L 124.6 7.338 L 124.355 7.643 L 124.135 7.951 L 123.944 8.265 L 123.787 8.586 L 123.669 8.917 L 123.595 9.257 L 123.573 9.609 L 123.607 9.968 L 123.701 10.335 L 123.857 10.708 L 124.078 11.089 L 124.367 11.478 L 124.726 11.877 L 125.216 12.342 L 132.614 12.342 L 132.994 12.006 L 133.269 11.717 L 133.495 11.425 L 133.674 11.13 L 133.809 10.832 L 133.81 10.832 Z " fill-rule="evenodd" fill="rgb(35,31,32)"/><path d=" M 125.302 12.13 L 132.535 12.13 C 136.148 9.167 130.545 6.581 130.555 1.302 C 130.433 1.397 130.394 3.375 130.266 4.527 L 130.217 4.52 C 129.108 3.79 129.28 1.535 128.764 0.802 C 129.073 6.269 120.373 7.762 125.302 12.131 L 125.302 12.13 Z " fill-rule="evenodd" fill="rgb(237,28,36)"/><path d=" M 130.241 4.66 L 130.237 4.793 L 130.234 4.918 L 130.234 5.038 L 130.234 5.156 L 130.234 5.274 L 130.232 5.396 L 130.226 5.522 L 130.216 5.658 L 130.2 5.805 L 130.178 5.966 L 130.147 6.143 L 130.107 6.34 L 130.056 6.559 L 129.993 6.802 L 129.917 7.074 L 129.732 7.665 L 129.518 8.182 L 129.278 8.63 L 129.019 9.012 L 128.746 9.332 L 128.463 9.594 L 128.174 9.803 L 127.885 9.962 L 127.602 10.076 L 127.329 10.149 L 127.07 10.185 L 126.832 10.187 L 126.618 10.162 L 126.432 10.112 L 126.281 10.04 L 126.165 9.948 L 126.041 9.736 L 125.97 9.5 L 125.95 9.258 L 125.981 9.027 L 126.067 8.829 L 126.213 8.684 L 126.417 8.623 L 126.662 8.669 L 127.049 8.8 L 127.393 8.88 L 127.703 8.916 L 127.98 8.911 L 128.227 8.872 L 128.447 8.8 L 128.643 8.701 L 128.818 8.578 L 128.974 8.435 L 129.113 8.274 L 129.238 8.1 L 129.349 7.916 L 129.451 7.727 L 129.543 7.536 L 129.63 7.347 L 129.71 7.168 L 129.758 7.006 L 129.803 6.824 L 129.846 6.627 L 129.885 6.419 L 129.923 6.205 L 129.958 5.987 L 129.989 5.771 L 130.018 5.56 L 130.044 5.357 L 130.067 5.167 L 130.087 4.993 L 130.119 4.71 L 130.129 4.608 L 130.138 4.538 L 130.346 3.003 L 130.24 4.659 L 130.241 4.66 Z " fill-rule="evenodd" fill="rgb(35,31,32)"/><path d=" M 8.145 41.141 L 9.805 41.141 L 9.805 46.222 L 9.805 46.222 Q 9.805 47.092 9.415 47.748 L 9.415 47.748 L 9.415 47.748 Q 9.026 48.403 8.29 48.752 L 8.29 48.752 L 8.29 48.752 Q 7.554 49.101 6.55 49.101 L 6.55 49.101 L 6.55 49.101 Q 5.035 49.101 4.197 48.325 L 4.197 48.325 L 4.197 48.325 Q 3.36 47.549 3.36 46.201 L 3.36 46.201 L 3.36 41.141 L 5.019 41.141 L 5.019 45.948 L 5.019 45.948 Q 5.019 46.856 5.384 47.28 L 5.384 47.28 L 5.384 47.28 Q 5.75 47.705 6.593 47.705 L 6.593 47.705 L 6.593 47.705 Q 7.409 47.705 7.777 47.278 L 7.777 47.278 L 7.777 47.278 Q 8.145 46.851 8.145 45.938 L 8.145 45.938 L 8.145 41.141 L 8.145 41.141 Z  M 17.142 45.078 L 17.142 48.994 L 15.504 48.994 L 15.504 45.486 L 15.504 45.486 Q 15.504 44.836 15.273 44.511 L 15.273 44.511 L 15.273 44.511 Q 15.042 44.187 14.537 44.187 L 14.537 44.187 L 14.537 44.187 Q 13.849 44.187 13.543 44.646 L 13.543 44.646 L 13.543 44.646 Q 13.237 45.105 13.237 46.168 L 13.237 46.168 L 13.237 48.994 L 11.599 48.994 L 11.599 42.989 L 12.85 42.989 L 13.071 43.757 L 13.162 43.757 L 13.162 43.757 Q 13.436 43.322 13.916 43.099 L 13.916 43.099 L 13.916 43.099 Q 14.397 42.876 15.009 42.876 L 15.009 42.876 L 15.009 42.876 Q 16.057 42.876 16.599 43.443 L 16.599 43.443 L 16.599 43.443 Q 17.142 44.009 17.142 45.078 L 17.142 45.078 L 17.142 45.078 Z  M 18.758 41.437 L 18.758 41.437 L 18.758 41.437 Q 18.758 40.636 19.65 40.636 L 19.65 40.636 L 19.65 40.636 Q 20.542 40.636 20.542 41.437 L 20.542 41.437 L 20.542 41.437 Q 20.542 41.818 20.319 42.03 L 20.319 42.03 L 20.319 42.03 Q 20.096 42.242 19.65 42.242 L 19.65 42.242 L 19.65 42.242 Q 18.758 42.242 18.758 41.437 Z  M 20.467 42.989 L 20.467 48.994 L 18.828 48.994 L 18.828 42.989 L 20.467 42.989 L 20.467 42.989 Z  M 25.295 48.994 L 23.614 48.994 L 21.326 42.989 L 23.039 42.989 L 24.199 46.41 L 24.199 46.41 Q 24.393 47.06 24.441 47.64 L 24.441 47.64 L 24.473 47.64 L 24.473 47.64 Q 24.5 47.125 24.715 46.41 L 24.715 46.41 L 25.87 42.989 L 27.583 42.989 L 25.295 48.994 L 25.295 48.994 Z  M 30.929 44.042 L 30.929 44.042 L 30.929 44.042 Q 30.408 44.042 30.113 44.372 L 30.113 44.372 L 30.113 44.372 Q 29.818 44.702 29.775 45.309 L 29.775 45.309 L 32.073 45.309 L 32.073 45.309 Q 32.063 44.702 31.757 44.372 L 31.757 44.372 L 31.757 44.372 Q 31.45 44.042 30.929 44.042 Z  M 31.16 49.101 L 31.16 49.101 L 31.16 49.101 Q 29.71 49.101 28.894 48.301 L 28.894 48.301 L 28.894 48.301 Q 28.077 47.501 28.077 46.034 L 28.077 46.034 L 28.077 46.034 Q 28.077 44.525 28.832 43.7 L 28.832 43.7 L 28.832 43.7 Q 29.587 42.876 30.919 42.876 L 30.919 42.876 L 30.919 42.876 Q 32.192 42.876 32.901 43.601 L 32.901 43.601 L 32.901 43.601 Q 33.61 44.326 33.61 45.605 L 33.61 45.605 L 33.61 46.399 L 29.737 46.399 L 29.737 46.399 Q 29.764 47.098 30.151 47.49 L 30.151 47.49 L 30.151 47.49 Q 30.537 47.882 31.236 47.882 L 31.236 47.882 L 31.236 47.882 Q 31.778 47.882 32.261 47.769 L 32.261 47.769 L 32.261 47.769 Q 32.745 47.656 33.271 47.409 L 33.271 47.409 L 33.271 48.677 L 33.271 48.677 Q 32.842 48.892 32.353 48.996 L 32.353 48.996 L 32.353 48.996 Q 31.864 49.101 31.16 49.101 Z  M 38.293 42.876 L 38.293 42.876 L 38.293 42.876 Q 38.626 42.876 38.846 42.924 L 38.846 42.924 L 38.723 44.46 L 38.723 44.46 Q 38.524 44.407 38.239 44.407 L 38.239 44.407 L 38.239 44.407 Q 37.455 44.407 37.018 44.81 L 37.018 44.81 L 37.018 44.81 Q 36.58 45.212 36.58 45.938 L 36.58 45.938 L 36.58 48.994 L 34.942 48.994 L 34.942 42.989 L 36.182 42.989 L 36.424 43.999 L 36.505 43.999 L 36.505 43.999 Q 36.784 43.494 37.259 43.185 L 37.259 43.185 L 37.259 43.185 Q 37.735 42.876 38.293 42.876 Z  M 44.126 47.21 L 44.126 47.21 L 44.126 47.21 Q 44.126 48.134 43.484 48.618 L 43.484 48.618 L 43.484 48.618 Q 42.842 49.101 41.564 49.101 L 41.564 49.101 L 41.564 49.101 Q 40.909 49.101 40.447 49.012 L 40.447 49.012 L 40.447 49.012 Q 39.985 48.924 39.582 48.752 L 39.582 48.752 L 39.582 47.398 L 39.582 47.398 Q 40.039 47.613 40.611 47.758 L 40.611 47.758 L 40.611 47.758 Q 41.183 47.903 41.618 47.903 L 41.618 47.903 L 41.618 47.903 Q 42.509 47.903 42.509 47.388 L 42.509 47.388 L 42.509 47.388 Q 42.509 47.194 42.391 47.074 L 42.391 47.074 L 42.391 47.074 Q 42.273 46.953 41.983 46.8 L 41.983 46.8 L 41.983 46.8 Q 41.693 46.647 41.21 46.442 L 41.21 46.442 L 41.21 46.442 Q 40.517 46.152 40.192 45.905 L 40.192 45.905 L 40.192 45.905 Q 39.867 45.658 39.719 45.339 L 39.719 45.339 L 39.719 45.339 Q 39.571 45.019 39.571 44.552 L 39.571 44.552 L 39.571 44.552 Q 39.571 43.751 40.192 43.314 L 40.192 43.314 L 40.192 43.314 Q 40.812 42.876 41.951 42.876 L 41.951 42.876 L 41.951 42.876 Q 43.036 42.876 44.062 43.349 L 44.062 43.349 L 43.568 44.53 L 43.568 44.53 Q 43.116 44.337 42.724 44.213 L 42.724 44.213 L 42.724 44.213 Q 42.332 44.09 41.924 44.09 L 41.924 44.09 L 41.924 44.09 Q 41.199 44.09 41.199 44.482 L 41.199 44.482 L 41.199 44.482 Q 41.199 44.702 41.433 44.863 L 41.433 44.863 L 41.433 44.863 Q 41.666 45.024 42.456 45.341 L 42.456 45.341 L 42.456 45.341 Q 43.159 45.626 43.487 45.873 L 43.487 45.873 L 43.487 45.873 Q 43.815 46.12 43.97 46.442 L 43.97 46.442 L 43.97 46.442 Q 44.126 46.765 44.126 47.21 Z  M 45.335 41.437 L 45.335 41.437 L 45.335 41.437 Q 45.335 40.636 46.226 40.636 L 46.226 40.636 L 46.226 40.636 Q 47.118 40.636 47.118 41.437 L 47.118 41.437 L 47.118 41.437 Q 47.118 41.818 46.895 42.03 L 46.895 42.03 L 46.895 42.03 Q 46.672 42.242 46.226 42.242 L 46.226 42.242 L 46.226 42.242 Q 45.335 42.242 45.335 41.437 Z  M 47.043 42.989 L 47.043 48.994 L 45.404 48.994 L 45.404 42.989 L 47.043 42.989 L 47.043 42.989 Z  M 51.291 47.796 L 51.291 47.796 L 51.291 47.796 Q 51.721 47.796 52.322 47.608 L 52.322 47.608 L 52.322 48.827 L 52.322 48.827 Q 51.71 49.101 50.819 49.101 L 50.819 49.101 L 50.819 49.101 Q 49.836 49.101 49.387 48.604 L 49.387 48.604 L 49.387 48.604 Q 48.939 48.107 48.939 47.114 L 48.939 47.114 L 48.939 44.219 L 48.154 44.219 L 48.154 43.526 L 49.057 42.978 L 49.529 41.71 L 50.577 41.71 L 50.577 42.989 L 52.258 42.989 L 52.258 44.219 L 50.577 44.219 L 50.577 47.114 L 50.577 47.114 Q 50.577 47.463 50.773 47.629 L 50.773 47.629 L 50.773 47.629 Q 50.969 47.796 51.291 47.796 Z  M 58.494 48.994 L 57.35 48.994 L 57.033 48.177 L 56.99 48.177 L 56.99 48.177 Q 56.576 48.698 56.139 48.9 L 56.139 48.9 L 56.139 48.9 Q 55.701 49.101 54.997 49.101 L 54.997 49.101 L 54.997 49.101 Q 54.133 49.101 53.636 48.607 L 53.636 48.607 L 53.636 48.607 Q 53.139 48.113 53.139 47.2 L 53.139 47.2 L 53.139 47.2 Q 53.139 46.244 53.808 45.79 L 53.808 45.79 L 53.808 45.79 Q 54.476 45.336 55.824 45.288 L 55.824 45.288 L 56.866 45.255 L 56.866 44.992 L 56.866 44.992 Q 56.866 44.079 55.932 44.079 L 55.932 44.079 L 55.932 44.079 Q 55.212 44.079 54.24 44.514 L 54.24 44.514 L 53.697 43.408 L 53.697 43.408 Q 54.734 42.865 55.996 42.865 L 55.996 42.865 L 55.996 42.865 Q 57.205 42.865 57.849 43.392 L 57.849 43.392 L 57.849 43.392 Q 58.494 43.918 58.494 44.992 L 58.494 44.992 L 58.494 48.994 L 58.494 48.994 Z  M 56.866 46.706 L 56.866 46.211 L 56.233 46.233 L 56.233 46.233 Q 55.518 46.254 55.169 46.491 L 55.169 46.491 L 55.169 46.491 Q 54.82 46.727 54.82 47.21 L 54.82 47.21 L 54.82 47.21 Q 54.82 47.903 55.615 47.903 L 55.615 47.903 L 55.615 47.903 Q 56.184 47.903 56.525 47.576 L 56.525 47.576 L 56.525 47.576 Q 56.866 47.248 56.866 46.706 L 56.866 46.706 L 56.866 46.706 Z  M 56.136 42.328 L 55.046 42.328 L 55.046 42.183 L 55.046 42.183 Q 55.969 41.109 56.308 40.566 L 56.308 40.566 L 58.145 40.566 L 58.145 40.679 L 58.145 40.679 Q 57.865 40.959 57.191 41.509 L 57.191 41.509 L 57.191 41.509 Q 56.517 42.06 56.136 42.328 L 56.136 42.328 L 56.136 42.328 Z  M 63.532 42.876 L 63.532 42.876 L 63.532 42.876 Q 63.865 42.876 64.085 42.924 L 64.085 42.924 L 63.962 44.46 L 63.962 44.46 Q 63.763 44.407 63.478 44.407 L 63.478 44.407 L 63.478 44.407 Q 62.694 44.407 62.256 44.81 L 62.256 44.81 L 62.256 44.81 Q 61.819 45.212 61.819 45.938 L 61.819 45.938 L 61.819 48.994 L 60.18 48.994 L 60.18 42.989 L 61.421 42.989 L 61.663 43.999 L 61.743 43.999 L 61.743 43.999 Q 62.023 43.494 62.498 43.185 L 62.498 43.185 L 62.498 43.185 Q 62.973 42.876 63.532 42.876 Z  M 65.106 41.437 L 65.106 41.437 L 65.106 41.437 Q 65.106 40.636 65.997 40.636 L 65.997 40.636 L 65.997 40.636 Q 66.889 40.636 66.889 41.437 L 66.889 41.437 L 66.889 41.437 Q 66.889 41.818 66.666 42.03 L 66.666 42.03 L 66.666 42.03 Q 66.443 42.242 65.997 42.242 L 65.997 42.242 L 65.997 42.242 Q 65.106 42.242 65.106 41.437 Z  M 66.814 42.989 L 66.814 48.994 L 65.175 48.994 L 65.175 42.989 L 66.814 42.989 L 66.814 42.989 Z  M 69.838 45.98 L 69.838 45.98 L 69.838 45.98 Q 69.838 46.872 70.13 47.329 L 70.13 47.329 L 70.13 47.329 Q 70.423 47.785 71.084 47.785 L 71.084 47.785 L 71.084 47.785 Q 71.739 47.785 72.026 47.331 L 72.026 47.331 L 72.026 47.331 Q 72.314 46.877 72.314 45.98 L 72.314 45.98 L 72.314 45.98 Q 72.314 45.089 72.024 44.643 L 72.024 44.643 L 72.024 44.643 Q 71.734 44.197 71.073 44.197 L 71.073 44.197 L 71.073 44.197 Q 70.418 44.197 70.128 44.64 L 70.128 44.64 L 70.128 44.64 Q 69.838 45.084 69.838 45.98 Z  M 73.989 45.98 L 73.989 45.98 L 73.989 45.98 Q 73.989 47.447 73.216 48.274 L 73.216 48.274 L 73.216 48.274 Q 72.443 49.101 71.062 49.101 L 71.062 49.101 L 71.062 49.101 Q 70.197 49.101 69.537 48.722 L 69.537 48.722 L 69.537 48.722 Q 68.876 48.344 68.522 47.635 L 68.522 47.635 L 68.522 47.635 Q 68.167 46.926 68.167 45.98 L 68.167 45.98 L 68.167 45.98 Q 68.167 44.509 68.935 43.692 L 68.935 43.692 L 68.935 43.692 Q 69.703 42.876 71.094 42.876 L 71.094 42.876 L 71.094 42.876 Q 71.959 42.876 72.62 43.252 L 72.62 43.252 L 72.62 43.252 Q 73.28 43.628 73.635 44.332 L 73.635 44.332 L 73.635 44.332 Q 73.989 45.035 73.989 45.98 Z  M 5.078 32.319 L 5.078 34.441 L 5.615 34.441 L 5.615 34.441 Q 6.405 34.441 6.781 34.177 L 6.781 34.177 L 6.781 34.177 Q 7.157 33.914 7.157 33.35 L 7.157 33.35 L 7.157 33.35 Q 7.157 32.792 6.773 32.555 L 6.773 32.555 L 6.773 32.555 Q 6.389 32.319 5.583 32.319 L 5.583 32.319 L 5.078 32.319 L 5.078 32.319 Z  M 5.965 35.794 L 5.078 35.794 L 5.078 38.807 L 3.413 38.807 L 3.413 30.955 L 5.701 30.955 L 5.701 30.955 Q 7.302 30.955 8.07 31.538 L 8.07 31.538 L 8.07 31.538 Q 8.838 32.12 8.838 33.307 L 8.838 33.307 L 8.838 33.307 Q 8.838 34 8.457 34.54 L 8.457 34.54 L 8.457 34.54 Q 8.075 35.08 7.377 35.386 L 7.377 35.386 L 7.377 35.386 Q 9.15 38.034 9.687 38.807 L 9.687 38.807 L 7.839 38.807 L 5.965 35.794 L 5.965 35.794 Z  M 13.033 33.855 L 13.033 33.855 L 13.033 33.855 Q 12.512 33.855 12.217 34.185 L 12.217 34.185 L 12.217 34.185 Q 11.921 34.516 11.878 35.123 L 11.878 35.123 L 14.177 35.123 L 14.177 35.123 Q 14.166 34.516 13.86 34.185 L 13.86 34.185 L 13.86 34.185 Q 13.554 33.855 13.033 33.855 Z  M 13.264 38.915 L 13.264 38.915 L 13.264 38.915 Q 11.814 38.915 10.997 38.114 L 10.997 38.114 L 10.997 38.114 Q 10.181 37.314 10.181 35.848 L 10.181 35.848 L 10.181 35.848 Q 10.181 34.339 10.935 33.514 L 10.935 33.514 L 10.935 33.514 Q 11.69 32.69 13.022 32.69 L 13.022 32.69 L 13.022 32.69 Q 14.295 32.69 15.004 33.415 L 15.004 33.415 L 15.004 33.415 Q 15.713 34.14 15.713 35.418 L 15.713 35.418 L 15.713 36.213 L 11.841 36.213 L 11.841 36.213 Q 11.867 36.911 12.254 37.303 L 12.254 37.303 L 12.254 37.303 Q 12.641 37.695 13.339 37.695 L 13.339 37.695 L 13.339 37.695 Q 13.882 37.695 14.365 37.583 L 14.365 37.583 L 14.365 37.583 Q 14.848 37.47 15.375 37.223 L 15.375 37.223 L 15.375 38.49 L 15.375 38.49 Q 14.945 38.705 14.456 38.81 L 14.456 38.81 L 14.456 38.81 Q 13.967 38.915 13.264 38.915 Z  M 21.235 37.024 L 21.235 37.024 L 21.235 37.024 Q 21.235 37.948 20.593 38.431 L 20.593 38.431 L 20.593 38.431 Q 19.951 38.915 18.673 38.915 L 18.673 38.915 L 18.673 38.915 Q 18.017 38.915 17.555 38.826 L 17.555 38.826 L 17.555 38.826 Q 17.093 38.737 16.691 38.566 L 16.691 38.566 L 16.691 37.212 L 16.691 37.212 Q 17.147 37.427 17.719 37.572 L 17.719 37.572 L 17.719 37.572 Q 18.291 37.717 18.726 37.717 L 18.726 37.717 L 18.726 37.717 Q 19.618 37.717 19.618 37.201 L 19.618 37.201 L 19.618 37.201 Q 19.618 37.008 19.5 36.887 L 19.5 36.887 L 19.5 36.887 Q 19.382 36.766 19.092 36.613 L 19.092 36.613 L 19.092 36.613 Q 18.801 36.46 18.318 36.256 L 18.318 36.256 L 18.318 36.256 Q 17.625 35.966 17.3 35.719 L 17.3 35.719 L 17.3 35.719 Q 16.975 35.472 16.828 35.152 L 16.828 35.152 L 16.828 35.152 Q 16.68 34.833 16.68 34.365 L 16.68 34.365 L 16.68 34.365 Q 16.68 33.565 17.3 33.127 L 17.3 33.127 L 17.3 33.127 Q 17.921 32.69 19.059 32.69 L 19.059 32.69 L 19.059 32.69 Q 20.144 32.69 21.17 33.162 L 21.17 33.162 L 20.676 34.344 L 20.676 34.344 Q 20.225 34.151 19.833 34.027 L 19.833 34.027 L 19.833 34.027 Q 19.441 33.903 19.032 33.903 L 19.032 33.903 L 19.032 33.903 Q 18.307 33.903 18.307 34.296 L 18.307 34.296 L 18.307 34.296 Q 18.307 34.516 18.541 34.677 L 18.541 34.677 L 18.541 34.677 Q 18.775 34.838 19.564 35.155 L 19.564 35.155 L 19.564 35.155 Q 20.268 35.44 20.595 35.687 L 20.595 35.687 L 20.595 35.687 Q 20.923 35.934 21.079 36.256 L 21.079 36.256 L 21.079 36.256 Q 21.235 36.578 21.235 37.024 Z  M 25.043 37.61 L 25.043 37.61 L 25.043 37.61 Q 25.472 37.61 26.074 37.422 L 26.074 37.422 L 26.074 38.641 L 26.074 38.641 Q 25.462 38.915 24.57 38.915 L 24.57 38.915 L 24.57 38.915 Q 23.587 38.915 23.139 38.418 L 23.139 38.418 L 23.139 38.418 Q 22.69 37.921 22.69 36.927 L 22.69 36.927 L 22.69 34.032 L 21.906 34.032 L 21.906 33.34 L 22.808 32.792 L 23.281 31.524 L 24.328 31.524 L 24.328 32.802 L 26.009 32.802 L 26.009 34.032 L 24.328 34.032 L 24.328 36.927 L 24.328 36.927 Q 24.328 37.277 24.524 37.443 L 24.524 37.443 L 24.524 37.443 Q 24.72 37.61 25.043 37.61 Z  M 32.245 38.807 L 31.101 38.807 L 30.784 37.991 L 30.741 37.991 L 30.741 37.991 Q 30.328 38.512 29.89 38.713 L 29.89 38.713 L 29.89 38.713 Q 29.452 38.915 28.749 38.915 L 28.749 38.915 L 28.749 38.915 Q 27.884 38.915 27.387 38.421 L 27.387 38.421 L 27.387 38.421 Q 26.89 37.926 26.89 37.013 L 26.89 37.013 L 26.89 37.013 Q 26.89 36.057 27.559 35.603 L 27.559 35.603 L 27.559 35.603 Q 28.228 35.15 29.576 35.101 L 29.576 35.101 L 30.618 35.069 L 30.618 34.806 L 30.618 34.806 Q 30.618 33.893 29.683 33.893 L 29.683 33.893 L 29.683 33.893 Q 28.964 33.893 27.991 34.328 L 27.991 34.328 L 27.449 33.221 L 27.449 33.221 Q 28.486 32.679 29.748 32.679 L 29.748 32.679 L 29.748 32.679 Q 30.956 32.679 31.601 33.205 L 31.601 33.205 L 31.601 33.205 Q 32.245 33.732 32.245 34.806 L 32.245 34.806 L 32.245 38.807 L 32.245 38.807 Z  M 30.618 36.519 L 30.618 36.025 L 29.984 36.047 L 29.984 36.047 Q 29.27 36.068 28.921 36.304 L 28.921 36.304 L 28.921 36.304 Q 28.571 36.541 28.571 37.024 L 28.571 37.024 L 28.571 37.024 Q 28.571 37.717 29.366 37.717 L 29.366 37.717 L 29.366 37.717 Q 29.936 37.717 30.277 37.389 L 30.277 37.389 L 30.277 37.389 Q 30.618 37.062 30.618 36.519 L 30.618 36.519 L 30.618 36.519 Z  M 39.443 38.807 L 38.186 38.807 L 37.966 38.039 L 37.88 38.039 L 37.88 38.039 Q 37.616 38.458 37.133 38.686 L 37.133 38.686 L 37.133 38.686 Q 36.65 38.915 36.032 38.915 L 36.032 38.915 L 36.032 38.915 Q 34.974 38.915 34.437 38.348 L 34.437 38.348 L 34.437 38.348 Q 33.9 37.781 33.9 36.718 L 33.9 36.718 L 33.9 32.802 L 35.538 32.802 L 35.538 36.31 L 35.538 36.31 Q 35.538 36.96 35.769 37.285 L 35.769 37.285 L 35.769 37.285 Q 36 37.61 36.505 37.61 L 36.505 37.61 L 36.505 37.61 Q 37.192 37.61 37.498 37.15 L 37.498 37.15 L 37.498 37.15 Q 37.804 36.691 37.804 35.628 L 37.804 35.628 L 37.804 32.802 L 39.443 32.802 L 39.443 38.807 L 39.443 38.807 Z  M 44.513 32.69 L 44.513 32.69 L 44.513 32.69 Q 44.846 32.69 45.066 32.738 L 45.066 32.738 L 44.943 34.274 L 44.943 34.274 Q 44.744 34.22 44.459 34.22 L 44.459 34.22 L 44.459 34.22 Q 43.675 34.22 43.237 34.623 L 43.237 34.623 L 43.237 34.623 Q 42.8 35.026 42.8 35.751 L 42.8 35.751 L 42.8 38.807 L 41.161 38.807 L 41.161 32.802 L 42.402 32.802 L 42.644 33.812 L 42.724 33.812 L 42.724 33.812 Q 43.004 33.307 43.479 32.998 L 43.479 32.998 L 43.479 32.998 Q 43.954 32.69 44.513 32.69 Z  M 51.114 38.807 L 49.97 38.807 L 49.653 37.991 L 49.61 37.991 L 49.61 37.991 Q 49.196 38.512 48.759 38.713 L 48.759 38.713 L 48.759 38.713 Q 48.321 38.915 47.617 38.915 L 47.617 38.915 L 47.617 38.915 Q 46.753 38.915 46.256 38.421 L 46.256 38.421 L 46.256 38.421 Q 45.759 37.926 45.759 37.013 L 45.759 37.013 L 45.759 37.013 Q 45.759 36.057 46.428 35.603 L 46.428 35.603 L 46.428 35.603 Q 47.096 35.15 48.445 35.101 L 48.445 35.101 L 49.487 35.069 L 49.487 34.806 L 49.487 34.806 Q 49.487 33.893 48.552 33.893 L 48.552 33.893 L 48.552 33.893 Q 47.832 33.893 46.86 34.328 L 46.86 34.328 L 46.318 33.221 L 46.318 33.221 Q 47.354 32.679 48.616 32.679 L 48.616 32.679 L 48.616 32.679 Q 49.825 32.679 50.469 33.205 L 50.469 33.205 L 50.469 33.205 Q 51.114 33.732 51.114 34.806 L 51.114 34.806 L 51.114 38.807 L 51.114 38.807 Z  M 49.487 36.519 L 49.487 36.025 L 48.853 36.047 L 48.853 36.047 Q 48.138 36.068 47.789 36.304 L 47.789 36.304 L 47.789 36.304 Q 47.44 36.541 47.44 37.024 L 47.44 37.024 L 47.44 37.024 Q 47.44 37.717 48.235 37.717 L 48.235 37.717 L 48.235 37.717 Q 48.804 37.717 49.145 37.389 L 49.145 37.389 L 49.145 37.389 Q 49.487 37.062 49.487 36.519 L 49.487 36.519 L 49.487 36.519 Z  M 58.343 34.892 L 58.343 38.807 L 56.705 38.807 L 56.705 35.3 L 56.705 35.3 Q 56.705 34.65 56.474 34.325 L 56.474 34.325 L 56.474 34.325 Q 56.243 34 55.738 34 L 55.738 34 L 55.738 34 Q 55.051 34 54.745 34.459 L 54.745 34.459 L 54.745 34.459 Q 54.439 34.919 54.439 35.982 L 54.439 35.982 L 54.439 38.807 L 52.8 38.807 L 52.8 32.802 L 54.052 32.802 L 54.272 33.57 L 54.363 33.57 L 54.363 33.57 Q 54.637 33.135 55.118 32.913 L 55.118 32.913 L 55.118 32.913 Q 55.599 32.69 56.211 32.69 L 56.211 32.69 L 56.211 32.69 Q 57.258 32.69 57.801 33.256 L 57.801 33.256 L 57.801 33.256 Q 58.343 33.823 58.343 34.892 L 58.343 34.892 L 58.343 34.892 Z  M 62.56 37.61 L 62.56 37.61 L 62.56 37.61 Q 62.989 37.61 63.591 37.422 L 63.591 37.422 L 63.591 38.641 L 63.591 38.641 Q 62.979 38.915 62.087 38.915 L 62.087 38.915 L 62.087 38.915 Q 61.104 38.915 60.656 38.418 L 60.656 38.418 L 60.656 38.418 Q 60.207 37.921 60.207 36.927 L 60.207 36.927 L 60.207 34.032 L 59.423 34.032 L 59.423 33.34 L 60.325 32.792 L 60.798 31.524 L 61.845 31.524 L 61.845 32.802 L 63.527 32.802 L 63.527 34.032 L 61.845 34.032 L 61.845 36.927 L 61.845 36.927 Q 61.845 37.277 62.041 37.443 L 62.041 37.443 L 62.041 37.443 Q 62.238 37.61 62.56 37.61 Z  M 67.292 33.855 L 67.292 33.855 L 67.292 33.855 Q 66.771 33.855 66.475 34.185 L 66.475 34.185 L 66.475 34.185 Q 66.18 34.516 66.137 35.123 L 66.137 35.123 L 68.436 35.123 L 68.436 35.123 Q 68.425 34.516 68.119 34.185 L 68.119 34.185 L 68.119 34.185 Q 67.813 33.855 67.292 33.855 Z  M 67.523 38.915 L 67.523 38.915 L 67.523 38.915 Q 66.072 38.915 65.256 38.114 L 65.256 38.114 L 65.256 38.114 Q 64.44 37.314 64.44 35.848 L 64.44 35.848 L 64.44 35.848 Q 64.44 34.339 65.194 33.514 L 65.194 33.514 L 65.194 33.514 Q 65.949 32.69 67.281 32.69 L 67.281 32.69 L 67.281 32.69 Q 68.554 32.69 69.263 33.415 L 69.263 33.415 L 69.263 33.415 Q 69.972 34.14 69.972 35.418 L 69.972 35.418 L 69.972 36.213 L 66.099 36.213 L 66.099 36.213 Q 66.126 36.911 66.513 37.303 L 66.513 37.303 L 66.513 37.303 Q 66.9 37.695 67.598 37.695 L 67.598 37.695 L 67.598 37.695 Q 68.14 37.695 68.624 37.583 L 68.624 37.583 L 68.624 37.583 Q 69.107 37.47 69.633 37.223 L 69.633 37.223 L 69.633 38.49 L 69.633 38.49 Q 69.204 38.705 68.715 38.81 L 68.715 38.81 L 68.715 38.81 Q 68.226 38.915 67.523 38.915 Z " fill="rgb(245,245,245)"/></g></svg>