<?xml version="1.0" standalone="no"?><!-- Generator: Gravit.io --><svg xmlns="http://www.w3.org/2000/svg" xmlns:xlink="http://www.w3.org/1999/xlink" style="isolation:isolate" viewBox="3.415 173.312 521.307 248.651" width="521.307" height="248.651"><g><g><path d=" M 422.061 417.428 L 420.731 417.428 L 419.355 413.913 L 414.925 413.913 L 413.565 417.428 L 412.264 417.428 L 416.634 406.331 L 417.715 406.331 L 422.061 417.428 L 422.061 417.428 Z  M 415.379 412.756 L 418.954 412.756 L 417.669 409.332 L 417.669 409.332 Q 417.42 408.682 417.155 407.737 L 417.155 407.737 L 417.155 407.737 Q 416.989 408.462 416.679 409.332 L 416.679 409.332 L 415.379 412.756 L 415.379 412.756 Z  M 429.741 417.428 L 423.58 417.428 L 423.58 406.376 L 424.866 406.376 L 424.866 416.264 L 429.741 416.264 L 429.741 417.428 L 429.741 417.428 Z  M 439.893 417.428 L 438.563 417.428 L 437.187 413.913 L 432.757 413.913 L 431.397 417.428 L 430.097 417.428 L 434.466 406.331 L 435.547 406.331 L 439.893 417.428 L 439.893 417.428 Z  M 433.211 412.756 L 436.786 412.756 L 435.501 409.332 L 435.501 409.332 Q 435.252 408.682 434.987 407.737 L 434.987 407.737 L 434.987 407.737 Q 434.821 408.462 434.511 409.332 L 434.511 409.332 L 433.211 412.756 L 433.211 412.756 Z  M 446.273 412.786 L 446.273 411.637 L 450.03 411.637 L 450.03 417.012 L 450.03 417.012 Q 449.153 417.292 448.246 417.435 L 448.246 417.435 L 448.246 417.435 Q 447.339 417.579 446.145 417.579 L 446.145 417.579 L 446.145 417.579 Q 443.635 417.579 442.237 416.086 L 442.237 416.086 L 442.237 416.086 Q 440.838 414.593 440.838 411.902 L 440.838 411.902 L 440.838 411.902 Q 440.838 410.178 441.53 408.882 L 441.53 408.882 L 441.53 408.882 Q 442.221 407.586 443.522 406.901 L 443.522 406.901 L 443.522 406.901 Q 444.822 406.217 446.568 406.217 L 446.568 406.217 L 446.568 406.217 Q 448.337 406.217 449.864 406.867 L 449.864 406.867 L 449.365 408.001 L 449.365 408.001 Q 447.868 407.366 446.485 407.366 L 446.485 407.366 L 446.485 407.366 Q 444.467 407.366 443.333 408.568 L 443.333 408.568 L 443.333 408.568 Q 442.199 409.77 442.199 411.902 L 442.199 411.902 L 442.199 411.902 Q 442.199 414.139 443.291 415.296 L 443.291 415.296 L 443.291 415.296 Q 444.383 416.453 446.5 416.453 L 446.5 416.453 L 446.5 416.453 Q 447.649 416.453 448.745 416.188 L 448.745 416.188 L 448.745 412.786 L 446.273 412.786 L 446.273 412.786 Z  M 462.276 411.887 L 462.276 411.887 L 462.276 411.887 Q 462.276 414.54 460.934 416.059 L 460.934 416.059 L 460.934 416.059 Q 459.593 417.579 457.204 417.579 L 457.204 417.579 L 457.204 417.579 Q 454.762 417.579 453.436 416.086 L 453.436 416.086 L 453.436 416.086 Q 452.109 414.593 452.109 411.872 L 452.109 411.872 L 452.109 411.872 Q 452.109 409.173 453.439 407.688 L 453.439 407.688 L 453.439 407.688 Q 454.77 406.202 457.219 406.202 L 457.219 406.202 L 457.219 406.202 Q 459.6 406.202 460.938 407.714 L 460.938 407.714 L 460.938 407.714 Q 462.276 409.226 462.276 411.887 Z  M 453.47 411.887 L 453.47 411.887 L 453.47 411.887 Q 453.47 414.132 454.426 415.292 L 454.426 415.292 L 454.426 415.292 Q 455.382 416.453 457.204 416.453 L 457.204 416.453 L 457.204 416.453 Q 459.041 416.453 459.978 415.296 L 459.978 415.296 L 459.978 415.296 Q 460.915 414.139 460.915 411.887 L 460.915 411.887 L 460.915 411.887 Q 460.915 409.657 459.982 408.504 L 459.982 408.504 L 459.982 408.504 Q 459.048 407.351 457.219 407.351 L 457.219 407.351 L 457.219 407.351 Q 455.382 407.351 454.426 408.512 L 454.426 408.512 L 454.426 408.512 Q 453.47 409.672 453.47 411.887 Z  M 473.018 417.428 L 471.687 417.428 L 470.311 413.913 L 465.882 413.913 L 464.521 417.428 L 463.221 417.428 L 467.59 406.331 L 468.671 406.331 L 473.018 417.428 L 473.018 417.428 Z  M 466.335 412.756 L 469.911 412.756 L 468.626 409.332 L 468.626 409.332 Q 468.376 408.682 468.112 407.737 L 468.112 407.737 L 468.112 407.737 Q 467.945 408.462 467.636 409.332 L 467.636 409.332 L 466.335 412.756 L 466.335 412.756 Z  M 480.773 414.487 L 480.773 414.487 L 480.773 414.487 Q 480.773 415.946 479.715 416.762 L 479.715 416.762 L 479.715 416.762 Q 478.657 417.579 476.843 417.579 L 476.843 417.579 L 476.843 417.579 Q 474.877 417.579 473.819 417.072 L 473.819 417.072 L 473.819 415.833 L 473.819 415.833 Q 474.499 416.12 475.301 416.286 L 475.301 416.286 L 475.301 416.286 Q 476.102 416.453 476.888 416.453 L 476.888 416.453 L 476.888 416.453 Q 478.173 416.453 478.823 415.965 L 478.823 415.965 L 478.823 415.965 Q 479.473 415.477 479.473 414.608 L 479.473 414.608 L 479.473 414.608 Q 479.473 414.034 479.243 413.667 L 479.243 413.667 L 479.243 413.667 Q 479.012 413.3 478.472 412.99 L 478.472 412.99 L 478.472 412.99 Q 477.931 412.68 476.828 412.287 L 476.828 412.287 L 476.828 412.287 Q 475.285 411.736 474.624 410.98 L 474.624 410.98 L 474.624 410.98 Q 473.963 410.224 473.963 409.007 L 473.963 409.007 L 473.963 409.007 Q 473.963 407.729 474.923 406.973 L 474.923 406.973 L 474.923 406.973 Q 475.883 406.217 477.462 406.217 L 477.462 406.217 L 477.462 406.217 Q 479.11 406.217 480.494 406.822 L 480.494 406.822 L 480.093 407.941 L 480.093 407.941 Q 478.725 407.366 477.432 407.366 L 477.432 407.366 L 477.432 407.366 Q 476.412 407.366 475.837 407.805 L 475.837 407.805 L 475.837 407.805 Q 475.263 408.243 475.263 409.022 L 475.263 409.022 L 475.263 409.022 Q 475.263 409.596 475.474 409.963 L 475.474 409.963 L 475.474 409.963 Q 475.686 410.33 476.189 410.636 L 476.189 410.636 L 476.189 410.636 Q 476.691 410.942 477.727 411.312 L 477.727 411.312 L 477.727 411.312 Q 479.466 411.932 480.12 412.643 L 480.12 412.643 L 480.12 412.643 Q 480.773 413.353 480.773 414.487 Z  M 398.688 411.796 L 398.688 411.796 L 398.688 411.796 Q 398.688 414.532 397.203 415.98 L 397.203 415.98 L 397.203 415.98 Q 395.717 417.428 392.928 417.428 L 392.928 417.428 L 389.866 417.428 L 389.866 406.376 L 393.253 406.376 L 393.253 406.376 Q 395.831 406.376 397.259 407.805 L 397.259 407.805 L 397.259 407.805 Q 398.688 409.233 398.688 411.796 Z  M 397.327 411.841 L 397.327 411.841 L 397.327 411.841 Q 397.327 409.679 396.243 408.583 L 396.243 408.583 L 396.243 408.583 Q 395.158 407.487 393.019 407.487 L 393.019 407.487 L 391.152 407.487 L 391.152 416.316 L 392.716 416.316 L 392.716 416.316 Q 395.014 416.316 396.171 415.186 L 396.171 415.186 L 396.171 415.186 Q 397.327 414.056 397.327 411.841 Z  M 407.313 416.279 L 407.313 417.428 L 401.152 417.428 L 401.152 406.376 L 407.313 406.376 L 407.313 407.518 L 402.437 407.518 L 402.437 411.078 L 407.018 411.078 L 407.018 412.212 L 402.437 412.212 L 402.437 416.279 L 407.313 416.279 L 407.313 416.279 Z  M 462.019 396.444 L 462.019 401.169 L 460.734 401.169 L 460.734 390.117 L 466.895 390.117 L 466.895 391.259 L 462.019 391.259 L 462.019 395.303 L 466.6 395.303 L 466.6 396.444 L 462.019 396.444 L 462.019 396.444 Z  M 474.885 400.02 L 474.885 401.169 L 468.724 401.169 L 468.724 390.117 L 474.885 390.117 L 474.885 391.259 L 470.009 391.259 L 470.009 394.819 L 474.59 394.819 L 474.59 395.953 L 470.009 395.953 L 470.009 400.02 L 474.885 400.02 L 474.885 400.02 Z  M 486.156 395.537 L 486.156 395.537 L 486.156 395.537 Q 486.156 398.274 484.67 399.721 L 484.67 399.721 L 484.67 399.721 Q 483.185 401.169 480.395 401.169 L 480.395 401.169 L 477.334 401.169 L 477.334 390.117 L 480.72 390.117 L 480.72 390.117 Q 483.298 390.117 484.727 391.546 L 484.727 391.546 L 484.727 391.546 Q 486.156 392.975 486.156 395.537 Z  M 484.795 395.582 L 484.795 395.582 L 484.795 395.582 Q 484.795 393.421 483.71 392.324 L 483.71 392.324 L 483.71 392.324 Q 482.625 391.228 480.486 391.228 L 480.486 391.228 L 478.619 391.228 L 478.619 400.057 L 480.184 400.057 L 480.184 400.057 Q 482.482 400.057 483.638 398.927 L 483.638 398.927 L 483.638 398.927 Q 484.795 397.797 484.795 395.582 Z  M 494.781 400.02 L 494.781 401.169 L 488.62 401.169 L 488.62 390.117 L 494.781 390.117 L 494.781 391.259 L 489.905 391.259 L 489.905 394.819 L 494.486 394.819 L 494.486 395.953 L 489.905 395.953 L 489.905 400.02 L 494.781 400.02 L 494.781 400.02 Z  M 500.82 396.573 L 498.515 396.573 L 498.515 401.169 L 497.23 401.169 L 497.23 390.117 L 500.261 390.117 L 500.261 390.117 Q 502.294 390.117 503.266 390.896 L 503.266 390.896 L 503.266 390.896 Q 504.237 391.674 504.237 393.239 L 504.237 393.239 L 504.237 393.239 Q 504.237 395.431 502.015 396.202 L 502.015 396.202 L 505.016 401.169 L 503.496 401.169 L 500.82 396.573 L 500.82 396.573 Z  M 498.515 391.243 L 498.515 395.469 L 500.276 395.469 L 500.276 395.469 Q 501.637 395.469 502.272 394.929 L 502.272 394.929 L 502.272 394.929 Q 502.907 394.388 502.907 393.307 L 502.907 393.307 L 502.907 393.307 Q 502.907 392.211 502.26 391.727 L 502.26 391.727 L 502.26 391.727 Q 501.614 391.243 500.185 391.243 L 500.185 391.243 L 498.515 391.243 L 498.515 391.243 Z  M 515.077 401.169 L 513.747 401.169 L 512.371 397.654 L 507.941 397.654 L 506.581 401.169 L 505.28 401.169 L 509.65 390.072 L 510.731 390.072 L 515.077 401.169 L 515.077 401.169 Z  M 508.395 396.497 L 511.97 396.497 L 510.685 393.073 L 510.685 393.073 Q 510.436 392.423 510.171 391.478 L 510.171 391.478 L 510.171 391.478 Q 510.005 392.203 509.695 393.073 L 509.695 393.073 L 508.395 396.497 L 508.395 396.497 Z  M 522.757 401.169 L 516.596 401.169 L 516.596 390.117 L 517.882 390.117 L 517.882 400.005 L 522.757 400.005 L 522.757 401.169 L 522.757 401.169 Z  M 355.328 390.117 L 356.614 390.117 L 356.614 397.268 L 356.614 397.268 Q 356.614 399.158 355.472 400.239 L 355.472 400.239 L 355.472 400.239 Q 354.331 401.32 352.335 401.32 L 352.335 401.32 L 352.335 401.32 Q 350.339 401.32 349.247 400.231 L 349.247 400.231 L 349.247 400.231 Q 348.155 399.143 348.155 397.238 L 348.155 397.238 L 348.155 390.117 L 349.44 390.117 L 349.44 397.329 L 349.44 397.329 Q 349.44 398.712 350.196 399.453 L 350.196 399.453 L 350.196 399.453 Q 350.952 400.194 352.418 400.194 L 352.418 400.194 L 352.418 400.194 Q 353.817 400.194 354.573 399.449 L 354.573 399.449 L 354.573 399.449 Q 355.328 398.704 355.328 397.313 L 355.328 397.313 L 355.328 390.117 L 355.328 390.117 Z  M 368.172 390.117 L 368.172 401.169 L 366.705 401.169 L 360.665 391.894 L 360.605 391.894 L 360.605 391.894 Q 360.726 393.526 360.726 394.887 L 360.726 394.887 L 360.726 401.169 L 359.539 401.169 L 359.539 390.117 L 360.99 390.117 L 367.015 399.354 L 367.075 399.354 L 367.075 399.354 Q 367.06 399.15 367.007 398.043 L 367.007 398.043 L 367.007 398.043 Q 366.955 396.936 366.97 396.459 L 366.97 396.459 L 366.97 390.117 L 368.172 390.117 L 368.172 390.117 Z  M 372.495 401.169 L 371.21 401.169 L 371.21 390.117 L 372.495 390.117 L 372.495 401.169 L 372.495 401.169 Z  M 379.314 397.223 L 381.839 390.117 L 383.222 390.117 L 379.238 401.169 L 377.968 401.169 L 374.007 390.117 L 375.368 390.117 L 377.908 397.268 L 377.908 397.268 Q 378.346 398.5 378.603 399.664 L 378.603 399.664 L 378.603 399.664 Q 378.875 398.44 379.314 397.223 L 379.314 397.223 L 379.314 397.223 Z  M 390.902 400.02 L 390.902 401.169 L 384.741 401.169 L 384.741 390.117 L 390.902 390.117 L 390.902 391.259 L 386.026 391.259 L 386.026 394.819 L 390.607 394.819 L 390.607 395.953 L 386.026 395.953 L 386.026 400.02 L 390.902 400.02 L 390.902 400.02 Z  M 396.942 396.573 L 394.636 396.573 L 394.636 401.169 L 393.351 401.169 L 393.351 390.117 L 396.382 390.117 L 396.382 390.117 Q 398.416 390.117 399.387 390.896 L 399.387 390.896 L 399.387 390.896 Q 400.359 391.674 400.359 393.239 L 400.359 393.239 L 400.359 393.239 Q 400.359 395.431 398.136 396.202 L 398.136 396.202 L 401.137 401.169 L 399.618 401.169 L 396.942 396.573 L 396.942 396.573 Z  M 394.636 391.243 L 394.636 395.469 L 396.398 395.469 L 396.398 395.469 Q 397.758 395.469 398.393 394.929 L 398.393 394.929 L 398.393 394.929 Q 399.028 394.388 399.028 393.307 L 399.028 393.307 L 399.028 393.307 Q 399.028 392.211 398.382 391.727 L 398.382 391.727 L 398.382 391.727 Q 397.736 391.243 396.307 391.243 L 396.307 391.243 L 394.636 391.243 L 394.636 391.243 Z  M 409.158 398.228 L 409.158 398.228 L 409.158 398.228 Q 409.158 399.687 408.099 400.503 L 408.099 400.503 L 408.099 400.503 Q 407.041 401.32 405.227 401.32 L 405.227 401.32 L 405.227 401.32 Q 403.261 401.32 402.203 400.813 L 402.203 400.813 L 402.203 399.574 L 402.203 399.574 Q 402.883 399.861 403.685 400.027 L 403.685 400.027 L 403.685 400.027 Q 404.486 400.194 405.272 400.194 L 405.272 400.194 L 405.272 400.194 Q 406.557 400.194 407.207 399.706 L 407.207 399.706 L 407.207 399.706 Q 407.857 399.218 407.857 398.349 L 407.857 398.349 L 407.857 398.349 Q 407.857 397.775 407.627 397.408 L 407.627 397.408 L 407.627 397.408 Q 407.396 397.041 406.856 396.731 L 406.856 396.731 L 406.856 396.731 Q 406.315 396.422 405.212 396.028 L 405.212 396.028 L 405.212 396.028 Q 403.67 395.477 403.008 394.721 L 403.008 394.721 L 403.008 394.721 Q 402.347 393.965 402.347 392.748 L 402.347 392.748 L 402.347 392.748 Q 402.347 391.47 403.307 390.714 L 403.307 390.714 L 403.307 390.714 Q 404.267 389.958 405.847 389.958 L 405.847 389.958 L 405.847 389.958 Q 407.495 389.958 408.878 390.563 L 408.878 390.563 L 408.477 391.682 L 408.477 391.682 Q 407.109 391.107 405.816 391.107 L 405.816 391.107 L 405.816 391.107 Q 404.796 391.107 404.221 391.546 L 404.221 391.546 L 404.221 391.546 Q 403.647 391.984 403.647 392.763 L 403.647 392.763 L 403.647 392.763 Q 403.647 393.337 403.859 393.704 L 403.859 393.704 L 403.859 393.704 Q 404.07 394.071 404.573 394.377 L 404.573 394.377 L 404.573 394.377 Q 405.076 394.683 406.111 395.053 L 406.111 395.053 L 406.111 395.053 Q 407.85 395.673 408.504 396.384 L 408.504 396.384 L 408.504 396.384 Q 409.158 397.094 409.158 398.228 Z  M 412.703 401.169 L 411.418 401.169 L 411.418 390.117 L 412.703 390.117 L 412.703 401.169 L 412.703 401.169 Z  M 424.556 395.537 L 424.556 395.537 L 424.556 395.537 Q 424.556 398.274 423.07 399.721 L 423.07 399.721 L 423.07 399.721 Q 421.585 401.169 418.796 401.169 L 418.796 401.169 L 415.734 401.169 L 415.734 390.117 L 419.121 390.117 L 419.121 390.117 Q 421.698 390.117 423.127 391.546 L 423.127 391.546 L 423.127 391.546 Q 424.556 392.975 424.556 395.537 Z  M 423.195 395.582 L 423.195 395.582 L 423.195 395.582 Q 423.195 393.421 422.11 392.324 L 422.11 392.324 L 422.11 392.324 Q 421.025 391.228 418.886 391.228 L 418.886 391.228 L 417.019 391.228 L 417.019 400.057 L 418.584 400.057 L 418.584 400.057 Q 420.882 400.057 422.038 398.927 L 422.038 398.927 L 422.038 398.927 Q 423.195 397.797 423.195 395.582 Z  M 435.297 401.169 L 433.967 401.169 L 432.591 397.654 L 428.161 397.654 L 426.801 401.169 L 425.501 401.169 L 429.87 390.072 L 430.951 390.072 L 435.297 401.169 L 435.297 401.169 Z  M 428.615 396.497 L 432.19 396.497 L 430.905 393.073 L 430.905 393.073 Q 430.656 392.423 430.391 391.478 L 430.391 391.478 L 430.391 391.478 Q 430.225 392.203 429.915 393.073 L 429.915 393.073 L 428.615 396.497 L 428.615 396.497 Z  M 445.638 395.537 L 445.638 395.537 L 445.638 395.537 Q 445.638 398.274 444.153 399.721 L 444.153 399.721 L 444.153 399.721 Q 442.667 401.169 439.878 401.169 L 439.878 401.169 L 436.817 401.169 L 436.817 390.117 L 440.203 390.117 L 440.203 390.117 Q 442.781 390.117 444.21 391.546 L 444.21 391.546 L 444.21 391.546 Q 445.638 392.975 445.638 395.537 Z  M 444.278 395.582 L 444.278 395.582 L 444.278 395.582 Q 444.278 393.421 443.193 392.324 L 443.193 392.324 L 443.193 392.324 Q 442.108 391.228 439.969 391.228 L 439.969 391.228 L 438.102 391.228 L 438.102 400.057 L 439.666 400.057 L 439.666 400.057 Q 441.964 400.057 443.121 398.927 L 443.121 398.927 L 443.121 398.927 Q 444.278 397.797 444.278 395.582 Z  M 454.263 400.02 L 454.263 401.169 L 448.103 401.169 L 448.103 390.117 L 454.263 390.117 L 454.263 391.259 L 449.388 391.259 L 449.388 394.819 L 453.968 394.819 L 453.968 395.953 L 449.388 395.953 L 449.388 400.02 L 454.263 400.02 L 454.263 400.02 Z " fill="rgb(245,245,245)"/><g><path d=" M 478.38 226.612 L 471.717 371.838 C 470.183 375.588 468.537 375.855 466.687 372.526 L 457.91 226.612 L 478.38 226.612 L 478.38 226.612 Z " fill-rule="evenodd" fill="rgb(0,149,218)"/><path d=" M 446.439 226.612 L 439.777 371.838 C 438.242 375.588 436.596 375.855 434.746 372.526 L 425.969 226.612 L 446.439 226.612 L 446.439 226.612 Z " fill-rule="evenodd" fill="rgb(0,149,218)"/><path d=" M 414.363 226.612 L 407.7 371.838 C 406.166 375.588 404.52 375.855 402.67 372.526 L 393.893 226.612 L 414.363 226.612 L 414.363 226.612 Z " fill-rule="evenodd" fill="rgb(0,149,218)"/><path d=" M 400.19 332.199 L 398.403 331.806 L 397.101 331.577 L 395.823 331.407 L 394.57 331.293 L 393.346 331.23 L 392.151 331.215 L 390.99 331.245 L 389.864 331.315 L 388.776 331.422 L 387.726 331.562 L 386.718 331.733 L 385.754 331.93 L 384.838 332.15 L 383.968 332.391 L 383.149 332.647 L 380.486 333.583 L 383.22 334.411 L 383.993 334.667 L 384.75 334.937 L 385.489 335.222 L 386.215 335.523 L 386.924 335.84 L 387.62 336.173 L 388.303 336.523 L 388.976 336.889 L 389.635 337.274 L 390.284 337.677 L 390.924 338.099 L 391.556 338.538 L 392.179 338.998 L 392.794 339.478 L 393.052 339.689 L 392.97 339.92 L 392.688 340.535 L 392.343 341.145 L 391.93 341.771 L 391.442 342.433 L 390.874 343.148 L 390.227 343.933 L 387.591 347.079 L 390.93 345.528 L 391.566 345.254 L 392.201 344.999 L 392.833 344.762 L 393.465 344.538 L 394.095 344.328 L 394.727 344.128 L 395.358 343.936 L 395.99 343.748 L 396.624 343.565 L 397.261 343.382 L 397.898 343.198 L 398.539 343.009 L 399.181 342.816 L 399.826 342.613 L 400.963 342.242 L 400.19 332.198 L 400.19 332.199 Z " fill-rule="evenodd" fill="rgb(35,31,32)"/><path d=" M 399.568 332.739 C 392.612 331.056 386.438 332.119 382.612 333.537 C 386.96 334.806 390.525 336.696 393.829 339.472 C 393.25 341.391 392.062 342.779 390.003 345.229 C 393.511 343.547 396.844 342.926 400.264 341.775 L 399.568 332.739 Z " fill-rule="evenodd" fill="rgb(237,28,36)"/><path d=" M 474.992 331.068 L 475.991 331.016 L 477.006 330.986 L 478.035 330.985 L 479.084 331.023 L 480.152 331.105 L 481.244 331.237 L 482.361 331.432 L 483.505 331.692 L 484.677 332.028 L 485.882 332.445 L 487.119 332.952 L 488.391 333.553 L 491.171 335.049 L 488.805 335.663 L 488.089 335.865 L 487.389 336.078 L 486.702 336.305 L 486.03 336.542 L 485.371 336.792 L 484.727 337.055 L 484.093 337.331 L 483.475 337.619 L 482.87 337.92 L 482.277 338.233 L 481.698 338.561 L 481.131 338.902 L 480.575 339.257 L 480.033 339.624 L 479.837 339.764 L 479.894 340.051 L 480.076 340.7 L 480.306 341.329 L 480.58 341.948 L 480.9 342.563 L 481.26 343.184 L 481.66 343.817 L 483.225 346.168 L 480.714 345.237 L 480.116 345.019 L 479.525 344.806 L 478.937 344.6 L 478.354 344.396 L 477.773 344.199 L 477.196 344.006 L 476.618 343.819 L 476.042 343.635 L 475.465 343.457 L 474.887 343.283 L 474.305 343.116 L 473.721 342.952 L 473.133 342.794 L 472.539 342.639 L 471.432 342.366 L 471.432 331.331 L 473.023 331.211 L 474.003 331.137 L 474.992 331.069 L 474.992 331.068 Z " fill-rule="evenodd" fill="rgb(35,31,32)"/><path d=" M 472.093 331.943 C 477.311 331.564 482.427 330.876 489.373 334.831 C 485.375 335.829 481.987 337.342 479.107 339.474 C 479.412 341.469 480.327 343.05 481.547 344.839 C 478.294 343.635 475.346 342.638 472.093 341.847 L 472.093 331.943 L 472.093 331.943 Z " fill-rule="evenodd" fill="rgb(237,28,36)"/><path d=" M 480.978 222.418 L 480.35 224.396 L 478.475 225.861 L 478.475 225.773 L 456.514 225.773 L 454.852 224.561 L 454.529 222.418 L 480.978 222.418 L 480.978 222.418 Z " fill-rule="evenodd" fill="rgb(0,149,218)"/><path d=" M 482.523 217.289 L 482.624 217.395 L 482.609 220.62 L 482.091 221.28 L 453.832 221.28 L 453.189 220.565 L 453.197 217.506 L 453.452 217.289 L 482.52 217.289 L 482.523 217.289 Z " fill-rule="evenodd" fill="rgb(0,149,218)"/><path d=" M 454.985 212.344 L 480.94 212.344 L 481.543 216.151 L 454.529 216.151 L 454.985 212.344 Z " fill-rule="evenodd" fill="rgb(0,149,218)"/><path d=" M 450.582 217.289 L 450.684 217.395 L 450.669 220.62 L 450.15 221.28 L 421.891 221.28 L 421.248 220.565 L 421.256 217.506 L 421.511 217.289 L 450.58 217.289 L 450.582 217.289 Z " fill-rule="evenodd" fill="rgb(0,149,218)"/><path d=" M 423.044 212.344 L 449 212.344 L 449.602 216.151 L 422.589 216.151 L 423.044 212.344 L 423.044 212.344 Z " fill-rule="evenodd" fill="rgb(0,149,218)"/><path d=" M 441.339 229.403 L 440.151 260.858 L 438.965 292.312 C 438.958 293.303 440.338 293.456 440.421 292.174 L 444.474 229.42 C 444.162 227.897 442.184 227.772 441.339 229.401 L 441.339 229.403 Z " fill-rule="evenodd" fill="rgb(255,255,255)"/><path d=" M 434.643 230.288 L 435.933 259.89 L 437.224 289.493 C 437.29 290.424 438.462 290.452 438.438 289.244 L 437.279 230.043 C 436.907 228.64 435.234 228.687 434.643 230.288 Z " fill-rule="evenodd" fill="rgb(255,255,255)"/><path d=" M 428.747 230.003 L 431.57 257.954 L 434.391 285.904 C 434.505 286.782 435.677 286.749 435.589 285.607 L 431.367 229.64 C 430.923 228.33 429.256 228.458 428.747 230.003 Z " fill-rule="evenodd" fill="rgb(255,255,255)"/><path d=" M 449.317 222.418 L 448.689 224.396 L 446.814 225.861 L 446.814 225.773 L 424.853 225.773 L 423.191 224.561 L 422.868 222.418 L 449.317 222.418 L 449.317 222.418 Z " fill-rule="evenodd" fill="rgb(0,149,218)"/><path d=" M 466.521 231.927 L 467.812 294.306 L 469.102 356.683 C 469.169 358.644 470.341 358.704 470.316 356.155 L 469.157 231.413 C 468.785 228.455 467.113 228.555 466.521 231.927 L 466.521 231.927 Z " fill-rule="evenodd" fill="rgb(255,255,255)"/><path d=" M 460.625 231.914 L 463.448 294.896 L 466.269 357.877 C 466.383 359.853 467.555 359.782 467.468 357.207 L 463.245 231.096 C 462.801 228.146 461.133 228.434 460.625 231.914 Z " fill-rule="evenodd" fill="rgb(255,255,255)"/><path d=" M 409.092 231.415 L 407.905 294.521 L 406.718 357.629 C 406.71 359.618 408.092 359.923 408.174 357.351 L 412.226 231.449 C 411.915 228.392 409.937 228.141 409.092 231.415 L 409.092 231.415 Z " fill-rule="evenodd" fill="rgb(255,255,255)"/><path d=" M 402.396 232.529 L 403.687 295.798 L 404.977 359.067 C 405.044 361.055 406.216 361.115 406.191 358.532 L 405.032 232.008 C 404.66 229.009 402.987 229.109 402.396 232.529 L 402.396 232.529 Z " fill-rule="evenodd" fill="rgb(255,255,255)"/><path d=" M 396.501 232.459 L 399.322 295.324 L 402.144 358.188 C 402.258 360.162 403.43 360.09 403.343 357.519 L 399.12 231.644 C 398.676 228.698 397.008 228.986 396.501 232.459 L 396.501 232.459 Z " fill-rule="evenodd" fill="rgb(255,255,255)"/><path d=" M 473.217 230.855 L 472.03 293.827 L 470.843 356.798 C 470.836 358.783 472.217 359.087 472.299 356.522 L 476.351 230.889 C 476.041 227.839 474.062 227.588 473.217 230.855 L 473.217 230.855 Z " fill-rule="evenodd" fill="rgb(255,255,255)"/><path d=" M 417.241 222.418 L 416.613 224.396 L 414.738 225.861 L 414.738 225.773 L 392.777 225.773 L 391.115 224.561 L 390.792 222.418 L 417.241 222.418 L 417.241 222.418 Z " fill-rule="evenodd" fill="rgb(0,149,218)"/><path d=" M 418.506 217.289 L 418.607 217.395 L 418.592 220.62 L 418.074 221.28 L 389.815 221.28 L 389.173 220.565 L 389.18 217.506 L 389.435 217.289 L 418.504 217.289 L 418.506 217.289 Z " fill-rule="evenodd" fill="rgb(0,149,218)"/><path d=" M 390.969 212.344 L 416.924 212.344 L 417.526 216.151 L 390.512 216.151 L 390.969 212.344 L 390.969 212.344 Z " fill-rule="evenodd" fill="rgb(0,149,218)"/><path d=" M 493.159 355.062 L 492.836 353.658 L 492.483 352.669 L 492.026 351.73 L 491.472 350.844 L 490.834 350.006 L 490.114 349.216 L 489.324 348.47 L 488.469 347.769 L 487.559 347.106 L 486.597 346.481 L 485.592 345.89 L 484.548 345.334 L 483.473 344.807 L 482.373 344.309 L 481.254 343.839 L 480.121 343.394 L 478.984 342.971 L 477.847 342.571 L 476.716 342.188 L 475.597 341.827 L 474.499 341.48 L 473.426 341.15 L 472.387 340.833 L 471.385 340.527 L 470.431 340.231 L 469.528 339.945 L 468.686 339.667 L 467.912 339.396 L 467.212 339.13 L 466.594 338.87 L 466.069 338.617 L 465.236 338.14 L 460.851 341.473 L 460.814 342.44 L 460.825 343.147 L 460.871 343.877 L 460.95 344.627 L 461.061 345.383 L 461.198 346.141 L 461.36 346.892 L 461.546 347.631 L 461.754 348.346 L 461.981 349.032 L 462.225 349.681 L 462.487 350.288 L 462.764 350.842 L 463.059 351.342 L 463.375 351.779 L 463.829 352.27 L 465.38 352.55 L 466.656 352.808 L 467.885 353.083 L 469.073 353.376 L 470.224 353.686 L 471.341 354.016 L 472.431 354.365 L 473.497 354.733 L 474.546 355.121 L 475.579 355.529 L 476.605 355.958 L 477.624 356.41 L 478.644 356.882 L 479.668 357.38 L 480.701 357.899 L 481.897 358.523 L 482.971 358.505 L 483.851 358.465 L 484.696 358.399 L 485.506 358.308 L 486.283 358.19 L 487.028 358.048 L 487.742 357.881 L 488.424 357.689 L 489.078 357.472 L 489.701 357.232 L 490.295 356.967 L 490.861 356.68 L 491.401 356.369 L 491.912 356.036 L 492.396 355.682 L 493.159 355.06 L 493.159 355.062 Z " fill-rule="evenodd" fill="rgb(35,31,32)"/><path d=" M 492.423 354.81 C 490.627 344.272 469.828 341.846 465.287 338.931 L 461.5 341.81 C 461.263 345.097 462.674 350.303 464.165 351.658 C 471.45 352.912 476.396 354.877 482.055 357.859 C 486.934 357.859 490.187 356.741 492.423 354.81 L 492.423 354.81 Z " fill-rule="evenodd" fill="rgb(237,28,36)"/><path d=" M 377.903 356.585 L 377.952 355.174 L 378.148 354.126 L 378.487 353.121 L 378.96 352.16 L 379.553 351.244 L 380.254 350.373 L 381.056 349.544 L 381.942 348.757 L 382.911 348.006 L 383.949 347.294 L 385.052 346.614 L 386.207 345.973 L 387.41 345.362 L 388.648 344.786 L 389.916 344.242 L 391.205 343.731 L 392.508 343.248 L 393.814 342.799 L 395.116 342.379 L 396.404 341.991 L 397.672 341.632 L 398.91 341.304 L 400.11 341.004 L 401.262 340.735 L 402.361 340.493 L 403.396 340.281 L 404.359 340.097 L 405.241 339.943 L 406.036 339.816 L 406.734 339.717 L 407.331 339.646 L 408.057 339.581 L 411.882 342.439 L 411.845 343.264 L 411.815 343.755 L 411.781 344.256 L 411.738 344.769 L 411.686 345.293 L 411.619 345.83 L 411.54 346.379 L 411.443 346.941 L 411.33 347.514 L 411.195 348.1 L 411.04 348.698 L 410.86 349.309 L 410.657 349.932 L 410.424 350.568 L 410.165 351.216 L 409.764 352.124 L 408.34 352.647 L 407.128 353.037 L 405.891 353.394 L 404.637 353.729 L 403.377 354.051 L 402.119 354.372 L 400.874 354.698 L 399.649 355.042 L 398.458 355.41 L 397.307 355.812 L 396.208 356.257 L 395.169 356.753 L 394.202 357.305 L 393.313 357.924 L 392.509 358.616 L 391.581 359.627 L 390.708 359.661 L 390.05 359.676 L 389.343 359.68 L 388.59 359.672 L 387.8 359.642 L 386.978 359.591 L 386.127 359.511 L 385.256 359.398 L 384.368 359.248 L 383.471 359.057 L 382.569 358.819 L 381.667 358.532 L 380.774 358.187 L 379.892 357.782 L 379.031 357.312 L 377.901 356.584 L 377.903 356.585 Z " fill-rule="evenodd" fill="rgb(35,31,32)"/><path d=" M 378.577 356.232 C 378.145 345.536 403.551 340.564 407.864 340.262 L 411.206 342.759 C 411.098 345.258 410.86 348.146 409.275 351.601 C 403.278 353.973 395.107 354.257 391.283 358.977 C 388.265 359.106 382.726 359.147 378.577 356.232 L 378.577 356.232 Z " fill-rule="evenodd" fill="rgb(237,28,36)"/><path d=" M 386.811 239.614 L 485.36 239.614 L 485.359 305.117 L 485.269 307.153 L 485.039 309.198 L 484.677 311.23 L 484.184 313.249 L 483.569 315.25 L 482.834 317.233 L 481.986 319.193 L 481.029 321.13 L 479.97 323.042 L 478.809 324.926 L 477.554 326.782 L 476.209 328.606 L 474.778 330.397 L 473.265 332.154 L 471.676 333.874 L 470.012 335.555 L 468.283 337.194 L 466.488 338.792 L 464.633 340.345 L 462.724 341.85 L 460.763 343.307 L 458.753 344.712 L 456.702 346.064 L 454.611 347.362 L 452.486 348.602 L 450.33 349.782 L 448.149 350.901 L 445.944 351.957 L 443.723 352.944 L 441.488 353.866 L 439.242 354.717 L 436.604 355.629 L 433.214 354.604 L 430.299 353.608 L 427.474 352.527 L 424.735 351.368 L 422.089 350.132 L 419.533 348.828 L 417.068 347.458 L 414.694 346.029 L 412.415 344.542 L 410.227 343.006 L 408.135 341.422 L 406.135 339.798 L 404.23 338.137 L 402.421 336.444 L 400.707 334.723 L 399.09 332.981 L 397.571 331.219 L 396.148 329.444 L 394.825 327.66 L 393.598 325.872 L 392.471 324.083 L 391.445 322.3 L 390.519 320.526 L 389.692 318.764 L 388.97 317.02 L 388.349 315.299 L 387.831 313.603 L 387.417 311.938 L 387.111 310.306 L 386.91 308.713 L 386.82 307.161 L 386.838 305.718 L 386.812 239.614 L 386.811 239.614 Z " fill-rule="evenodd" fill="rgb(35,31,32)"/><path d=" M 388.134 240.937 L 484.037 240.937 L 484.036 305.088 C 483.834 326.047 460.195 346.472 436.577 354.238 C 404.555 345.196 387.4 320.414 388.161 305.726 L 388.135 240.937 L 388.134 240.937 Z " fill-rule="evenodd" fill="rgb(255,255,255)"/><path d=" M 386.81 239.614 L 485.36 239.614 L 485.359 268.157 L 485.169 268.897 L 484.711 269.582 L 484.153 270.148 L 483.503 270.667 L 482.762 271.167 L 481.936 271.654 L 481.039 272.128 L 480.082 272.581 L 479.084 273.012 L 478.052 273.413 L 477.008 273.776 L 475.965 274.091 L 474.938 274.356 L 473.937 274.559 L 472.973 274.693 L 472.036 274.745 L 471.106 274.672 L 470.191 274.467 L 469.317 274.163 L 468.474 273.784 L 467.66 273.351 L 466.866 272.88 L 466.093 272.388 L 465.335 271.891 L 464.596 271.407 L 463.87 270.947 L 463.165 270.527 L 462.482 270.163 L 461.828 269.869 L 461.204 269.653 L 460.618 269.522 L 460.071 269.477 L 459.528 269.524 L 458.946 269.66 L 458.326 269.885 L 457.671 270.19 L 456.989 270.566 L 456.283 270.999 L 455.558 271.474 L 454.816 271.974 L 454.06 272.487 L 453.285 272.993 L 452.492 273.477 L 451.675 273.923 L 450.831 274.313 L 449.95 274.624 L 449.03 274.832 L 448.087 274.905 L 447.147 274.839 L 446.228 274.639 L 445.35 274.338 L 444.506 273.959 L 443.691 273.527 L 442.896 273.055 L 442.122 272.562 L 441.363 272.063 L 440.624 271.576 L 439.899 271.114 L 439.193 270.693 L 438.51 270.327 L 437.855 270.031 L 437.233 269.813 L 436.648 269.682 L 436.097 269.636 L 435.551 269.68 L 434.971 269.812 L 434.354 270.033 L 433.7 270.335 L 433.02 270.71 L 432.313 271.143 L 431.59 271.618 L 430.849 272.119 L 430.093 272.634 L 429.318 273.141 L 428.526 273.628 L 427.709 274.076 L 426.865 274.469 L 425.983 274.782 L 425.062 274.992 L 424.112 275.065 L 423.168 274.991 L 422.253 274.785 L 421.379 274.483 L 420.536 274.103 L 419.722 273.67 L 418.927 273.199 L 418.155 272.708 L 417.397 272.211 L 416.657 271.726 L 415.932 271.266 L 415.227 270.847 L 414.544 270.483 L 413.89 270.189 L 413.265 269.972 L 412.68 269.841 L 412.133 269.797 L 411.588 269.844 L 411.004 269.978 L 410.382 270.2 L 409.727 270.5 L 409.045 270.872 L 408.339 271.3 L 407.616 271.769 L 406.875 272.265 L 406.12 272.772 L 405.346 273.276 L 404.555 273.759 L 403.741 274.205 L 402.902 274.597 L 402.026 274.915 L 401.112 275.135 L 400.178 275.223 L 399.206 275.18 L 398.224 275.067 L 397.208 274.891 L 396.169 274.659 L 395.122 274.379 L 394.076 274.053 L 393.048 273.689 L 392.051 273.291 L 391.101 272.864 L 390.208 272.41 L 389.386 271.931 L 388.644 271.423 L 387.993 270.879 L 387.438 270.269 L 387.005 269.536 L 386.838 268.772 L 386.812 239.614 L 386.81 239.614 Z " fill-rule="evenodd" fill="rgb(35,31,32)"/><path d=" M 388.134 240.937 L 484.037 240.937 L 484.036 267.991 C 484.021 269.8 476.046 273.399 472.052 273.419 C 468.057 273.415 464.062 268.153 460.067 268.15 C 456.072 268.169 452.078 273.595 448.083 273.578 C 444.088 273.612 440.093 268.313 436.098 268.31 C 432.103 268.295 428.108 273.754 424.114 273.738 C 420.119 273.735 416.124 268.472 412.13 268.469 C 408.135 268.488 404.14 273.83 400.145 273.898 C 395.901 273.883 388.175 270.801 388.161 268.629 L 388.135 240.937 L 388.134 240.937 Z " fill-rule="evenodd" fill="rgb(0,149,218)"/><path d=" M 449.42 263.311 C 448.397 262.413 447.189 262.037 445.74 262.349 C 447.027 260.999 449.503 259.275 452.681 258.355 C 454.692 257.365 455.619 255.184 461.406 256.011 C 460.518 256.507 459.713 257.225 459.663 258.168 C 463.392 258.4 468.042 259.667 470.682 260.71 C 472.298 259.044 472.463 257.77 476.762 257.754 C 475.628 258.783 474.103 259.756 473.695 261.233 C 474.827 262.641 475.486 264.44 477.094 265.458 C 473.635 265.656 472.691 263.339 470.489 262.28 C 468.439 262.795 468.455 263.477 463.75 264.188 C 464.395 264.767 465.124 265.348 465.937 265.844 C 465.59 265.836 465.281 265.863 464.981 265.89 C 463.824 265.746 462.715 265.11 461.626 264.297 C 462.109 265.165 462.744 265.752 463.525 265.99 C 462.695 265.968 461.66 265.757 460.021 264.988 C 456.087 266.035 451.671 265.938 445.88 262.821 C 446.739 262.591 448.004 262.859 449.42 263.311 L 449.42 263.311 Z  M 449.333 260.837 C 449.561 260.837 449.747 261.026 449.747 261.259 C 449.747 261.491 449.561 261.681 449.333 261.681 C 449.105 261.681 448.918 261.491 448.918 261.259 C 448.918 261.026 449.105 260.837 449.333 260.837 Z " fill-rule="evenodd" fill="rgb(255,255,255)"/><path d=" M 427.187 253.037 C 426.335 252.16 425.163 251.754 423.524 252.033 C 424.859 250.71 427.498 249.124 430.623 248.22 C 432.634 247.23 433.166 245.217 438.953 245.989 C 438.064 246.484 437.429 246.976 437.379 247.918 C 441.108 248.434 446.042 249.53 448.85 250.347 C 450.467 248.682 450.971 247.294 455.044 246.598 C 453.91 247.628 452.327 249.45 451.92 250.927 C 453.053 252.335 455.636 252.663 457.3 253.284 C 453.728 254.784 451.482 253.203 449.224 251.805 C 447.173 252.319 446.171 253.228 441.466 253.939 C 442.111 254.519 442.84 255.098 443.653 255.594 C 443.139 255.587 442.707 255.64 442.272 255.686 C 441.366 255.555 440.44 254.949 439.511 254.247 C 439.977 255.017 440.434 255.587 440.873 255.72 C 440.105 255.65 439.147 255.401 437.738 254.738 C 433.788 255.79 429.354 255.688 423.532 252.537 C 424.567 252.312 425.852 252.619 427.187 253.037 L 427.187 253.037 Z  M 427.048 250.588 C 427.277 250.588 427.463 250.777 427.463 251.009 C 427.463 251.242 427.277 251.431 427.048 251.431 C 426.82 251.431 426.634 251.242 426.634 251.009 C 426.634 250.777 426.82 250.588 427.048 250.588 Z " fill-rule="evenodd" fill="rgb(255,255,255)"/><path d=" M 402.215 263.538 C 401.196 262.701 400.044 262.231 398.599 262.562 C 399.833 261.211 402.039 259.581 405.296 258.639 C 407.307 257.649 408.235 255.466 414.022 256.294 C 413.134 256.789 412.329 257.508 412.279 258.451 C 416.008 258.683 420.658 259.95 423.298 260.993 C 424.915 259.328 425.758 257.77 430.057 257.754 C 428.923 258.783 427.058 260.209 426.31 261.516 C 427.443 262.924 429.177 264.327 430.785 265.344 C 427.326 265.542 425.646 263.735 423.444 262.676 C 421.394 263.191 421.071 263.76 416.366 264.47 C 417.011 265.051 417.739 265.631 418.552 266.127 C 418.011 266.116 417.56 266.179 417.101 266.226 C 416.437 266.142 415.475 265.599 414.214 264.597 C 414.682 265.46 415.282 266.037 416.041 266.27 C 415.227 266.236 414.216 266.012 412.638 265.271 C 408.725 266.312 404.66 266.062 398.936 262.989 C 399.893 262.884 401.029 263.157 402.215 263.538 L 402.215 263.538 Z  M 403.024 260.554 C 403.252 260.554 403.438 260.743 403.438 260.975 C 403.438 261.208 403.252 261.397 403.024 261.397 C 402.796 261.397 402.61 261.208 402.61 260.975 C 402.61 260.743 402.796 260.554 403.024 260.554 Z " fill-rule="evenodd" fill="rgb(255,255,255)"/><path d=" M 378.134 355.051 L 379.947 356.129 L 380.925 356.604 L 381.967 357.012 L 383.071 357.357 L 384.24 357.639 L 385.472 357.862 L 386.766 358.029 L 388.119 358.143 L 389.535 358.204 L 391.008 358.219 L 392.54 358.189 L 394.126 358.118 L 395.77 358.009 L 397.466 357.865 L 399.216 357.689 L 401.017 357.486 L 402.871 357.256 L 404.774 357.006 L 406.726 356.738 L 408.725 356.456 L 410.773 356.161 L 412.866 355.859 L 415.004 355.552 L 417.186 355.246 L 419.413 354.941 L 421.682 354.642 L 423.992 354.353 L 426.342 354.076 L 428.733 353.815 L 431.162 353.575 L 433.63 353.357 L 436.16 353.164 L 437.998 353.201 L 439.882 353.283 L 441.829 353.401 L 443.831 353.556 L 445.882 353.739 L 447.973 353.948 L 450.099 354.178 L 452.249 354.425 L 454.42 354.682 L 456.601 354.948 L 458.788 355.216 L 460.968 355.484 L 463.139 355.746 L 465.29 355.997 L 467.414 356.234 L 469.504 356.451 L 471.553 356.645 L 473.551 356.81 L 475.494 356.943 L 477.369 357.04 L 479.172 357.094 L 480.893 357.106 L 482.525 357.065 L 484.058 356.972 L 485.485 356.82 L 486.796 356.609 L 487.982 356.334 L 489.034 355.995 L 489.942 355.592 L 490.701 355.127 L 491.307 354.602 L 492.587 352.963 L 493.138 354.744 L 493.286 355.346 L 493.4 355.962 L 493.475 356.587 L 493.508 357.221 L 493.497 357.865 L 493.443 358.514 L 493.337 359.184 L 492.787 361.111 L 492.128 362.822 L 491.358 364.341 L 490.476 365.677 L 489.487 366.834 L 488.393 367.819 L 487.201 368.637 L 485.918 369.298 L 484.553 369.81 L 483.11 370.186 L 481.592 370.439 L 480.003 370.582 L 478.346 370.623 L 476.621 370.578 L 474.831 370.456 L 472.977 370.268 L 471.063 370.021 L 469.089 369.73 L 467.057 369.404 L 464.969 369.052 L 462.828 368.684 L 460.637 368.311 L 458.396 367.943 L 456.109 367.589 L 453.78 367.258 L 451.408 366.963 L 448.999 366.711 L 446.552 366.515 L 444.073 366.38 L 441.562 366.322 L 439.023 366.345 L 436.415 366.465 L 434.152 366.371 L 431.915 366.386 L 429.663 366.495 L 427.4 366.687 L 425.133 366.951 L 422.865 367.277 L 420.601 367.654 L 418.344 368.071 L 416.103 368.514 L 413.877 368.976 L 411.675 369.443 L 409.5 369.907 L 407.356 370.352 L 405.247 370.771 L 403.178 371.15 L 401.151 371.481 L 399.175 371.747 L 397.249 371.942 L 395.38 372.052 L 393.568 372.063 L 391.821 371.965 L 390.14 371.746 L 388.532 371.391 L 387 370.887 L 385.553 370.219 L 384.2 369.377 L 382.95 368.35 L 381.81 367.131 L 380.789 365.711 L 379.889 364.085 L 379.116 362.242 L 378.477 360.196 L 378.33 359.687 L 378.2 359.162 L 378.093 358.63 L 378.008 358.097 L 377.956 357.564 L 377.937 357.039 L 377.956 356.524 L 378.133 355.05 L 378.134 355.051 Z " fill-rule="evenodd" fill="rgb(35,31,32)"/><path d=" M 378.669 356.138 C 388.608 362.684 409.36 355.71 436.179 353.826 C 454.938 353.974 487.395 362.255 492.33 354.365 C 492.824 355.829 493.008 357.418 492.693 359.039 C 487.589 380.015 464.188 363.995 436.416 365.803 C 412.506 364.215 385.134 382.721 379.114 360.006 C 378.711 358.717 378.472 357.272 378.669 356.138 L 378.669 356.138 Z " fill-rule="evenodd" fill="rgb(237,28,36)"/><path d=" M 389.556 366.561 L 390.839 366.04 C 390.916 366.319 391.011 366.521 391.123 366.645 C 391.304 366.845 391.528 366.903 391.789 366.82 C 391.985 366.759 392.124 366.649 392.209 366.492 C 392.293 366.333 392.321 366.172 392.294 366.008 C 392.268 365.851 392.194 365.727 392.071 365.635 C 391.95 365.543 391.697 365.499 391.311 365.506 C 390.68 365.51 390.211 365.402 389.904 365.177 C 389.595 364.954 389.4 364.606 389.32 364.134 C 389.267 363.824 389.283 363.51 389.368 363.193 C 389.454 362.876 389.616 362.597 389.853 362.355 C 390.091 362.114 390.441 361.922 390.902 361.776 C 391.468 361.599 391.925 361.607 392.27 361.799 C 392.615 361.992 392.87 362.393 393.032 363.001 L 391.759 363.508 C 391.679 363.248 391.574 363.073 391.442 362.984 C 391.312 362.896 391.151 362.882 390.957 362.943 C 390.797 362.993 390.686 363.076 390.621 363.193 C 390.556 363.31 390.535 363.435 390.557 363.567 C 390.572 363.663 390.621 363.738 390.7 363.795 C 390.779 363.854 390.943 363.879 391.198 363.872 C 391.825 363.86 392.284 363.901 392.572 364.001 C 392.861 364.1 393.088 364.262 393.251 364.492 C 393.413 364.721 393.524 365 393.58 365.33 C 393.646 365.716 393.627 366.098 393.525 366.473 C 393.423 366.85 393.245 367.166 392.992 367.424 C 392.739 367.681 392.398 367.877 391.969 368.012 C 391.216 368.249 390.661 368.216 390.304 367.911 C 389.947 367.607 389.697 367.157 389.556 366.56 L 389.556 366.561 Z  M 397.254 363.923 L 398.531 364.131 C 398.508 364.614 398.431 365.03 398.296 365.384 C 398.162 365.737 397.973 366.023 397.735 366.244 C 397.495 366.465 397.175 366.622 396.775 366.718 C 396.288 366.835 395.878 366.834 395.546 366.716 C 395.212 366.597 394.902 366.322 394.614 365.89 C 394.329 365.458 394.135 364.865 394.038 364.109 C 393.907 363.099 394.004 362.275 394.328 361.64 C 394.651 361.002 395.174 360.597 395.894 360.424 C 396.458 360.288 396.921 360.337 397.284 360.57 C 397.647 360.804 397.948 361.224 398.189 361.829 L 397.015 362.492 C 396.948 362.317 396.885 362.191 396.828 362.115 C 396.732 361.991 396.622 361.903 396.501 361.852 C 396.378 361.801 396.248 361.792 396.109 361.826 C 395.797 361.901 395.579 362.13 395.456 362.514 C 395.363 362.799 395.351 363.215 395.423 363.762 C 395.511 364.439 395.646 364.884 395.828 365.099 C 396.012 365.314 396.241 365.388 396.512 365.323 C 396.777 365.259 396.964 365.111 397.072 364.874 C 397.182 364.641 397.242 364.324 397.254 363.923 L 397.254 363.923 Z  M 398.817 359.976 L 400.206 359.675 L 400.918 365.791 L 399.527 366.092 L 398.817 359.976 Z  M 401.39 359.461 L 405.125 358.836 L 405.242 360.148 L 402.904 360.539 L 402.993 361.516 L 405.162 361.154 L 405.274 362.407 L 403.106 362.77 L 403.214 363.981 L 405.621 363.578 L 405.746 364.97 L 401.943 365.607 L 401.39 359.461 L 401.39 359.461 Z  M 406.002 358.766 L 407.307 358.579 L 409.272 361.741 L 409.009 358.335 L 410.326 358.146 L 410.801 364.305 L 409.485 364.494 L 407.53 361.354 L 407.791 364.736 L 406.477 364.924 L 406.002 358.766 L 406.002 358.766 Z  M 411.124 358.108 L 415.383 357.702 L 415.46 359.228 L 414.032 359.365 L 414.27 364.016 L 412.869 364.149 L 412.63 359.498 L 411.202 359.635 L 411.124 358.108 L 411.124 358.108 Z  M 416.083 357.64 L 417.487 357.507 L 417.804 363.684 L 416.4 363.817 L 416.083 357.64 L 416.083 357.64 Z  M 421.569 362.441 L 419.971 362.555 L 419.791 363.591 L 418.358 363.694 L 419.826 357.388 L 421.355 357.278 L 423.299 363.34 L 421.832 363.445 L 421.569 362.441 L 421.569 362.441 Z  M 421.224 361.124 L 420.637 358.937 L 420.224 361.196 L 421.224 361.124 L 421.224 361.124 Z  M 428.641 362.171 L 427.042 362.247 L 426.848 363.28 L 425.414 363.348 L 426.962 357.078 L 428.493 357.005 L 430.359 363.112 L 428.891 363.182 L 428.641 362.171 L 428.641 362.171 Z  M 428.313 360.847 L 427.753 358.646 L 427.311 360.895 L 428.313 360.847 Z  M 430.751 356.972 L 432.837 356.922 C 433.248 356.911 433.581 356.981 433.836 357.127 C 434.092 357.273 434.304 357.486 434.473 357.766 C 434.642 358.048 434.765 358.374 434.845 358.751 C 434.924 359.127 434.967 359.525 434.972 359.947 C 434.979 360.609 434.932 361.124 434.825 361.491 C 434.72 361.858 434.57 362.167 434.377 362.418 C 434.184 362.668 433.976 362.838 433.752 362.926 C 433.444 363.045 433.166 363.108 432.917 363.114 L 430.83 363.163 L 430.751 356.972 Z  M 432.173 358.341 L 432.216 361.723 L 432.56 361.716 C 432.854 361.708 433.062 361.661 433.185 361.568 C 433.307 361.477 433.402 361.32 433.47 361.097 C 433.538 360.875 433.568 360.516 433.561 360.02 C 433.553 359.364 433.469 358.918 433.31 358.679 C 433.149 358.441 432.887 358.325 432.523 358.334 L 432.173 358.341 L 432.173 358.341 Z  M 437.649 361.045 L 438.987 360.963 C 439.013 361.26 439.068 361.486 439.155 361.644 C 439.295 361.897 439.502 362.027 439.77 362.033 C 439.97 362.037 440.125 361.978 440.236 361.852 C 440.345 361.726 440.402 361.579 440.403 361.41 C 440.405 361.251 440.357 361.105 440.255 360.976 C 440.153 360.847 439.915 360.721 439.539 360.6 C 438.926 360.397 438.491 360.137 438.232 359.817 C 437.971 359.498 437.845 359.097 437.851 358.613 C 437.854 358.295 437.926 357.994 438.065 357.715 C 438.205 357.436 438.41 357.219 438.684 357.063 C 438.958 356.908 439.332 356.835 439.805 356.846 C 440.385 356.861 440.827 357.018 441.128 357.319 C 441.429 357.622 441.604 358.094 441.654 358.737 L 440.329 358.811 C 440.299 358.531 440.226 358.327 440.115 358.197 C 440.004 358.068 439.85 358.002 439.651 357.997 C 439.487 357.994 439.364 358.036 439.28 358.129 C 439.196 358.221 439.153 358.336 439.152 358.471 C 439.15 358.569 439.182 358.658 439.25 358.739 C 439.316 358.823 439.472 358.901 439.719 358.977 C 440.33 359.173 440.767 359.366 441.031 359.557 C 441.294 359.747 441.485 359.98 441.601 360.257 C 441.719 360.532 441.776 360.839 441.772 361.178 C 441.768 361.574 441.68 361.939 441.516 362.269 C 441.35 362.601 441.122 362.85 440.829 363.015 C 440.539 363.182 440.173 363.26 439.732 363.249 C 438.96 363.23 438.427 363.017 438.135 362.602 C 437.842 362.19 437.68 361.671 437.649 361.045 L 437.649 361.045 Z  M 445.274 362.221 L 443.674 362.145 L 443.428 363.157 L 441.995 363.088 L 443.86 356.981 L 445.39 357.054 L 446.94 363.324 L 445.471 363.254 L 445.274 362.221 L 445.274 362.221 Z  M 445.014 360.87 L 444.568 358.621 L 444.012 360.822 L 445.014 360.87 L 445.014 360.87 Z  M 447.624 357.11 L 449.955 357.276 C 450.462 357.314 450.836 357.504 451.076 357.852 C 451.316 358.198 451.424 358.677 451.402 359.282 C 451.379 359.908 451.221 360.386 450.931 360.718 C 450.642 361.049 450.214 361.195 449.65 361.155 L 448.883 361.1 L 448.794 363.394 L 447.385 363.294 L 447.624 357.11 L 447.624 357.11 Z  M 448.93 359.847 L 449.274 359.873 C 449.545 359.892 449.736 359.843 449.851 359.721 C 449.965 359.602 450.026 359.441 450.034 359.243 C 450.041 359.048 450 358.879 449.91 358.739 C 449.821 358.596 449.645 358.516 449.383 358.498 L 448.984 358.468 L 448.93 359.847 L 448.93 359.847 Z  M 452.269 357.461 L 453.676 357.561 L 453.437 363.745 L 452.032 363.645 L 452.269 357.461 L 452.269 357.461 Z  M 454.761 357.561 L 458.515 357.918 L 458.447 359.237 L 456.098 359.013 L 456.047 359.995 L 458.227 360.203 L 458.163 361.463 L 455.982 361.256 L 455.921 362.473 L 458.339 362.703 L 458.267 364.102 L 454.444 363.738 L 454.761 357.561 L 454.761 357.561 Z  M 459.437 358.015 L 460.744 358.17 L 462.229 361.785 L 462.448 358.373 L 463.767 358.53 L 463.371 364.699 L 462.052 364.542 L 460.573 360.952 L 460.355 364.34 L 459.041 364.182 L 459.437 358.015 L 459.437 358.015 Z  M 464.493 358.61 L 468.73 359.319 L 468.593 360.838 L 467.171 360.599 L 466.754 365.227 L 465.36 364.994 L 465.777 360.366 L 464.356 360.128 L 464.493 358.61 L 464.493 358.61 Z  M 469.527 359.391 L 470.921 359.657 L 470.288 365.79 L 468.895 365.523 L 469.527 359.391 L 469.527 359.391 Z  M 474.189 365.542 L 472.609 365.201 L 472.273 366.164 L 470.857 365.858 L 473.254 360.105 L 474.767 360.432 L 475.744 366.913 L 474.292 366.6 L 474.189 365.542 L 474.189 365.542 Z  M 474.052 364.157 L 473.812 361.85 L 473.063 363.943 L 474.052 364.157 Z  M 477.111 360.879 L 478.917 361.402 L 479.04 365.289 L 480.31 361.805 L 482.111 362.327 L 481.166 368.384 L 480.043 368.059 L 480.765 363.44 L 479.174 367.807 L 478.158 367.512 L 478.011 362.643 L 477.29 367.262 L 476.165 366.936 L 477.111 360.879 L 477.111 360.879 Z " fill-rule="evenodd" fill="rgb(255,255,255)"/><path d=" M 419.131 207.078 L 419.414 206.139 L 419.569 205.197 L 419.602 204.253 L 419.529 203.312 L 419.357 202.37 L 419.099 201.429 L 418.764 200.485 L 418.365 199.536 L 417.907 198.579 L 417.403 197.611 L 416.86 196.629 L 416.288 195.632 L 415.693 194.615 L 415.084 193.579 L 414.469 192.519 L 413.859 191.435 L 413.258 190.323 L 412.678 189.184 L 412.124 188.015 L 411.607 186.816 L 411.133 185.582 L 410.711 184.313 L 410.347 183.007 L 410.052 181.663 L 409.83 180.276 L 409.693 178.847 L 409.568 174.898 L 408.298 177.251 L 408.207 177.605 L 408.142 178.01 L 408.084 178.492 L 408.031 179.055 L 407.981 179.687 L 407.932 180.38 L 407.883 181.12 L 407.835 181.901 L 407.786 182.704 L 407.736 183.52 L 407.682 184.336 L 407.626 185.141 L 407.564 185.919 L 407.541 186.168 L 407.334 185.937 L 406.939 185.347 L 406.594 184.676 L 406.296 183.939 L 406.039 183.149 L 405.816 182.321 L 405.62 181.47 L 405.446 180.612 L 405.281 179.758 L 405.119 178.924 L 404.948 178.119 L 404.761 177.359 L 404.541 176.65 L 404.277 176.003 L 402.724 173.312 L 402.751 177.346 L 402.616 178.774 L 402.349 180.14 L 401.959 181.448 L 401.461 182.708 L 400.864 183.921 L 400.181 185.092 L 399.421 186.222 L 398.6 187.32 L 397.727 188.385 L 396.816 189.421 L 395.878 190.432 L 394.927 191.422 L 393.977 192.392 L 393.038 193.35 L 392.123 194.299 L 391.248 195.244 L 390.422 196.187 L 389.66 197.137 L 388.973 198.096 L 388.378 199.075 L 387.887 200.077 L 387.519 201.107 L 387.291 202.168 L 387.223 203.263 L 387.328 204.383 L 387.621 205.528 L 388.107 206.692 L 388.796 207.878 L 389.696 209.091 L 390.817 210.335 L 392.344 211.785 L 415.404 211.785 L 416.587 210.737 L 417.444 209.835 L 418.149 208.925 L 418.708 208.006 L 419.128 207.078 L 419.131 207.078 Z " fill-rule="evenodd" fill="rgb(35,31,32)"/><path d=" M 392.611 211.124 L 415.157 211.124 C 426.421 201.887 408.954 193.825 408.985 177.37 C 408.605 177.668 408.485 183.833 408.085 187.424 L 407.931 187.402 C 404.477 185.126 405.012 178.098 403.404 175.814 C 404.366 192.855 377.245 197.509 392.611 211.125 L 392.611 211.124 Z " fill-rule="evenodd" fill="rgb(237,28,36)"/><path d=" M 408.008 187.837 L 407.993 188.253 L 407.985 188.643 L 407.984 189.018 L 407.986 189.385 L 407.984 189.753 L 407.977 190.131 L 407.958 190.527 L 407.928 190.95 L 407.88 191.407 L 407.81 191.909 L 407.713 192.461 L 407.589 193.075 L 407.43 193.757 L 407.233 194.516 L 406.996 195.362 L 406.42 197.204 L 405.751 198.818 L 405.006 200.213 L 404.199 201.404 L 403.346 202.402 L 402.462 203.22 L 401.563 203.87 L 400.663 204.366 L 399.781 204.721 L 398.929 204.948 L 398.123 205.06 L 397.38 205.068 L 396.713 204.989 L 396.135 204.832 L 395.661 204.609 L 395.301 204.321 L 394.915 203.662 L 394.692 202.926 L 394.63 202.17 L 394.728 201.451 L 394.997 200.832 L 395.45 200.38 L 396.087 200.193 L 396.85 200.336 L 398.057 200.743 L 399.13 200.992 L 400.095 201.104 L 400.957 201.089 L 401.729 200.966 L 402.415 200.744 L 403.027 200.436 L 403.57 200.052 L 404.057 199.604 L 404.491 199.103 L 404.88 198.561 L 405.227 197.987 L 405.543 197.397 L 405.831 196.802 L 406.102 196.213 L 406.352 195.655 L 406.5 195.151 L 406.641 194.584 L 406.774 193.968 L 406.898 193.321 L 407.014 192.653 L 407.123 191.976 L 407.221 191.302 L 407.311 190.642 L 407.393 190.01 L 407.464 189.418 L 407.528 188.877 L 407.625 187.995 L 407.658 187.678 L 407.685 187.457 L 408.334 182.675 L 408.004 187.835 L 408.008 187.837 Z " fill-rule="evenodd" fill="rgb(35,31,32)"/><path d=" M 440.793 300.906 L 437.803 340.953 C 437.114 342.636 436.376 342.756 435.546 341.261 L 431.607 300.906 L 440.793 300.906 L 440.793 300.906 Z " fill-rule="evenodd" fill="rgb(0,149,218)"/><path d=" M 442.652 296.722 L 442.698 296.769 L 442.69 298.217 L 442.458 298.513 L 429.776 298.513 L 429.488 298.192 L 429.492 296.819 L 429.606 296.722 L 442.651 296.722 L 442.652 296.722 Z " fill-rule="evenodd" fill="rgb(0,149,218)"/><path d=" M 430.295 294.502 L 441.942 294.502 L 442.213 296.211 L 430.09 296.211 L 430.295 294.502 L 430.295 294.502 Z " fill-rule="evenodd" fill="rgb(0,149,218)"/><path d=" M 438.504 302.158 L 437.971 316.275 L 437.439 330.391 C 437.436 330.835 438.055 330.904 438.092 330.329 L 439.911 302.166 C 439.771 301.483 438.883 301.426 438.504 302.158 L 438.504 302.158 Z " fill-rule="evenodd" fill="rgb(255,255,255)"/><path d=" M 435.5 302.556 L 436.079 315.84 L 436.658 329.126 C 436.688 329.543 437.213 329.556 437.202 329.013 L 436.682 302.446 C 436.515 301.816 435.765 301.837 435.5 302.556 L 435.5 302.556 Z " fill-rule="evenodd" fill="rgb(255,255,255)"/><path d=" M 432.854 302.427 L 434.12 314.971 L 435.386 327.515 C 435.437 327.909 435.963 327.894 435.924 327.381 L 434.029 302.264 C 433.83 301.677 433.082 301.734 432.854 302.427 Z " fill-rule="evenodd" fill="rgb(255,255,255)"/><path d=" M 442.084 299.024 L 441.803 299.911 L 440.961 300.569 L 440.961 300.529 L 431.106 300.529 L 430.36 299.986 L 430.215 299.024 L 442.084 299.024 L 442.084 299.024 Z " fill-rule="evenodd" fill="rgb(0,149,218)"/><path d=" M 442.233 293.687 L 442.805 292.861 L 443.124 292.016 L 443.209 291.162 L 443.098 290.31 L 442.83 289.459 L 442.444 288.6 L 441.973 287.724 L 441.448 286.818 L 440.899 285.877 L 440.357 284.893 L 439.849 283.86 L 439.405 282.77 L 439.053 281.617 L 438.822 280.396 L 438.622 277.243 L 438.02 279.239 L 437.962 279.664 L 437.914 280.204 L 437.872 280.84 L 437.832 281.531 L 437.787 282.243 L 437.737 282.936 L 437.734 282.955 L 437.694 282.916 L 437.366 282.358 L 437.119 281.678 L 436.932 280.929 L 436.779 280.161 L 436.63 279.423 L 436.445 278.757 L 435.628 277.081 L 435.516 279.723 L 435.223 280.918 L 434.734 282.022 L 434.089 283.052 L 433.331 284.019 L 432.502 284.937 L 431.649 285.816 L 430.817 286.673 L 430.051 287.522 L 429.399 288.382 L 428.909 289.276 L 428.638 290.224 L 428.656 291.226 L 429.009 292.271 L 429.726 293.353 L 430.923 294.577 L 441.312 294.577 L 442.235 293.689 L 442.233 293.687 Z " fill-rule="evenodd" fill="rgb(35,31,32)"/><path d=" M 431.06 294.245 L 441.177 294.245 C 446.233 290.1 438.394 286.482 438.408 279.097 C 438.217 279.396 438.183 281.998 438.004 283.609 L 437.935 283.598 C 436.384 282.577 436.625 279.423 435.903 278.398 C 436.335 286.045 424.164 288.134 431.06 294.245 L 431.06 294.245 Z " fill-rule="evenodd" fill="rgb(237,28,36)"/><path d=" M 438.196 280.731 L 438.128 284.025 L 438.098 284.462 L 438.052 284.907 L 437.988 285.36 L 437.911 285.816 L 437.821 286.276 L 437.719 286.734 L 437.605 287.199 L 437.043 288.762 L 436.335 289.939 L 435.541 290.769 L 434.714 291.297 L 433.915 291.564 L 433.196 291.621 L 432.608 291.51 L 432.202 291.264 L 432.009 290.933 L 431.903 290.583 L 431.873 290.223 L 431.919 289.879 L 432.052 289.572 L 432.285 289.341 L 432.614 289.243 L 432.981 289.314 L 434 289.606 L 434.796 289.648 L 435.423 289.499 L 435.92 289.202 L 436.319 288.79 L 436.641 288.303 L 436.909 287.777 L 437.138 287.273 L 437.268 286.799 L 437.39 286.238 L 437.501 285.64 L 437.596 285.046 L 437.676 284.5 L 437.737 284.045 L 437.78 283.723 L 438.194 280.731 L 438.196 280.731 Z " fill-rule="evenodd" fill="rgb(35,31,32)"/><path d=" M 451.592 207.078 L 451.875 206.139 L 452.03 205.197 L 452.063 204.253 L 451.99 203.312 L 451.818 202.37 L 451.559 201.429 L 451.225 200.485 L 450.826 199.536 L 450.368 198.579 L 449.864 197.611 L 449.321 196.629 L 448.749 195.632 L 448.154 194.615 L 447.545 193.579 L 446.93 192.519 L 446.32 191.435 L 445.719 190.323 L 445.139 189.184 L 444.585 188.015 L 444.068 186.816 L 443.594 185.582 L 443.171 184.313 L 442.808 183.007 L 442.513 181.663 L 442.291 180.276 L 442.154 178.847 L 442.029 174.898 L 440.759 177.251 L 440.667 177.605 L 440.603 178.01 L 440.544 178.492 L 440.492 179.055 L 440.442 179.687 L 440.393 180.38 L 440.344 181.12 L 440.296 181.901 L 440.247 182.704 L 440.197 183.52 L 440.143 184.336 L 440.086 185.141 L 440.025 185.919 L 440.002 186.168 L 439.795 185.937 L 439.4 185.347 L 439.055 184.676 L 438.757 183.939 L 438.5 183.149 L 438.277 182.321 L 438.081 181.47 L 437.908 180.612 L 437.742 179.758 L 437.58 178.924 L 437.41 178.119 L 437.222 177.359 L 437.002 176.65 L 436.738 176.003 L 435.186 173.312 L 435.212 177.346 L 435.077 178.774 L 434.81 180.14 L 434.42 181.448 L 433.922 182.708 L 433.325 183.921 L 432.642 185.092 L 431.882 186.222 L 431.061 187.32 L 430.188 188.385 L 429.277 189.421 L 428.339 190.432 L 427.389 191.422 L 426.438 192.392 L 425.499 193.35 L 424.584 194.299 L 423.709 195.244 L 422.883 196.187 L 422.121 197.137 L 421.434 198.096 L 420.839 199.075 L 420.348 200.077 L 419.981 201.107 L 419.753 202.168 L 419.685 203.263 L 419.79 204.383 L 420.082 205.528 L 420.569 206.692 L 421.258 207.878 L 422.157 209.091 L 423.278 210.335 L 424.806 211.785 L 447.865 211.785 L 449.048 210.737 L 449.905 209.835 L 450.61 208.925 L 451.169 208.006 L 451.589 207.078 L 451.592 207.078 Z " fill-rule="evenodd" fill="rgb(35,31,32)"/><path d=" M 425.073 211.124 L 447.618 211.124 C 458.883 201.887 441.415 193.825 441.447 177.37 C 441.067 177.668 440.946 183.833 440.546 187.424 L 440.393 187.402 C 436.938 185.126 437.473 178.098 435.865 175.814 C 436.827 192.855 409.707 197.509 425.073 211.125 L 425.073 211.124 Z " fill-rule="evenodd" fill="rgb(237,28,36)"/><path d=" M 440.469 187.837 L 440.454 188.253 L 440.446 188.643 L 440.445 189.018 L 440.447 189.385 L 440.446 189.753 L 440.438 190.131 L 440.42 190.527 L 440.39 190.95 L 440.341 191.407 L 440.271 191.909 L 440.175 192.461 L 440.05 193.075 L 439.891 193.757 L 439.695 194.516 L 439.457 195.362 L 438.882 197.204 L 438.213 198.818 L 437.467 200.213 L 436.66 201.404 L 435.807 202.402 L 434.924 203.22 L 434.025 203.87 L 433.125 204.366 L 432.243 204.721 L 431.39 204.948 L 430.585 205.06 L 429.841 205.068 L 429.175 204.989 L 428.596 204.832 L 428.123 204.609 L 427.762 204.321 L 427.376 203.662 L 427.154 202.926 L 427.092 202.17 L 427.19 201.451 L 427.458 200.832 L 427.912 200.38 L 428.548 200.193 L 429.312 200.336 L 430.518 200.743 L 431.591 200.992 L 432.556 201.104 L 433.419 201.089 L 434.191 200.966 L 434.876 200.744 L 435.488 200.436 L 436.032 200.052 L 436.518 199.604 L 436.952 199.103 L 437.341 198.561 L 437.688 197.987 L 438.004 197.397 L 438.293 196.802 L 438.563 196.213 L 438.814 195.655 L 438.961 195.151 L 439.103 194.584 L 439.235 193.968 L 439.359 193.321 L 439.476 192.653 L 439.584 191.976 L 439.683 191.302 L 439.772 190.642 L 439.854 190.01 L 439.925 189.418 L 439.989 188.877 L 440.086 187.995 L 440.12 187.678 L 440.146 187.457 L 440.796 182.675 L 440.466 187.835 L 440.469 187.837 Z " fill-rule="evenodd" fill="rgb(35,31,32)"/><path d=" M 483.543 207.078 L 483.826 206.139 L 483.981 205.197 L 484.015 204.253 L 483.942 203.312 L 483.769 202.37 L 483.511 201.429 L 483.176 200.485 L 482.778 199.536 L 482.32 198.579 L 481.816 197.611 L 481.272 196.629 L 480.701 195.632 L 480.105 194.615 L 479.497 193.579 L 478.882 192.519 L 478.271 191.435 L 477.67 190.323 L 477.09 189.184 L 476.536 188.015 L 476.02 186.816 L 475.546 185.582 L 475.123 184.313 L 474.759 183.007 L 474.464 181.663 L 474.243 180.276 L 474.106 178.847 L 473.981 174.898 L 472.711 177.251 L 472.619 177.605 L 472.555 178.01 L 472.496 178.492 L 472.444 179.055 L 472.393 179.687 L 472.344 180.38 L 472.295 181.12 L 472.248 181.901 L 472.199 182.704 L 472.148 183.52 L 472.094 184.336 L 472.038 185.141 L 471.976 185.919 L 471.954 186.168 L 471.746 185.937 L 471.351 185.347 L 471.006 184.676 L 470.709 183.939 L 470.452 183.149 L 470.229 182.321 L 470.033 181.47 L 469.859 180.612 L 469.694 179.758 L 469.531 178.924 L 469.361 178.119 L 469.173 177.359 L 468.954 176.65 L 468.689 176.003 L 467.137 173.312 L 467.163 177.346 L 467.028 178.774 L 466.761 180.14 L 466.372 181.448 L 465.874 182.708 L 465.276 183.921 L 464.594 185.092 L 463.834 186.222 L 463.012 187.32 L 462.14 188.385 L 461.228 189.421 L 460.29 190.432 L 459.34 191.422 L 458.389 192.392 L 457.451 193.35 L 456.536 194.299 L 455.661 195.244 L 454.835 196.187 L 454.073 197.137 L 453.386 198.096 L 452.79 199.075 L 452.3 200.077 L 451.932 201.107 L 451.704 202.168 L 451.636 203.263 L 451.741 204.383 L 452.033 205.528 L 452.52 206.692 L 453.209 207.878 L 454.108 209.091 L 455.229 210.335 L 456.757 211.785 L 479.817 211.785 L 481 210.737 L 481.857 209.835 L 482.562 208.925 L 483.121 208.006 L 483.54 207.078 L 483.543 207.078 Z " fill-rule="evenodd" fill="rgb(35,31,32)"/><path d=" M 457.024 211.124 L 479.569 211.124 C 490.834 201.887 473.366 193.825 473.398 177.37 C 473.018 177.668 472.897 183.833 472.497 187.424 L 472.344 187.402 C 468.889 185.126 469.424 178.098 467.817 175.814 C 468.778 192.855 441.658 197.509 457.024 211.125 L 457.024 211.124 Z " fill-rule="evenodd" fill="rgb(237,28,36)"/><path d=" M 472.42 187.837 L 472.405 188.253 L 472.398 188.643 L 472.397 189.018 L 472.399 189.385 L 472.397 189.753 L 472.39 190.131 L 472.371 190.527 L 472.341 190.95 L 472.293 191.407 L 472.223 191.909 L 472.126 192.461 L 472.001 193.075 L 471.842 193.757 L 471.646 194.516 L 471.409 195.362 L 470.833 197.204 L 470.164 198.818 L 469.419 200.213 L 468.612 201.404 L 467.759 202.402 L 466.876 203.22 L 465.976 203.87 L 465.076 204.366 L 464.194 204.721 L 463.342 204.948 L 462.536 205.06 L 461.793 205.068 L 461.126 204.989 L 460.548 204.832 L 460.074 204.609 L 459.714 204.321 L 459.328 203.662 L 459.105 202.926 L 459.043 202.17 L 459.141 201.451 L 459.409 200.832 L 459.863 200.38 L 460.5 200.193 L 461.263 200.336 L 462.47 200.743 L 463.543 200.992 L 464.507 201.104 L 465.37 201.089 L 466.142 200.966 L 466.828 200.744 L 467.44 200.436 L 467.983 200.052 L 468.47 199.604 L 468.904 199.103 L 469.293 198.561 L 469.64 197.987 L 469.956 197.397 L 470.244 196.802 L 470.515 196.213 L 470.765 195.655 L 470.913 195.151 L 471.054 194.584 L 471.187 193.968 L 471.311 193.321 L 471.427 192.653 L 471.536 191.976 L 471.634 191.302 L 471.723 190.642 L 471.805 190.01 L 471.877 189.418 L 471.94 188.877 L 472.038 187.995 L 472.071 187.678 L 472.097 187.457 L 472.747 182.675 L 472.418 187.835 L 472.42 187.837 Z " fill-rule="evenodd" fill="rgb(35,31,32)"/></g></g><g><path d=" M 113.555 317.948 L 116.128 317.948 L 116.128 332.268 L 116.128 332.268 Q 116.128 336.052 113.842 338.216 L 113.842 338.216 L 113.842 338.216 Q 111.557 340.381 107.561 340.381 L 107.561 340.381 L 107.561 340.381 Q 103.564 340.381 101.377 338.201 L 101.377 338.201 L 101.377 338.201 Q 99.19 336.022 99.19 332.207 L 99.19 332.207 L 99.19 317.948 L 101.763 317.948 L 101.763 332.389 L 101.763 332.389 Q 101.763 335.159 103.277 336.642 L 103.277 336.642 L 103.277 336.642 Q 104.791 338.126 107.727 338.126 L 107.727 338.126 L 107.727 338.126 Q 110.527 338.126 112.041 336.635 L 112.041 336.635 L 112.041 336.635 Q 113.555 335.144 113.555 332.358 L 113.555 332.358 L 113.555 317.948 L 113.555 317.948 Z  M 135.473 340.078 L 132.96 340.078 L 132.96 329.346 L 132.96 329.346 Q 132.96 327.318 132.037 326.319 L 132.037 326.319 L 132.037 326.319 Q 131.113 325.32 129.146 325.32 L 129.146 325.32 L 129.146 325.32 Q 126.542 325.32 125.331 326.728 L 125.331 326.728 L 125.331 326.728 Q 124.12 328.135 124.12 331.375 L 124.12 331.375 L 124.12 340.078 L 121.607 340.078 L 121.607 323.488 L 123.651 323.488 L 124.06 325.759 L 124.181 325.759 L 124.181 325.759 Q 124.953 324.533 126.345 323.859 L 126.345 323.859 L 126.345 323.859 Q 127.738 323.186 129.448 323.186 L 129.448 323.186 L 129.448 323.186 Q 132.445 323.186 133.959 324.631 L 133.959 324.631 L 133.959 324.631 Q 135.473 326.077 135.473 329.255 L 135.473 329.255 L 135.473 340.078 L 135.473 340.078 Z  M 143.147 323.488 L 143.147 340.078 L 140.634 340.078 L 140.634 323.488 L 143.147 323.488 L 143.147 323.488 Z  M 140.422 318.993 L 140.422 318.993 L 140.422 318.993 Q 140.422 318.13 140.846 317.729 L 140.846 317.729 L 140.846 317.729 Q 141.27 317.328 141.906 317.328 L 141.906 317.328 L 141.906 317.328 Q 142.511 317.328 142.95 317.736 L 142.95 317.736 L 142.95 317.736 Q 143.389 318.145 143.389 318.993 L 143.389 318.993 L 143.389 318.993 Q 143.389 319.84 142.95 320.257 L 142.95 320.257 L 142.95 320.257 Q 142.511 320.673 141.906 320.673 L 141.906 320.673 L 141.906 320.673 Q 141.27 320.673 140.846 320.257 L 140.846 320.257 L 140.846 320.257 Q 140.422 319.84 140.422 318.993 Z  M 155.044 340.078 L 152.108 340.078 L 145.811 323.488 L 148.505 323.488 L 152.078 333.327 L 152.078 333.327 Q 153.289 336.778 153.5 337.808 L 153.5 337.808 L 153.622 337.808 L 153.622 337.808 Q 153.788 337.005 154.674 334.485 L 154.674 334.485 L 154.674 334.485 Q 155.559 331.965 158.647 323.488 L 158.647 323.488 L 161.341 323.488 L 155.044 340.078 L 155.044 340.078 Z  M 171.014 340.381 L 171.014 340.381 L 171.014 340.381 Q 167.335 340.381 165.209 338.141 L 165.209 338.141 L 165.209 338.141 Q 163.082 335.9 163.082 331.919 L 163.082 331.919 L 163.082 331.919 Q 163.082 327.908 165.057 325.547 L 165.057 325.547 L 165.057 325.547 Q 167.033 323.186 170.363 323.186 L 170.363 323.186 L 170.363 323.186 Q 173.481 323.186 175.297 325.237 L 175.297 325.237 L 175.297 325.237 Q 177.114 327.288 177.114 330.648 L 177.114 330.648 L 177.114 332.237 L 165.686 332.237 L 165.686 332.237 Q 165.761 335.159 167.161 336.672 L 167.161 336.672 L 167.161 336.672 Q 168.562 338.186 171.104 338.186 L 171.104 338.186 L 171.104 338.186 Q 173.784 338.186 176.402 337.066 L 176.402 337.066 L 176.402 339.306 L 176.402 339.306 Q 175.07 339.881 173.882 340.131 L 173.882 340.131 L 173.882 340.131 Q 172.694 340.381 171.014 340.381 Z  M 170.333 325.29 L 170.333 325.29 L 170.333 325.29 Q 168.334 325.29 167.146 326.591 L 167.146 326.591 L 167.146 326.591 Q 165.958 327.893 165.746 330.194 L 165.746 330.194 L 174.419 330.194 L 174.419 330.194 Q 174.419 327.817 173.36 326.554 L 173.36 326.554 L 173.36 326.554 Q 172.3 325.29 170.333 325.29 Z  M 188.966 323.186 L 188.966 323.186 L 188.966 323.186 Q 190.071 323.186 190.949 323.367 L 190.949 323.367 L 190.601 325.698 L 190.601 325.698 Q 189.571 325.471 188.784 325.471 L 188.784 325.471 L 188.784 325.471 Q 186.771 325.471 185.341 327.106 L 185.341 327.106 L 185.341 327.106 Q 183.91 328.741 183.91 331.178 L 183.91 331.178 L 183.91 340.078 L 181.397 340.078 L 181.397 323.488 L 183.471 323.488 L 183.759 326.561 L 183.88 326.561 L 183.88 326.561 Q 184.803 324.941 186.105 324.064 L 186.105 324.064 L 186.105 324.064 Q 187.407 323.186 188.966 323.186 Z  M 204.753 335.552 L 204.753 335.552 L 204.753 335.552 Q 204.753 337.868 203.028 339.125 L 203.028 339.125 L 203.028 339.125 Q 201.302 340.381 198.184 340.381 L 198.184 340.381 L 198.184 340.381 Q 194.884 340.381 193.038 339.336 L 193.038 339.336 L 193.038 337.005 L 193.038 337.005 Q 194.233 337.611 195.603 337.959 L 195.603 337.959 L 195.603 337.959 Q 196.973 338.307 198.245 338.307 L 198.245 338.307 L 198.245 338.307 Q 200.212 338.307 201.272 337.679 L 201.272 337.679 L 201.272 337.679 Q 202.332 337.051 202.332 335.764 L 202.332 335.764 L 202.332 335.764 Q 202.332 334.795 201.491 334.107 L 201.491 334.107 L 201.491 334.107 Q 200.651 333.418 198.214 332.48 L 198.214 332.48 L 198.214 332.48 Q 195.898 331.617 194.922 330.973 L 194.922 330.973 L 194.922 330.973 Q 193.946 330.33 193.469 329.513 L 193.469 329.513 L 193.469 329.513 Q 192.992 328.695 192.992 327.56 L 192.992 327.56 L 192.992 327.56 Q 192.992 325.532 194.642 324.359 L 194.642 324.359 L 194.642 324.359 Q 196.292 323.186 199.168 323.186 L 199.168 323.186 L 199.168 323.186 Q 201.847 323.186 204.405 324.275 L 204.405 324.275 L 203.512 326.319 L 203.512 326.319 Q 201.015 325.29 198.986 325.29 L 198.986 325.29 L 198.986 325.29 Q 197.2 325.29 196.292 325.85 L 196.292 325.85 L 196.292 325.85 Q 195.384 326.41 195.384 327.394 L 195.384 327.394 L 195.384 327.394 Q 195.384 328.06 195.724 328.529 L 195.724 328.529 L 195.724 328.529 Q 196.065 328.998 196.822 329.422 L 196.822 329.422 L 196.822 329.422 Q 197.579 329.846 199.728 330.648 L 199.728 330.648 L 199.728 330.648 Q 202.68 331.723 203.717 332.813 L 203.717 332.813 L 203.717 332.813 Q 204.753 333.902 204.753 335.552 Z  M 211.353 323.488 L 211.353 340.078 L 208.84 340.078 L 208.84 323.488 L 211.353 323.488 L 211.353 323.488 Z  M 208.628 318.993 L 208.628 318.993 L 208.628 318.993 Q 208.628 318.13 209.052 317.729 L 209.052 317.729 L 209.052 317.729 Q 209.476 317.328 210.112 317.328 L 210.112 317.328 L 210.112 317.328 Q 210.717 317.328 211.156 317.736 L 211.156 317.736 L 211.156 317.736 Q 211.595 318.145 211.595 318.993 L 211.595 318.993 L 211.595 318.993 Q 211.595 319.84 211.156 320.257 L 211.156 320.257 L 211.156 320.257 Q 210.717 320.673 210.112 320.673 L 210.112 320.673 L 210.112 320.673 Q 209.476 320.673 209.052 320.257 L 209.052 320.257 L 209.052 320.257 Q 208.628 319.84 208.628 318.993 Z  M 222.04 338.307 L 222.04 338.307 L 222.04 338.307 Q 222.706 338.307 223.326 338.209 L 223.326 338.209 L 223.326 338.209 Q 223.947 338.11 224.31 338.004 L 224.31 338.004 L 224.31 339.927 L 224.31 339.927 Q 223.901 340.124 223.107 340.252 L 223.107 340.252 L 223.107 340.252 Q 222.312 340.381 221.676 340.381 L 221.676 340.381 L 221.676 340.381 Q 216.863 340.381 216.863 335.31 L 216.863 335.31 L 216.863 325.441 L 214.486 325.441 L 214.486 324.23 L 216.863 323.186 L 217.922 319.644 L 219.375 319.644 L 219.375 323.488 L 224.189 323.488 L 224.189 325.441 L 219.375 325.441 L 219.375 335.204 L 219.375 335.204 Q 219.375 336.703 220.087 337.505 L 220.087 337.505 L 220.087 337.505 Q 220.798 338.307 222.04 338.307 Z  M 239.689 340.078 L 237.827 340.078 L 237.328 337.717 L 237.207 337.717 L 237.207 337.717 Q 235.965 339.276 234.732 339.828 L 234.732 339.828 L 234.732 339.828 Q 233.498 340.381 231.651 340.381 L 231.651 340.381 L 231.651 340.381 Q 229.184 340.381 227.784 339.109 L 227.784 339.109 L 227.784 339.109 Q 226.384 337.838 226.384 335.492 L 226.384 335.492 L 226.384 335.492 Q 226.384 330.466 234.421 330.224 L 234.421 330.224 L 237.237 330.133 L 237.237 329.104 L 237.237 329.104 Q 237.237 327.151 236.397 326.221 L 236.397 326.221 L 236.397 326.221 Q 235.557 325.29 233.71 325.29 L 233.71 325.29 L 233.71 325.29 Q 231.636 325.29 229.018 326.561 L 229.018 326.561 L 228.246 324.639 L 228.246 324.639 Q 229.472 323.973 230.932 323.594 L 230.932 323.594 L 230.932 323.594 Q 232.393 323.216 233.861 323.216 L 233.861 323.216 L 233.861 323.216 Q 236.828 323.216 238.259 324.533 L 238.259 324.533 L 238.259 324.533 Q 239.689 325.85 239.689 328.756 L 239.689 328.756 L 239.689 340.078 L 239.689 340.078 Z  M 232.151 338.307 L 232.151 338.307 L 232.151 338.307 Q 234.497 338.307 235.837 337.021 L 235.837 337.021 L 235.837 337.021 Q 237.176 335.734 237.176 333.418 L 237.176 333.418 L 237.176 331.919 L 234.664 332.025 L 234.664 332.025 Q 231.667 332.131 230.342 332.956 L 230.342 332.956 L 230.342 332.956 Q 229.018 333.781 229.018 335.522 L 229.018 335.522 L 229.018 335.522 Q 229.018 336.884 229.843 337.596 L 229.843 337.596 L 229.843 337.596 Q 230.667 338.307 232.151 338.307 Z  M 231.561 321.294 L 231.561 320.915 L 231.561 320.915 Q 232.287 319.977 233.127 318.645 L 233.127 318.645 L 233.127 318.645 Q 233.967 317.313 234.452 316.329 L 234.452 316.329 L 237.509 316.329 L 237.509 316.647 L 237.509 316.647 Q 236.843 317.63 235.526 319.068 L 235.526 319.068 L 235.526 319.068 Q 234.209 320.506 233.241 321.294 L 233.241 321.294 L 231.561 321.294 L 231.561 321.294 Z  M 252.434 323.186 L 252.434 323.186 L 252.434 323.186 Q 253.539 323.186 254.417 323.367 L 254.417 323.367 L 254.069 325.698 L 254.069 325.698 Q 253.04 325.471 252.252 325.471 L 252.252 325.471 L 252.252 325.471 Q 250.239 325.471 248.809 327.106 L 248.809 327.106 L 248.809 327.106 Q 247.378 328.741 247.378 331.178 L 247.378 331.178 L 247.378 340.078 L 244.866 340.078 L 244.866 323.488 L 246.939 323.488 L 247.227 326.561 L 247.348 326.561 L 247.348 326.561 Q 248.271 324.941 249.573 324.064 L 249.573 324.064 L 249.573 324.064 Q 250.875 323.186 252.434 323.186 Z  M 260.033 323.488 L 260.033 340.078 L 257.52 340.078 L 257.52 323.488 L 260.033 323.488 L 260.033 323.488 Z  M 257.308 318.993 L 257.308 318.993 L 257.308 318.993 Q 257.308 318.13 257.732 317.729 L 257.732 317.729 L 257.732 317.729 Q 258.156 317.328 258.792 317.328 L 258.792 317.328 L 258.792 317.328 Q 259.397 317.328 259.836 317.736 L 259.836 317.736 L 259.836 317.736 Q 260.275 318.145 260.275 318.993 L 260.275 318.993 L 260.275 318.993 Q 260.275 319.84 259.836 320.257 L 259.836 320.257 L 259.836 320.257 Q 259.397 320.673 258.792 320.673 L 258.792 320.673 L 258.792 320.673 Q 258.156 320.673 257.732 320.257 L 257.732 320.257 L 257.732 320.257 Q 257.308 319.84 257.308 318.993 Z  M 279.68 331.768 L 279.68 331.768 L 279.68 331.768 Q 279.68 335.825 277.637 338.103 L 277.637 338.103 L 277.637 338.103 Q 275.593 340.381 271.991 340.381 L 271.991 340.381 L 271.991 340.381 Q 269.766 340.381 268.04 339.336 L 268.04 339.336 L 268.04 339.336 Q 266.314 338.292 265.376 336.339 L 265.376 336.339 L 265.376 336.339 Q 264.437 334.387 264.437 331.768 L 264.437 331.768 L 264.437 331.768 Q 264.437 327.711 266.466 325.449 L 266.466 325.449 L 266.466 325.449 Q 268.494 323.186 272.097 323.186 L 272.097 323.186 L 272.097 323.186 Q 275.578 323.186 277.629 325.502 L 277.629 325.502 L 277.629 325.502 Q 279.68 327.817 279.68 331.768 Z  M 267.041 331.768 L 267.041 331.768 L 267.041 331.768 Q 267.041 334.947 268.312 336.612 L 268.312 336.612 L 268.312 336.612 Q 269.584 338.277 272.051 338.277 L 272.051 338.277 L 272.051 338.277 Q 274.519 338.277 275.798 336.619 L 275.798 336.619 L 275.798 336.619 Q 277.077 334.962 277.077 331.768 L 277.077 331.768 L 277.077 331.768 Q 277.077 328.605 275.798 326.962 L 275.798 326.962 L 275.798 326.962 Q 274.519 325.32 272.021 325.32 L 272.021 325.32 L 272.021 325.32 Q 269.554 325.32 268.297 326.94 L 268.297 326.94 L 268.297 326.94 Q 267.041 328.559 267.041 331.768 Z  M 115.84 301.366 L 111.224 301.366 L 111.224 310.57 L 108.65 310.57 L 108.65 288.44 L 114.72 288.44 L 114.72 288.44 Q 118.792 288.44 120.737 289.999 L 120.737 289.999 L 120.737 289.999 Q 122.682 291.558 122.682 294.691 L 122.682 294.691 L 122.682 294.691 Q 122.682 299.081 118.232 300.625 L 118.232 300.625 L 124.241 310.57 L 121.199 310.57 L 115.84 301.366 L 115.84 301.366 Z  M 111.224 290.695 L 111.224 299.156 L 114.75 299.156 L 114.75 299.156 Q 117.475 299.156 118.747 298.074 L 118.747 298.074 L 118.747 298.074 Q 120.018 296.992 120.018 294.827 L 120.018 294.827 L 120.018 294.827 Q 120.018 292.633 118.724 291.664 L 118.724 291.664 L 118.724 291.664 Q 117.43 290.695 114.569 290.695 L 114.569 290.695 L 111.224 290.695 L 111.224 290.695 Z  M 134.443 310.872 L 134.443 310.872 L 134.443 310.872 Q 130.765 310.872 128.638 308.632 L 128.638 308.632 L 128.638 308.632 Q 126.512 306.392 126.512 302.411 L 126.512 302.411 L 126.512 302.411 Q 126.512 298.4 128.487 296.038 L 128.487 296.038 L 128.487 296.038 Q 130.462 293.677 133.792 293.677 L 133.792 293.677 L 133.792 293.677 Q 136.911 293.677 138.727 295.728 L 138.727 295.728 L 138.727 295.728 Q 140.543 297.779 140.543 301.139 L 140.543 301.139 L 140.543 302.729 L 129.115 302.729 L 129.115 302.729 Q 129.191 305.65 130.591 307.164 L 130.591 307.164 L 130.591 307.164 Q 131.991 308.677 134.534 308.677 L 134.534 308.677 L 134.534 308.677 Q 137.213 308.677 139.832 307.557 L 139.832 307.557 L 139.832 309.798 L 139.832 309.798 Q 138.5 310.373 137.312 310.623 L 137.312 310.623 L 137.312 310.623 Q 136.124 310.872 134.443 310.872 Z  M 133.762 295.781 L 133.762 295.781 L 133.762 295.781 Q 131.764 295.781 130.576 297.083 L 130.576 297.083 L 130.576 297.083 Q 129.388 298.384 129.176 300.685 L 129.176 300.685 L 137.849 300.685 L 137.849 300.685 Q 137.849 298.309 136.79 297.045 L 136.79 297.045 L 136.79 297.045 Q 135.73 295.781 133.762 295.781 Z  M 155.529 306.044 L 155.529 306.044 L 155.529 306.044 Q 155.529 308.36 153.803 309.616 L 153.803 309.616 L 153.803 309.616 Q 152.078 310.872 148.959 310.872 L 148.959 310.872 L 148.959 310.872 Q 145.66 310.872 143.813 309.828 L 143.813 309.828 L 143.813 307.497 L 143.813 307.497 Q 145.009 308.102 146.379 308.45 L 146.379 308.45 L 146.379 308.45 Q 147.749 308.799 149.02 308.799 L 149.02 308.799 L 149.02 308.799 Q 150.988 308.799 152.047 308.17 L 152.047 308.17 L 152.047 308.17 Q 153.107 307.542 153.107 306.256 L 153.107 306.256 L 153.107 306.256 Q 153.107 305.287 152.267 304.598 L 152.267 304.598 L 152.267 304.598 Q 151.427 303.909 148.99 302.971 L 148.99 302.971 L 148.99 302.971 Q 146.674 302.108 145.698 301.465 L 145.698 301.465 L 145.698 301.465 Q 144.721 300.821 144.244 300.004 L 144.244 300.004 L 144.244 300.004 Q 143.768 299.187 143.768 298.051 L 143.768 298.051 L 143.768 298.051 Q 143.768 296.023 145.417 294.85 L 145.417 294.85 L 145.417 294.85 Q 147.067 293.677 149.943 293.677 L 149.943 293.677 L 149.943 293.677 Q 152.623 293.677 155.181 294.767 L 155.181 294.767 L 154.288 296.81 L 154.288 296.81 Q 151.79 295.781 149.762 295.781 L 149.762 295.781 L 149.762 295.781 Q 147.976 295.781 147.067 296.341 L 147.067 296.341 L 147.067 296.341 Q 146.159 296.901 146.159 297.885 L 146.159 297.885 L 146.159 297.885 Q 146.159 298.551 146.5 299.02 L 146.5 299.02 L 146.5 299.02 Q 146.84 299.489 147.597 299.913 L 147.597 299.913 L 147.597 299.913 Q 148.354 300.337 150.503 301.139 L 150.503 301.139 L 150.503 301.139 Q 153.455 302.214 154.492 303.304 L 154.492 303.304 L 154.492 303.304 Q 155.529 304.394 155.529 306.044 Z  M 164.974 308.799 L 164.974 308.799 L 164.974 308.799 Q 165.64 308.799 166.261 308.7 L 166.261 308.7 L 166.261 308.7 Q 166.881 308.602 167.245 308.496 L 167.245 308.496 L 167.245 310.418 L 167.245 310.418 Q 166.836 310.615 166.041 310.744 L 166.041 310.744 L 166.041 310.744 Q 165.247 310.872 164.611 310.872 L 164.611 310.872 L 164.611 310.872 Q 159.797 310.872 159.797 305.801 L 159.797 305.801 L 159.797 295.932 L 157.421 295.932 L 157.421 294.721 L 159.797 293.677 L 160.857 290.135 L 162.31 290.135 L 162.31 293.98 L 167.124 293.98 L 167.124 295.932 L 162.31 295.932 L 162.31 305.695 L 162.31 305.695 Q 162.31 307.194 163.021 307.996 L 163.021 307.996 L 163.021 307.996 Q 163.733 308.799 164.974 308.799 Z  M 182.624 310.57 L 180.762 310.57 L 180.262 308.208 L 180.141 308.208 L 180.141 308.208 Q 178.9 309.767 177.666 310.32 L 177.666 310.32 L 177.666 310.32 Q 176.433 310.872 174.586 310.872 L 174.586 310.872 L 174.586 310.872 Q 172.119 310.872 170.719 309.601 L 170.719 309.601 L 170.719 309.601 Q 169.318 308.329 169.318 305.983 L 169.318 305.983 L 169.318 305.983 Q 169.318 300.958 177.356 300.716 L 177.356 300.716 L 180.171 300.625 L 180.171 299.595 L 180.171 299.595 Q 180.171 297.643 179.331 296.712 L 179.331 296.712 L 179.331 296.712 Q 178.491 295.781 176.645 295.781 L 176.645 295.781 L 176.645 295.781 Q 174.571 295.781 171.952 297.052 L 171.952 297.052 L 171.18 295.13 L 171.18 295.13 Q 172.406 294.464 173.867 294.086 L 173.867 294.086 L 173.867 294.086 Q 175.328 293.707 176.796 293.707 L 176.796 293.707 L 176.796 293.707 Q 179.763 293.707 181.193 295.024 L 181.193 295.024 L 181.193 295.024 Q 182.624 296.341 182.624 299.247 L 182.624 299.247 L 182.624 310.57 L 182.624 310.57 Z  M 175.085 308.799 L 175.085 308.799 L 175.085 308.799 Q 177.432 308.799 178.771 307.512 L 178.771 307.512 L 178.771 307.512 Q 180.111 306.225 180.111 303.909 L 180.111 303.909 L 180.111 302.411 L 177.598 302.517 L 177.598 302.517 Q 174.601 302.623 173.277 303.448 L 173.277 303.448 L 173.277 303.448 Q 171.952 304.273 171.952 306.013 L 171.952 306.013 L 171.952 306.013 Q 171.952 307.376 172.777 308.087 L 172.777 308.087 L 172.777 308.087 Q 173.602 308.799 175.085 308.799 Z  M 187.619 293.98 L 190.162 293.98 L 190.162 304.742 L 190.162 304.742 Q 190.162 306.77 191.085 307.769 L 191.085 307.769 L 191.085 307.769 Q 192.008 308.768 193.976 308.768 L 193.976 308.768 L 193.976 308.768 Q 196.58 308.768 197.783 307.345 L 197.783 307.345 L 197.783 307.345 Q 198.986 305.923 198.986 302.698 L 198.986 302.698 L 198.986 293.98 L 201.499 293.98 L 201.499 310.57 L 199.425 310.57 L 199.062 308.344 L 198.926 308.344 L 198.926 308.344 Q 198.154 309.57 196.784 310.221 L 196.784 310.221 L 196.784 310.221 Q 195.414 310.872 193.658 310.872 L 193.658 310.872 L 193.658 310.872 Q 190.631 310.872 189.125 309.434 L 189.125 309.434 L 189.125 309.434 Q 187.619 307.996 187.619 304.833 L 187.619 304.833 L 187.619 293.98 L 187.619 293.98 Z  M 214.396 293.677 L 214.396 293.677 L 214.396 293.677 Q 215.5 293.677 216.378 293.859 L 216.378 293.859 L 216.03 296.19 L 216.03 296.19 Q 215.001 295.963 214.214 295.963 L 214.214 295.963 L 214.214 295.963 Q 212.201 295.963 210.77 297.597 L 210.77 297.597 L 210.77 297.597 Q 209.34 299.232 209.34 301.669 L 209.34 301.669 L 209.34 310.57 L 206.827 310.57 L 206.827 293.98 L 208.901 293.98 L 209.188 297.052 L 209.31 297.052 L 209.31 297.052 Q 210.233 295.433 211.535 294.555 L 211.535 294.555 L 211.535 294.555 Q 212.836 293.677 214.396 293.677 Z  M 231.545 310.57 L 229.684 310.57 L 229.184 308.208 L 229.063 308.208 L 229.063 308.208 Q 227.822 309.767 226.588 310.32 L 226.588 310.32 L 226.588 310.32 Q 225.354 310.872 223.508 310.872 L 223.508 310.872 L 223.508 310.872 Q 221.041 310.872 219.64 309.601 L 219.64 309.601 L 219.64 309.601 Q 218.24 308.329 218.24 305.983 L 218.24 305.983 L 218.24 305.983 Q 218.24 300.958 226.278 300.716 L 226.278 300.716 L 229.093 300.625 L 229.093 299.595 L 229.093 299.595 Q 229.093 297.643 228.253 296.712 L 228.253 296.712 L 228.253 296.712 Q 227.413 295.781 225.566 295.781 L 225.566 295.781 L 225.566 295.781 Q 223.493 295.781 220.874 297.052 L 220.874 297.052 L 220.102 295.13 L 220.102 295.13 Q 221.328 294.464 222.789 294.086 L 222.789 294.086 L 222.789 294.086 Q 224.25 293.707 225.718 293.707 L 225.718 293.707 L 225.718 293.707 Q 228.685 293.707 230.115 295.024 L 230.115 295.024 L 230.115 295.024 Q 231.545 296.341 231.545 299.247 L 231.545 299.247 L 231.545 310.57 L 231.545 310.57 Z  M 224.007 308.799 L 224.007 308.799 L 224.007 308.799 Q 226.354 308.799 227.693 307.512 L 227.693 307.512 L 227.693 307.512 Q 229.033 306.225 229.033 303.909 L 229.033 303.909 L 229.033 302.411 L 226.52 302.517 L 226.52 302.517 Q 223.523 302.623 222.198 303.448 L 222.198 303.448 L 222.198 303.448 Q 220.874 304.273 220.874 306.013 L 220.874 306.013 L 220.874 306.013 Q 220.874 307.376 221.699 308.087 L 221.699 308.087 L 221.699 308.087 Q 222.524 308.799 224.007 308.799 Z  M 250.587 310.57 L 248.075 310.57 L 248.075 299.838 L 248.075 299.838 Q 248.075 297.809 247.151 296.81 L 247.151 296.81 L 247.151 296.81 Q 246.228 295.811 244.26 295.811 L 244.26 295.811 L 244.26 295.811 Q 241.657 295.811 240.446 297.219 L 240.446 297.219 L 240.446 297.219 Q 239.235 298.627 239.235 301.866 L 239.235 301.866 L 239.235 310.57 L 236.722 310.57 L 236.722 293.98 L 238.766 293.98 L 239.174 296.25 L 239.295 296.25 L 239.295 296.25 Q 240.067 295.024 241.46 294.351 L 241.46 294.351 L 241.46 294.351 Q 242.853 293.677 244.563 293.677 L 244.563 293.677 L 244.563 293.677 Q 247.56 293.677 249.074 295.123 L 249.074 295.123 L 249.074 295.123 Q 250.587 296.568 250.587 299.747 L 250.587 299.747 L 250.587 310.57 L 250.587 310.57 Z  M 261.107 308.799 L 261.107 308.799 L 261.107 308.799 Q 261.773 308.799 262.394 308.7 L 262.394 308.7 L 262.394 308.7 Q 263.015 308.602 263.378 308.496 L 263.378 308.496 L 263.378 310.418 L 263.378 310.418 Q 262.969 310.615 262.175 310.744 L 262.175 310.744 L 262.175 310.744 Q 261.38 310.872 260.744 310.872 L 260.744 310.872 L 260.744 310.872 Q 255.931 310.872 255.931 305.801 L 255.931 305.801 L 255.931 295.932 L 253.554 295.932 L 253.554 294.721 L 255.931 293.677 L 256.99 290.135 L 258.443 290.135 L 258.443 293.98 L 263.257 293.98 L 263.257 295.932 L 258.443 295.932 L 258.443 305.695 L 258.443 305.695 Q 258.443 307.194 259.155 307.996 L 259.155 307.996 L 259.155 307.996 Q 259.866 308.799 261.107 308.799 Z  M 273.701 310.872 L 273.701 310.872 L 273.701 310.872 Q 270.023 310.872 267.896 308.632 L 267.896 308.632 L 267.896 308.632 Q 265.77 306.392 265.77 302.411 L 265.77 302.411 L 265.77 302.411 Q 265.77 298.4 267.745 296.038 L 267.745 296.038 L 267.745 296.038 Q 269.72 293.677 273.05 293.677 L 273.05 293.677 L 273.05 293.677 Q 276.168 293.677 277.985 295.728 L 277.985 295.728 L 277.985 295.728 Q 279.801 297.779 279.801 301.139 L 279.801 301.139 L 279.801 302.729 L 268.373 302.729 L 268.373 302.729 Q 268.449 305.65 269.849 307.164 L 269.849 307.164 L 269.849 307.164 Q 271.249 308.677 273.792 308.677 L 273.792 308.677 L 273.792 308.677 Q 276.471 308.677 279.09 307.557 L 279.09 307.557 L 279.09 309.798 L 279.09 309.798 Q 277.758 310.373 276.57 310.623 L 276.57 310.623 L 276.57 310.623 Q 275.381 310.872 273.701 310.872 Z  M 273.02 295.781 L 273.02 295.781 L 273.02 295.781 Q 271.022 295.781 269.834 297.083 L 269.834 297.083 L 269.834 297.083 Q 268.646 298.384 268.434 300.685 L 268.434 300.685 L 277.107 300.685 L 277.107 300.685 Q 277.107 298.309 276.047 297.045 L 276.047 297.045 L 276.047 297.045 Q 274.988 295.781 273.02 295.781 Z " fill="rgb(245,245,245)"/></g></g></svg>